<?xml version="1.0" encoding="UTF-8"?>
<svg version="1.1" xmlns="http://www.w3.org/2000/svg" width="512" height="512">
<path d="M0 0 C7.26964858 6.09487337 14.48832506 12.90967019 19.44140625 21.046875 C19.44140625 21.706875 19.44140625 22.366875 19.44140625 23.046875 C19.89128906 22.634375 20.34117187 22.221875 20.8046875 21.796875 C40.2241329 4.36218254 62.0421978 -5.78116894 88.44140625 -4.953125 C112.97223391 -2.94478405 133.7664998 7.48777328 150.05859375 26.078125 C166.23640994 46.23409272 170.64899975 69.60480344 168.046875 94.87890625 C166.80716442 101.62133218 164.44585051 107.85990231 161.89453125 114.19140625 C161.54457092 115.06232407 161.1946106 115.93324188 160.83404541 116.83055115 C157.25572344 125.64473475 153.36624558 134.30877552 149.40603638 142.95669556 C147.7212201 146.63623339 146.04696391 150.3205483 144.3719635 154.00456238 C143.53629852 155.84235879 142.70015444 157.67993742 141.86351013 159.51728821 C138.70792478 166.44904978 135.58848044 173.39567261 132.50390625 180.359375 C131.83234497 181.87470825 131.83234497 181.87470825 131.1472168 183.4206543 C130.1655274 185.63690013 129.18418398 187.85329925 128.203125 190.06982422 C124.7509086 197.86629804 121.28693019 205.65756155 117.82461548 213.44955444 C116.94803133 215.42234983 116.07154526 217.3951888 115.19515991 219.36807251 C109.23411883 232.78660761 103.25467795 246.19659097 97.22290039 259.58349609 C96.7458667 260.64391113 96.26883301 261.70432617 95.77734375 262.796875 C95.3704834 263.69921875 94.96362305 264.6015625 94.54443359 265.53125 C92.19523324 270.60095708 92.19523324 270.60095708 91.44140625 276.046875 C93.06243593 277.75796189 94.73644088 279.41940806 96.44140625 281.046875 C104.92296103 290.32357554 107.94179663 301.62925999 107.69140625 313.9296875 C106.5635868 327.9921863 100.53832099 338.4195842 90.44140625 348.046875 C83.87189952 353.046875 83.87189952 353.046875 80.44140625 353.046875 C80.46235352 353.69946289 80.48330078 354.35205078 80.50488281 355.02441406 C80.91625898 369.89123646 80.32842435 383.65500684 76.44140625 398.046875 C76.2594873 398.72395508 76.07756836 399.40103516 75.89013672 400.09863281 C66.31871527 434.36415055 41.96998216 462.23151253 11.56640625 479.796875 C-18.10096058 496.30616557 -55.94225224 500.3320417 -88.55859375 491.046875 C-89.22552246 490.86495605 -89.89245117 490.68303711 -90.57958984 490.49560547 C-121.31740419 481.92455781 -148.49348957 460.82572933 -165.55859375 434.046875 C-166.26628906 432.93828125 -166.97398437 431.8296875 -167.703125 430.6875 C-179.77160437 410.65797783 -185.79349336 388.43636792 -185.62109375 365.109375 C-185.61658203 363.94857422 -185.61207031 362.78777344 -185.60742188 361.59179688 C-185.59570022 358.74343566 -185.57929135 355.89518278 -185.55859375 353.046875 C-186.73446045 352.58982178 -186.73446045 352.58982178 -187.93408203 352.12353516 C-197.10892891 348.35971425 -204.1706002 340.40339074 -208.37109375 331.609375 C-213.56533511 319.17053385 -214.23993329 306.81756928 -209.55859375 294.046875 C-206.85908884 287.51828512 -203.20155376 279.368355 -196.55859375 276.046875 C-197.13864571 271.30070893 -198.49727902 267.56676626 -200.5234375 263.24609375 C-200.82780731 262.59014221 -201.13217712 261.93419067 -201.44577026 261.25836182 C-202.10782219 259.83247087 -202.77295882 258.408009 -203.44082642 256.98483276 C-205.2810789 253.06031965 -207.09526993 249.12379295 -208.91015625 245.1875 C-209.29228775 244.35963486 -209.67441925 243.53176971 -210.06813049 242.67881775 C-214.29191056 233.50102045 -218.33351951 224.24519464 -222.37109375 214.984375 C-228.11019734 201.8354313 -233.93257962 188.72894412 -239.86798096 175.66738892 C-246.39979347 161.29100586 -252.91117835 146.90508963 -259.30957031 132.46875 C-260.08706521 130.71794667 -260.86771418 128.96853981 -261.65185547 127.22070312 C-273.0609726 101.76997776 -278.42279998 76.30518717 -268.55859375 49.30395508 C-260.10019672 27.37324794 -243.83219091 11.70800774 -222.76171875 1.80859375 C-203.20335465 -6.79726907 -179.51826856 -7.34223804 -159.48608398 0.04711914 C-147.63081649 4.81312601 -138.07588301 10.96852724 -128.95703125 19.7890625 C-126.77827122 22.0568051 -126.77827122 22.0568051 -124.55859375 23.046875 C-124.33300781 22.34175781 -124.10742188 21.63664062 -123.875 20.91015625 C-122.28675946 17.45561525 -120.08157439 14.96112191 -117.49609375 12.234375 C-117.00149658 11.70811523 -116.50689941 11.18185547 -115.99731445 10.63964844 C-85.04496637 -21.9417706 -36.52673137 -26.94696257 0 0 Z M-100.25 17.78515625 C-101.39275391 18.90470703 -101.39275391 18.90470703 -102.55859375 20.046875 C-103.18636719 20.63855469 -103.81414062 21.23023437 -104.4609375 21.83984375 C-114.78278038 32.44255311 -121.39486442 49.64204909 -121.58862305 64.32202148 C-121.53676818 67.64374402 -121.46078026 70.96310553 -121.34375 74.28320312 C-121.23682269 80.41208195 -121.23682269 80.41208195 -122.8515625 83.59765625 C-124.55859375 85.046875 -124.55859375 85.046875 -127.99609375 85.546875 C-131.55859375 85.046875 -131.55859375 85.046875 -133.93359375 83.546875 C-136.15925099 80.12278693 -136.40145746 77.02111358 -136.55859375 73.046875 C-136.61015625 72.19222656 -136.66171875 71.33757812 -136.71484375 70.45703125 C-136.94709837 63.40229714 -135.98906765 56.81372923 -134.62597656 49.92211914 C-132.93187087 42.8811968 -132.93187087 42.8811968 -135.2890625 36.46875 C-149.04189971 21.51335945 -166.08215943 11.94234031 -186.67431641 10.94433594 C-206.51131842 10.66140653 -223.86000187 17.97122467 -238.28125 31.64453125 C-251.02368486 45.08637935 -257.67878491 61.46069246 -257.99609375 79.859375 C-258.01849121 80.64062744 -258.04088867 81.42187988 -258.06396484 82.22680664 C-258.00631699 97.15304862 -251.45785849 110.49580095 -245.30859375 123.734375 C-244.49848467 125.50239194 -243.6897541 127.2710411 -242.88232422 129.0402832 C-241.23573868 132.64717987 -239.58467522 136.25197184 -237.93066406 139.85546875 C-234.77891202 146.73664047 -231.70440492 153.65152964 -228.64080811 160.57229614 C-227.67413595 162.75573752 -226.7057372 164.93840524 -225.73681641 167.12084961 C-224.04116315 170.94044884 -222.3466017 174.76053119 -220.65234375 178.58074951 C-214.90026479 191.55021104 -209.14312647 204.51737422 -203.36906433 217.47706604 C-200.79078095 223.26733534 -198.22613247 229.06343545 -195.67071533 234.86383057 C-194.01458403 238.61805983 -192.34989395 242.36845249 -190.68328857 246.11804199 C-189.89617404 247.89411813 -189.11280314 249.6718584 -188.33331299 251.45129395 C-187.26051876 253.89903216 -186.1748826 256.34066361 -185.0859375 258.78125 C-184.77123001 259.50807983 -184.45652252 260.23490967 -184.13227844 260.98376465 C-183.35404601 262.70965018 -182.46529215 264.38488084 -181.55859375 266.046875 C-178.23454371 267.15489168 -177.76925232 266.88393454 -174.55859375 266.046875 C-172.31618798 265.89912639 -170.07042832 265.79943132 -167.82421875 265.73046875 C-166.52871094 265.68857422 -165.23320312 265.64667969 -163.8984375 265.60351562 C-162.53515899 265.56370829 -161.17187769 265.52399594 -159.80859375 265.484375 C-158.429675 265.44115226 -157.05076849 265.39753679 -155.671875 265.35351562 C-152.30088185 265.24743542 -148.92981549 265.1453765 -145.55859375 265.046875 C-146.7645486 258.62430964 -148.20540906 252.34196909 -150.00683594 246.06152344 C-150.24530306 245.21824368 -150.48377018 244.37496391 -150.72946358 243.50613022 C-151.51780704 240.72178464 -152.31160215 237.9390254 -153.10546875 235.15625 C-153.67132801 233.16224596 -154.23684089 231.16814359 -154.80203247 229.1739502 C-156.00721126 224.92401129 -157.21467551 220.67473066 -158.42376709 216.42590332 C-160.31886017 209.76453832 -162.20514851 203.10069844 -164.09033203 196.43652344 C-169.60260217 176.95957936 -175.13040073 157.48755649 -180.74804688 138.04071045 C-182.58617407 131.67700556 -184.41296309 125.31006498 -186.2365799 118.94218826 C-187.6848135 113.88938711 -189.14931467 108.84167549 -190.62604713 103.7971344 C-191.5300931 100.69493748 -192.41891511 97.58853461 -193.30346298 94.48072815 C-193.71176358 93.0581621 -194.12642659 91.63740356 -194.548069 90.21873474 C-195.11920709 88.29434503 -195.66545916 86.3626217 -196.21044922 84.43066406 C-196.52126434 83.359151 -196.83207947 82.28763794 -197.15231323 81.18365479 C-197.65218231 77.32430351 -196.87492862 74.67818952 -195.55859375 71.046875 C-193.97972535 69.4680066 -192.36567038 69.76367758 -190.18359375 69.671875 C-189.39210938 69.62289062 -188.600625 69.57390625 -187.78515625 69.5234375 C-185.55859375 70.046875 -185.55859375 70.046875 -184.05836487 72.1247406 C-182.3592484 75.43527686 -181.30711256 78.75264878 -180.33569336 82.32446289 C-180.1326528 83.04733994 -179.92961224 83.77021698 -179.72041893 84.51499939 C-179.04359752 86.93128396 -178.37735238 89.35035772 -177.7109375 91.76953125 C-177.22620142 93.50755007 -176.74076574 95.24537389 -176.25468445 96.98301697 C-175.20908778 100.72589155 -174.1680129 104.46998333 -173.13043213 108.21508789 C-171.48631833 114.14877524 -169.83189325 120.07955388 -168.17529297 126.00976562 C-167.60660808 128.04592327 -167.03794371 130.08208666 -166.46929932 132.11825562 C-166.18424782 133.13894512 -165.89919632 134.15963463 -165.6055069 135.21125412 C-164.72613723 138.36154255 -163.84775558 141.51210492 -162.96966553 144.66275024 C-156.99350673 166.1023766 -150.95888262 187.52538458 -144.90725708 208.94381714 C-143.47920753 213.99863679 -142.05394872 219.05423851 -140.62948704 224.11007023 C-139.55950988 227.90614371 -138.48769502 231.70169647 -137.41535378 235.49710274 C-136.91945444 237.25348796 -136.4242427 239.0100675 -135.92978477 240.76685905 C-135.25157681 243.17587196 -134.57069503 245.58411403 -133.88916016 247.9921875 C-133.59949072 249.02461374 -133.59949072 249.02461374 -133.30396938 250.07789707 C-131.86850962 255.13416397 -130.22566042 260.04567499 -128.55859375 265.046875 C-122.28859375 265.046875 -116.01859375 265.046875 -109.55859375 265.046875 C-110.2492932 256.50029925 -111.35459215 248.06167773 -112.61572266 239.58276367 C-112.82467002 238.16236466 -113.03332556 236.7419227 -113.24171448 235.32144165 C-113.68758071 232.28533744 -114.13515403 229.24949172 -114.58400345 226.21382713 C-115.29384828 221.41062472 -115.9977587 216.60656403 -116.70053101 211.80232239 C-118.69847574 198.14909428 -120.7011078 184.49656789 -122.71679688 170.84594727 C-123.83254451 163.28955531 -124.94174805 155.732233 -126.04366052 148.17381078 C-126.62601891 144.18126301 -127.21181015 140.18928532 -127.80577469 136.19844627 C-128.363527 132.45091299 -128.91277732 128.70223232 -129.4555645 124.9525032 C-129.65594057 123.57902808 -129.85945505 122.2060065 -130.06637383 120.83350182 C-130.34886 118.95664151 -130.61889055 117.07791922 -130.88833618 115.19914246 C-131.04282038 114.14968036 -131.19730457 113.10021826 -131.35647011 112.01895428 C-131.57458028 108.81180481 -131.31803687 106.16768617 -130.55859375 103.046875 C-127.9652347 100.45351595 -126.07112343 100.76960937 -122.53125 100.68359375 C-119.94764128 101.15938704 -119.21397933 102.03091182 -117.55859375 104.046875 C-116.92645645 106.07780457 -116.92645645 106.07780457 -116.5581665 108.45385742 C-116.41205807 109.35928787 -116.26594963 110.26471832 -116.11541367 111.19758606 C-115.96807911 112.1932811 -115.82074455 113.18897614 -115.66894531 114.21484375 C-115.41989126 115.80150093 -115.41989126 115.80150093 -115.16580582 117.42021179 C-114.61542692 120.96036002 -114.08538798 124.50314449 -113.55859375 128.046875 C-113.37523972 129.26377014 -113.19188568 130.48066528 -113.00297546 131.73443604 C-111.67849402 140.53377837 -110.39137243 149.33827454 -109.11443615 158.14461517 C-108.56638914 161.92040241 -108.01547657 165.69577165 -107.46490479 169.47119141 C-106.42892656 176.57809172 -105.39541991 183.685349 -104.36286569 190.7927475 C-103.18459712 198.9022641 -102.00347492 207.01136432 -100.82214689 215.12043571 C-98.39785135 231.76213054 -95.97740577 248.40438214 -93.55859375 265.046875 C-82.66859375 265.046875 -71.77859375 265.046875 -60.55859375 265.046875 C-60.54828629 262.48528122 -60.53797882 259.92368744 -60.52735901 257.2844696 C-60.42995847 233.19504525 -60.32712774 209.1056485 -60.21925449 185.01626873 C-60.16392151 172.63040303 -60.11043938 160.24453445 -60.0612793 147.85864258 C-60.0184384 137.06604249 -59.97216063 126.27346362 -59.9217152 115.48089629 C-59.89511353 109.76368075 -59.8702604 104.04646942 -59.84951973 98.32922935 C-59.82995937 92.95229208 -59.80581734 87.5753952 -59.77810287 82.19849396 C-59.76872926 80.22115371 -59.7610551 78.2438046 -59.75517464 76.26645088 C-59.74691876 73.57433315 -59.73264347 70.88231358 -59.71681213 68.19023132 C-59.71583403 67.40132545 -59.71485592 66.61241957 -59.71384817 65.79960746 C-59.689661 62.61819935 -59.57214825 60.08753851 -58.55859375 57.046875 C-54.24210155 56.28514108 -50.81425922 55.88623896 -46.55859375 57.046875 C-45.30962253 60.79378865 -45.40521507 64.28670234 -45.40037537 68.19023132 C-45.39543739 69.02992283 -45.39049941 69.86961434 -45.3854118 70.73475105 C-45.37001011 73.55843551 -45.36166894 76.3820972 -45.35327148 79.20581055 C-45.34369506 81.22593385 -45.33368512 83.24605515 -45.32327271 85.26617432 C-45.29619204 90.75961027 -45.2751996 96.25305483 -45.25527072 101.74652076 C-45.23343066 107.4840908 -45.20603229 113.22163419 -45.17921448 118.95918274 C-45.12926079 129.82822862 -45.08433189 140.69728928 -45.04119211 151.56636411 C-44.9918426 163.93864637 -44.936916 176.31090188 -44.88151252 188.68315828 C-44.76765139 214.13770575 -44.66101918 239.59227916 -44.55859375 265.046875 C-33.66859375 265.046875 -22.77859375 265.046875 -11.55859375 265.046875 C-8.05453608 241.06417703 -4.55135016 217.0813519 -1.04931736 193.09835815 C0.57678276 181.9624795 2.20319006 170.82664587 3.83032227 159.69091797 C5.24864033 149.98426179 6.66638024 140.27752138 8.08342797 130.57067966 C8.83365784 125.43171161 9.5841758 120.292786 10.33538628 115.15396118 C11.04278953 110.31474574 11.74941826 105.47541782 12.45545959 100.63600349 C12.71437284 98.86228354 12.97356619 97.08860445 13.23306465 95.31497002 C13.58818174 92.88749951 13.94227682 90.45988197 14.29612732 88.03222656 C14.39827008 87.33570386 14.50041284 86.63918116 14.60565084 85.9215517 C17.73344287 64.4159361 15.92824887 45.35639823 3.50390625 26.7734375 C-7.98794297 11.58156107 -24.00560659 1.85425286 -42.83374023 -1.10571289 C-64.36017289 -3.94203974 -84.54593322 2.96306514 -100.25 17.78515625 Z M31.44140625 35.046875 C28.66105563 38.17779156 28.4185425 38.56673632 28.62890625 42.984375 C28.8783673 44.67516657 29.15167693 46.36251641 29.44140625 48.046875 C29.80178596 50.14998647 30.15557368 52.25423467 30.50390625 54.359375 C30.68050781 55.34550781 30.85710937 56.33164063 31.0390625 57.34765625 C32.0269448 66.43041875 31.37537967 75.28209654 30.04296875 84.28808594 C29.89278793 85.34945518 29.74260712 86.41082443 29.58787537 87.50435638 C29.08890447 91.0145461 28.57779742 94.52284998 28.06640625 98.03125 C27.70568871 100.54831352 27.34559656 103.06546673 26.98608398 105.58270264 C25.91764806 113.04065336 24.83439401 120.49639134 23.74692535 127.95158768 C23.44231818 130.04062084 23.13816335 132.12971935 22.83416748 134.21884155 C19.2906426 158.56959859 15.7103962 182.91495853 12.11962891 207.25878906 C11.15300854 213.81225944 10.18895527 220.36610239 9.22766972 226.92035747 C8.72567108 230.3421986 8.22231685 233.76382778 7.71560669 237.18497467 C7.16003279 240.93958059 6.60881358 244.69480162 6.05859375 248.45019531 C5.81095024 250.11230042 5.81095024 250.11230042 5.55830383 251.8079834 C5.40999619 252.82632263 5.26168854 253.84466187 5.10888672 254.89385986 C4.97916473 255.77388294 4.84944275 256.65390602 4.71578979 257.56059647 C4.34999527 260.45828407 4.34999527 260.45828407 4.44140625 265.046875 C10.71140625 265.046875 16.98140625 265.046875 23.44140625 265.046875 C28.22975478 250.18284318 32.40944179 235.1519889 36.6210556 220.11724091 C37.69814975 216.27441611 38.77806147 212.43238353 39.85791016 208.59033203 C40.30865648 206.98651171 40.75940109 205.3826909 41.21014404 203.77886963 C41.43721794 202.97092201 41.66429184 202.1629744 41.89824677 201.33054352 C42.60078562 198.83043122 43.30302202 196.33023414 44.00518799 193.83001709 C49.23067512 175.22551213 54.48058046 156.62790707 59.73251343 138.03085327 C60.77936258 134.32392116 61.82593733 130.61691178 62.8722229 126.90982056 C63.12484925 126.01475831 63.37747561 125.11969606 63.6377573 124.19751072 C64.13824124 122.42425856 64.63870627 120.65100106 65.13915157 118.877738 C66.32410661 114.67976099 67.51012186 110.48208944 68.69871521 106.28514099 C69.14127459 104.72232303 69.58382547 103.15950265 70.02636719 101.59667969 C70.23694543 100.85313012 70.44752367 100.10958055 70.66448307 99.34349918 C71.92126898 94.90087049 73.16360511 90.45449268 74.39550781 86.00488281 C74.67540558 85.00180084 74.95530334 83.99871887 75.24368286 82.96524048 C75.73434311 81.20565216 76.2200907 79.44468165 76.69943237 77.68197632 C78.21607473 72.27220652 78.21607473 72.27220652 80.44140625 70.046875 C82.53515625 69.78125 82.53515625 69.78125 84.94140625 69.796875 C85.73546875 69.79171875 86.52953125 69.7865625 87.34765625 69.78125 C89.44140625 70.046875 89.44140625 70.046875 91.44140625 72.046875 C92.57684529 76.46688706 92.35162734 79.54338522 91.09985352 83.89672852 C90.77592117 85.04660248 90.45198883 86.19647644 90.11824036 87.38119507 C89.56857857 89.25951523 89.56857857 89.25951523 89.0078125 91.17578125 C88.62259661 92.52593722 88.23852944 93.87642138 87.85551453 95.22720337 C87.02414283 98.1502073 86.18498183 101.0708199 85.33972168 103.98983765 C83.98553499 108.66663109 82.64817257 113.34813019 81.31347656 118.03051758 C79.88637846 123.03372583 78.45780675 128.03649694 77.02328491 133.0375824 C73.33137063 145.90901011 69.67895677 158.79125486 66.046875 171.6796875 C65.78135393 172.62172216 65.51583286 173.56375683 65.2422657 174.534338 C63.91254266 179.25227795 62.58323183 183.97033391 61.25411987 188.68844604 C58.99902222 196.69274125 56.74041103 204.69604316 54.48001289 212.698843 C53.77962485 215.17909969 53.07985295 217.65952965 52.38011169 220.13996887 C50.26093973 227.64683244 48.129369 235.14970692 45.96289062 242.64306641 C45.58094514 243.96706419 45.19900724 245.29106416 44.81707764 246.61506653 C44.11918514 249.02974494 43.41795122 251.44346119 42.71270752 253.85600281 C42.41016052 254.90294815 42.10761353 255.94989349 41.79589844 257.02856445 C41.53234558 257.93250443 41.26879272 258.8364444 40.99725342 259.76777649 C40.3229343 262.141653 40.3229343 262.141653 40.44140625 265.046875 C41.28848145 265.07193115 42.13555664 265.0969873 43.00830078 265.12280273 C46.17296183 265.21835357 49.33748188 265.31756066 52.50195312 265.41918945 C53.86746801 265.46230588 55.23302877 265.50399568 56.59863281 265.54418945 C58.56977815 265.60246054 60.54075293 265.66641236 62.51171875 265.73046875 C64.28699951 265.78545532 64.28699951 265.78545532 66.09814453 265.84155273 C69.27698344 266.03677718 72.31321074 266.46164002 75.44140625 267.046875 C81.21041065 255.83013767 86.4831911 244.44196251 91.56207275 232.89782715 C93.74845029 227.92844879 95.94737145 222.96461807 98.14453125 218 C98.59003326 216.99245667 99.03553528 215.98491333 99.49453735 214.94683838 C103.4426463 206.02480119 107.44629557 197.12841976 111.4637146 188.23742676 C118.80586628 171.98727997 126.02932983 155.68790178 133.16650391 139.34667969 C133.86352733 137.7519184 134.56062913 136.15719137 135.2578125 134.5625 C135.59583389 133.78851868 135.93385529 133.01453735 136.28211975 132.21710205 C138.12023058 128.02008187 139.9838268 123.83602784 141.87817383 119.6640625 C142.28386093 118.76975525 142.68954803 117.875448 143.10752869 116.95404053 C143.88366813 115.24705241 144.66280914 113.54142445 145.4455719 111.83746338 C153.17102465 94.85378834 155.43989076 76.65139305 149.81640625 58.62890625 C142.42229355 39.36640244 129.86160399 24.96641247 110.8984375 16.45703125 C81.26880318 5.11161079 53.47664616 13.17336162 31.44140625 35.046875 Z M-191.09765625 294.03125 C-195.93321149 301.32700001 -197.66722106 308.81840522 -196.12890625 317.4609375 C-193.9289413 326.23363722 -189.29525332 332.59539304 -181.68359375 337.484375 C-172.39344861 343.01122406 -161.76950611 342.33673115 -151.34619141 342.31811523 C-149.71428163 342.32250817 -148.0823741 342.32781238 -146.45046997 342.33395386 C-142.95236467 342.34540539 -139.45431956 342.35090965 -135.95619583 342.35183525 C-130.42658266 342.35378269 -124.89709361 342.37186953 -119.36752319 342.39259338 C-105.64214486 342.44167512 -91.91673321 342.47271534 -78.19128418 342.49389648 C-67.50556185 342.5104055 -56.81994698 342.53315266 -46.13429677 342.57691723 C-40.63479877 342.59872498 -35.13550483 342.60674876 -29.63596654 342.60452449 C-26.22255555 342.60618717 -22.80927889 342.6202091 -19.39591599 342.63773727 C-17.81042199 342.64335151 -16.22490032 342.64380853 -14.6394043 342.63879967 C-12.47955914 342.63268994 -10.32056776 342.6448306 -8.16079712 342.66160583 C-6.95111078 342.66361716 -5.74142445 342.66562849 -4.49508095 342.66770077 C-1.55859375 343.046875 -1.55859375 343.046875 0.33133888 344.44766331 C2.4491783 347.49871558 1.72725901 350.4451302 1.44140625 354.046875 C-1.44878711 356.93706836 -3.58785652 357.0079552 -7.62765121 357.16992283 C-8.84073078 357.16900104 -10.05381035 357.16807924 -11.3036499 357.16712952 C-11.98085374 357.16798394 -12.65805758 357.16883837 -13.35578275 357.16971868 C-15.62360869 357.17136502 -17.89136057 357.16586597 -20.15917969 357.16040039 C-21.78536477 357.16011831 -23.41154998 357.16027666 -25.03773499 357.1608429 C-29.45265771 357.16113006 -33.86755333 357.15524641 -38.28246975 357.14826894 C-42.89625855 357.14202191 -47.51004796 357.14143053 -52.12384033 357.14024353 C-60.86083226 357.1371342 -69.59781168 357.12892616 -78.3347981 357.11889404 C-88.28149555 357.10772056 -98.2281936 357.10221933 -108.17489576 357.09719861 C-128.6361354 357.08674323 -149.09736379 357.06915148 -169.55859375 357.046875 C-169.59093301 360.04175499 -169.6143473 363.0362779 -169.6328125 366.03125 C-169.64276245 366.86833496 -169.6527124 367.70541992 -169.66296387 368.56787109 C-169.7992421 398.14742099 -155.10805617 425.3923757 -134.93359375 446.171875 C-112.13936658 468.7641634 -81.32201076 480.20151545 -49.41015625 480.078125 C-15.52631527 478.72547666 14.10684479 463.45439309 36.89013672 438.80078125 C54.30933548 419.10617566 64.82739128 392.26000849 64.515625 366.03125 C64.51026733 365.16226074 64.50490967 364.29327148 64.49938965 363.39794922 C64.48555736 361.28088144 64.46426589 359.16386455 64.44140625 357.046875 C63.22557861 357.06258545 62.00975098 357.0782959 60.75708008 357.09448242 C56.23777922 357.14886301 51.71850719 357.18325472 47.19897461 357.21166992 C45.24449802 357.22673801 43.29005513 357.24719624 41.33569336 357.27319336 C38.52319002 357.30966365 35.71113451 357.32662122 32.8984375 357.33984375 C31.59190971 357.36306953 31.59190971 357.36306953 30.25898743 357.38676453 C25.51458591 357.3880748 22.25682912 357.20800895 18.44140625 354.046875 C17.22731889 350.97118703 17.31657666 349.46937515 18.25390625 346.296875 C19.44140625 344.046875 19.44140625 344.046875 21.44140625 343.046875 C24.3967292 342.91355639 27.33223496 342.8367426 30.2890625 342.80078125 C32.11003033 342.76781427 33.93099376 342.73460315 35.75195312 342.70117188 C38.61967624 342.65397561 41.4873853 342.60960275 44.35522461 342.57006836 C47.12503669 342.53000265 49.8944665 342.47851478 52.6640625 342.42578125 C53.50816177 342.4173671 54.35226105 342.40895294 55.22193909 342.40028381 C66.12080079 342.17738183 75.53259585 339.84482591 83.5234375 332.00390625 C88.72530803 325.81641814 91.41516814 319.07333537 91.81640625 310.984375 C90.78241626 300.12748013 85.92667655 293.16554661 78.05078125 285.87890625 C71.47191683 281.25991312 65.21921767 280.60742286 57.42860413 280.65919495 C55.95779732 280.65111664 55.95779732 280.65111664 54.45727724 280.64287513 C51.18631396 280.62861869 47.91575669 280.63569369 44.64477539 280.64282227 C42.29369279 280.63711752 39.94261295 280.63015286 37.59153748 280.62202454 C31.21553722 280.60409011 24.83967456 280.60526206 18.46365666 280.61096692 C12.46386345 280.61444953 6.4640872 280.60649417 0.46429925 280.59960627 C-12.14412722 280.58589246 -24.75249158 280.59131111 -37.36091662 280.60279148 C-48.88420639 280.61272358 -60.40733558 280.59978168 -71.93060058 280.57585729 C-83.776834 280.55144857 -95.62299268 280.54186271 -107.46925074 280.54851002 C-114.11438302 280.55199819 -120.75940762 280.54946032 -127.40452385 280.53225899 C-133.65333054 280.51678927 -139.90183065 280.52074615 -146.15062523 280.53956413 C-148.4415201 280.54324981 -150.73243768 280.54014222 -153.02331161 280.52967834 C-156.15549633 280.5164659 -159.28666651 280.52801906 -162.41880798 280.54566956 C-163.77204057 280.53126205 -163.77204057 280.53126205 -165.1526112 280.51656348 C-175.91664861 280.64099374 -184.52904427 285.56207517 -191.09765625 294.03125 Z " fill="#000000" transform="translate(308.55859375,16.953125)"/>
<path d="M0 0 C1.87890625 1.3515625 1.87890625 1.3515625 3.8125 3 C7.70341353 6.16089687 10.56641702 6.88416384 15.55078125 6.609375 C19.14130668 5.71603853 21.34730075 3.71629107 24.12109375 1.3515625 C26 0 26 0 29.75 -0.625 C33 0 33 0 35.4375 1.5 C37.20303234 4.32485174 37.75704562 6.56763333 37.5703125 9.91015625 C36.22153065 14.85261028 32.12113346 17.5265077 28.09375 20.32421875 C20.99885522 24.21276685 12.81767949 23.9035509 5 23 C1.20793059 21.85605095 -1.79022319 20.30398752 -5 18 C-5.639375 17.54238281 -6.27875 17.08476562 -6.9375 16.61328125 C-9.19192181 14.70850356 -10.78121346 12.8836925 -11.5 9.98046875 C-11.7000102 6.61154699 -11.22088914 4.35342263 -9.4375 1.5 C-5.9268384 -0.66040714 -4.07345904 -0.67890984 0 0 Z " fill="#000000" transform="translate(243,415)"/>
<path d="M0 0 C2.12968971 1.60473798 2.89918085 2.47275547 3.40405273 5.11303711 C3.43597843 7.72223715 3.45781382 10.32809713 3.4375 12.9375 C3.4674707 14.2977832 3.4674707 14.2977832 3.49804688 15.68554688 C3.49318588 22.29164448 3.49318588 22.29164448 1.19140625 25.59765625 C-2.04104986 27.66619768 -4.24888772 27.53587318 -8 27 C-10.90717073 24.78136971 -11.83981643 23.48055071 -13 20 C-13.12040604 17.87749355 -13.17533819 15.75088413 -13.1875 13.625 C-13.20167969 12.50351562 -13.21585937 11.38203125 -13.23046875 10.2265625 C-12.93557547 6.09805663 -12.0936201 3.21513344 -9.3125 0.125 C-5.89855615 -1.53583755 -3.61242777 -0.91952707 0 0 Z " fill="#000000" transform="translate(323,404)"/>
<path d="M0 0 C2.81850061 1.97295042 3.36025921 3.70589609 4 7 C4.91252955 20.58265139 4.91252955 20.58265139 1 26 C-2.09173752 27.54586876 -4.59429552 27.29359521 -8 27 C-10.19140625 25.60546875 -10.19140625 25.60546875 -12 23 C-12.61935388 19.65800614 -12.60367221 16.39065226 -12.5625 13 C-12.58634766 12.09765625 -12.61019531 11.1953125 -12.63476562 10.265625 C-12.62021083 3.70626377 -12.62021083 3.70626377 -9.69140625 0.37109375 C-6.01975074 -1.49937227 -3.91944064 -1.08873351 0 0 Z " fill="#000000" transform="translate(198,404)"/>
</svg>
