<?xml version="1.0" encoding="UTF-8"?>
<svg version="1.1" xmlns="http://www.w3.org/2000/svg" width="512" height="512">
<path d="M0 0 C0.89557617 0.16097168 1.79115234 0.32194336 2.71386719 0.48779297 C14.64912221 2.64709093 26.15888805 5.80116343 37.6875 9.5625 C38.85249023 9.93842285 40.01748047 10.3143457 41.21777344 10.70166016 C42.30477539 11.06952637 43.39177734 11.43739258 44.51171875 11.81640625 C45.47553467 12.14068604 46.43935059 12.46496582 47.43237305 12.79907227 C51.15143089 14.53854602 53.45642574 16.58670693 54.9375 20.4375 C55.01997067 23.81879751 54.0198841 25.33086744 52 28 C48.59388671 30.27074219 47.20446828 30.10654051 43.27490234 29.49414062 C39.16591755 28.60161163 35.26475902 27.16739019 31.3125 25.75 C23.90594692 23.18720855 16.5060631 20.97848497 8.875 19.1875 C8.04782471 18.99317383 7.22064941 18.79884766 6.3684082 18.59863281 C0.26608084 17.20821364 -5.83001928 16.12181468 -12 15 C-11.67 55.26 -11.34 95.52 -11 137 C1.54 138.32 14.08 139.64 27 141 C45.54166667 144.05555556 45.54166667 144.05555556 53.6003418 145.60449219 C56.08800515 146.08131217 56.08800515 146.08131217 59 146 C59.26103516 145.48727539 59.52207031 144.97455078 59.79101562 144.44628906 C71.64177441 121.27400853 86.15872581 101.85947196 104.4375 83.4375 C104.93362793 82.93661865 105.42975586 82.4357373 105.94091797 81.91967773 C108.48909939 79.38324109 111.05585836 77.06716328 114 75 C112.68100768 71.04302305 110.13680819 69.44574321 106.9375 67 C106.31480225 66.51869629 105.69210449 66.03739258 105.05053711 65.54150391 C94.73159572 57.65002071 84.06091312 50.29923478 72.69555664 43.99169922 C69.38751604 42.09944741 67.12130023 40.75029468 66 37 C66.1475003 33.45999272 66.62903499 31.5220989 68.6875 28.625 C71.76661965 26.4612943 73.26717537 26.62143524 77 27 C79.59560411 28.15101817 81.88703737 29.31412129 84.3125 30.75 C85.00110107 31.14832031 85.68970215 31.54664063 86.39916992 31.95703125 C98.66959565 39.20213535 110.21605344 47.69755409 121 57 C121.74507813 57.63421875 122.49015625 58.2684375 123.2578125 58.921875 C136.76279833 70.73301515 149.43418743 83.48360228 160 98 C160.85649066 99.14994831 161.71326433 100.29968589 162.5703125 101.44921875 C168.6109414 109.64089526 173.97005071 118.15645078 179 127 C179.36448242 127.63180176 179.72896484 128.26360352 180.10449219 128.91455078 C195.00359858 154.94524903 204.64345522 184.36051596 209 214 C209.17732666 215.19882813 209.35465332 216.39765625 209.53735352 217.6328125 C211.16588622 229.45883486 211.35902287 241.20158552 211.3125 253.125 C211.31034485 254.11956207 211.3081897 255.11412415 211.30596924 256.13882446 C211.25560229 270.62165106 210.89634203 284.76489867 208 299 C207.80664062 299.99805664 207.61328125 300.99611328 207.4140625 302.02441406 C199.29443184 343.11124885 181.92470131 380.20444662 156 413 C155.18789063 414.03769531 154.37578125 415.07539063 153.5390625 416.14453125 C140.87407313 431.70608759 126.32374403 446.30214417 110 458 C108.65474408 458.98930622 107.30970229 459.97890366 105.96484375 460.96875 C75.66513357 483.03378088 41.45380523 497.73088011 4.75 505.25 C3.65473999 505.47659302 3.65473999 505.47659302 2.53735352 505.70776367 C-13.1568149 508.73988317 -28.67983864 509.3732107 -44.625 509.3125 C-46.15235779 509.30926727 -46.15235779 509.30926727 -47.71057129 509.30596924 C-62.3347884 509.25626609 -76.62804638 508.94207988 -91 506 C-92.49490967 505.70996094 -92.49490967 505.70996094 -94.02001953 505.4140625 C-135.10882055 497.29528127 -172.20299494 479.92584885 -205 454 C-206.03769531 453.18789063 -207.07539063 452.37578125 -208.14453125 451.5390625 C-223.71123494 438.86988389 -238.27786525 424.31201036 -250 408 C-250.8637527 406.83011544 -251.72835469 405.6608575 -252.59375 404.4921875 C-267.73707742 383.8661757 -279.8192165 361.25702873 -288 337 C-288.41306396 335.77748535 -288.41306396 335.77748535 -288.83447266 334.53027344 C-292.07255506 324.75942323 -294.60485473 314.87781263 -296.75 304.8125 C-296.94875732 303.88783936 -297.14751465 302.96317871 -297.35229492 302.01049805 C-300.64499027 285.80388823 -301.37530278 269.8696298 -301.3125 253.375 C-301.31034485 252.35676147 -301.3081897 251.33852295 -301.30596924 250.28942871 C-301.25626609 235.6652116 -300.94207988 221.37195362 -298 207 C-297.70996094 205.50509033 -297.70996094 205.50509033 -297.4140625 203.97998047 C-287.98337882 156.25169789 -266.01385226 111.95595549 -232 77 C-231.30745117 76.28166992 -230.61490234 75.56333984 -229.90136719 74.82324219 C-220.16227659 64.75554457 -210.41278841 55.15062776 -199 47 C-198.38092773 46.55253418 -197.76185547 46.10506836 -197.12402344 45.64404297 C-165.29484863 22.75932989 -129.608405 7.09313793 -91 0 C-90.19401367 -0.16081055 -89.38802734 -0.32162109 -88.55761719 -0.48730469 C-60.60389422 -5.91249702 -27.90015671 -5.48097109 0 0 Z M-62 13 C-62.00358253 13.98122046 -62.00358253 13.98122046 -62.00723743 14.98226357 C-62.06640155 30.90712708 -62.14196055 46.83181594 -62.23571491 62.75650978 C-62.28065966 70.45761369 -62.32007734 78.15867148 -62.34643555 85.85986328 C-62.36942637 92.57307976 -62.40283642 99.28615017 -62.44870156 105.99925077 C-62.47261932 109.55303633 -62.4913575 113.10667735 -62.49761391 116.66054153 C-62.50479757 120.6301381 -62.53524528 124.59937275 -62.56762695 128.56884766 C-62.56619186 129.74417053 -62.56475677 130.91949341 -62.5632782 132.13043213 C-62.62875748 137.79809805 -62.68901631 142.16163163 -66 147 C-70.96527928 151.83108255 -76.33299567 153.13847151 -83.1015625 153.640625 C-84.2968457 153.73883545 -85.49212891 153.8370459 -86.72363281 153.93823242 C-88.01108398 154.04111572 -89.29853516 154.14399902 -90.625 154.25 C-104.49455267 155.42625138 -118.11484911 157.51491431 -131.80322266 160.01855469 C-151.27870715 163.53611507 -151.27870715 163.53611507 -158.359375 160.61328125 C-162.0677769 156.94327996 -164.01239393 152.85935653 -166.25 148.1875 C-178.0854153 124.57555206 -195.09988013 102.38117503 -216 86 C-219.97108204 87.56802071 -222.46015011 90.32711832 -225.25 93.4375 C-225.72800049 93.96375977 -226.20600098 94.49001953 -226.69848633 95.03222656 C-231.20386108 100.07415254 -235.17072931 105.42616187 -239 111 C-235.69828957 114.36109371 -232.29609411 117.52475983 -228.75 120.625 C-223.20038072 125.65317854 -218.53751158 131.05602727 -214 137 C-213.32195312 137.87398438 -212.64390625 138.74796875 -211.9453125 139.6484375 C-196.48831479 160.15752785 -196.48831479 160.15752785 -197.484375 169.10546875 C-198.55610064 173.04324856 -200.12037078 175.86501099 -203.67993164 178.0144043 C-208.67601824 180.44979775 -213.74768466 182.51743338 -218.9375 184.5 C-236.94800024 191.56180575 -254.51514271 200.09446702 -271.17138672 209.94189453 C-272.83751304 210.90597884 -274.54424654 211.79900391 -276.25390625 212.68359375 C-280.13099815 214.8951355 -282.56392677 216.47102953 -283.82373047 220.88818359 C-284.91990394 229.75606066 -285.24323105 238.4440084 -285.125 247.375 C-285.11492858 248.70832645 -285.10581023 250.04166045 -285.09765625 251.375 C-285.074406 254.58353441 -285.04173343 257.79166204 -285 261 C-279.87161655 257.62814672 -274.85281964 254.17839467 -269.9375 250.5 C-252.96158266 238.19323733 -234.12770252 228.47792291 -215 220 C-214.15083008 219.62166016 -213.30166016 219.24332031 -212.42675781 218.85351562 C-194.28948624 210.90195304 -194.28948624 210.90195304 -186 213 C-181.5656763 215.22165913 -179.54668741 218.38243968 -178 223 C-174.12228922 246.25294686 -175.5400482 270.94307501 -180 294 C-180.14840332 294.77859375 -180.29680664 295.5571875 -180.44970703 296.359375 C-182.9888704 309.197902 -182.9888704 309.197902 -186.4375 311.93359375 C-189.81205271 313.33794267 -191.55940982 313.19672702 -195 312 C-197.04799665 309.35386198 -198.02725915 307.80940491 -197.91333008 304.42651367 C-197.70087646 303.51619385 -197.48842285 302.60587402 -197.26953125 301.66796875 C-197.04410645 300.63462402 -196.81868164 299.6012793 -196.58642578 298.53662109 C-196.33103027 297.43141113 -196.07563477 296.32620117 -195.8125 295.1875 C-191.518827 274.75189888 -187.24293246 249.57066102 -193 229 C-198.66953985 229.5779628 -203.26885186 231.69592622 -208.375 234.0625 C-209.70011597 234.66976929 -209.70011597 234.66976929 -211.05200195 235.28930664 C-235.51335325 246.57119305 -260.07360738 259.56012335 -280 278 C-280.78375 278.69738281 -281.5675 279.39476562 -282.375 280.11328125 C-284.91428691 284.62417796 -283.70190579 288.33097967 -282.6875 293.25 C-282.49309326 294.25925537 -282.29868652 295.26851074 -282.09838867 296.30834961 C-277.01375907 321.61075957 -267.99625035 363.05058088 -248 381 C-241.58239017 376.14482637 -236.12302025 371.1892948 -231 365 C-230.46117187 364.42121094 -229.92234375 363.84242188 -229.3671875 363.24609375 C-220.70824094 353.92262339 -214.14527603 342.78872455 -208.375 331.51171875 C-207 329 -207 329 -205 327 C-197.83934426 326.31803279 -197.83934426 326.31803279 -195 328.625 C-193.66554143 331.79433911 -193.62803456 333.53876367 -194 337 C-195.38012987 340.36061244 -197.13577573 343.47427875 -198.9375 346.625 C-199.43967041 347.51654785 -199.94184082 348.4080957 -200.45922852 349.32666016 C-204.48255916 356.34820408 -208.83355391 362.75756679 -214 369 C-214.44424316 369.55349121 -214.88848633 370.10698242 -215.34619141 370.67724609 C-222.45036485 379.52151554 -230.10350278 386.96889736 -239 394 C-236.57324427 398.47552919 -234.18822294 402.20049381 -230.6875 405.9375 C-227.17022989 409.71509438 -223.83062188 413.57211192 -220.60546875 417.6015625 C-218.85215202 419.43787627 -218.85215202 419.43787627 -215 419 C-212.78802137 417.24996068 -210.82198063 415.5218023 -208.8125 413.5625 C-208.23371094 413.00973389 -207.65492188 412.45696777 -207.05859375 411.88745117 C-205.89499209 410.77249452 -204.73557149 409.65315649 -203.58056641 408.52929688 C-202.27433242 407.26543378 -200.94303877 406.0275267 -199.60546875 404.796875 C-187.58675629 393.46940575 -178.27739478 379.19449554 -170 365 C-169.65130859 364.41105957 -169.30261719 363.82211914 -168.94335938 363.21533203 C-143.71873423 320.18154276 -136.78573232 267.1352302 -143.57421875 218.3203125 C-144.38225544 212.01910896 -145.00801419 206.45429541 -142.5625 200.5 C-136.09592774 194.19114902 -125.38446965 193.9298222 -116.77124023 192.69238281 C-114.56951492 192.376008 -112.36968633 192.04845708 -110.16992188 191.71875 C-77.35670334 186.84764159 -77.35670334 186.84764159 -69.875 190.5 C-65.65517198 194.16941567 -63.40984744 198.05312461 -62.63099718 203.65319538 C-62.48036319 206.79104595 -62.4591115 209.90605409 -62.48101807 213.04748535 C-62.46976619 214.84633438 -62.46976619 214.84633438 -62.458287 216.6815238 C-62.44155189 219.99301126 -62.44255987 223.30361791 -62.45119452 226.61507797 C-62.45615177 230.1923882 -62.43803912 233.76959205 -62.42277527 237.34686279 C-62.39948977 243.53895024 -62.39071354 249.73092066 -62.39188385 255.92304993 C-62.39355479 264.87572197 -62.37320113 273.82823825 -62.34752855 282.78086871 C-62.30646887 297.30702988 -62.28314005 311.83316299 -62.27099609 326.359375 C-62.25916363 340.46747535 -62.23895922 354.57552288 -62.20751953 368.68359375 C-62.20461538 369.98874513 -62.20461538 369.98874513 -62.20165256 371.32026321 C-62.19188782 375.68544725 -62.18195874 380.05063091 -62.17194796 384.4158144 C-62.08915427 420.61051836 -62.0351506 456.80521997 -62 493 C-50.53795591 493.86230656 -39.45345249 494.01427032 -28 493 C-27.99940291 492.38517462 -27.99880582 491.77034925 -27.99819064 491.1368928 C-27.96229443 454.69497373 -27.905652 418.25314175 -27.82207905 381.81129971 C-27.81206163 377.43539806 -27.80221749 373.05949603 -27.79248047 368.68359375 C-27.78956841 367.37685221 -27.78956841 367.37685221 -27.78659752 366.04371184 C-27.75557889 351.93915944 -27.73859725 337.83462331 -27.72680578 323.73004323 C-27.71439351 309.25675936 -27.68689039 294.78356085 -27.64538693 280.31033087 C-27.62025369 271.38000634 -27.60688259 262.4498234 -27.60857043 253.519463 C-27.60860019 247.39505253 -27.59396771 241.27078626 -27.56783572 235.14643198 C-27.55319219 231.61328584 -27.54498455 228.0804354 -27.55419731 224.5472641 C-27.56402379 220.71381352 -27.54295999 216.88088135 -27.51898193 213.04748535 C-27.53062256 211.3782041 -27.53062256 211.3782041 -27.54249835 209.67519999 C-27.47206966 203.3194111 -26.80101808 198.24815761 -23 193 C-16.78053335 187.59176813 -9.88827897 188.67249599 -2 189 C3.31357591 189.45522018 8.59073128 190.10522989 13.875 190.8125 C15.2921506 190.99742919 16.70930558 191.18232478 18.12646484 191.3671875 C45.6828986 195.00424072 45.6828986 195.00424072 52 200 C56.23927515 206.09091257 54.03323434 215.13917086 53.0625 222 C45.14743748 280.067518 59.62011086 341.05383843 95 388 C104.14113616 399.67811703 114.48983575 410.63725445 126 420 C129.97108204 418.43197929 132.46015011 415.67288168 135.25 412.5625 C135.72800049 412.03624023 136.20600098 411.50998047 136.69848633 410.96777344 C141.20386108 405.92584746 145.17072931 400.57383813 149 395 C145.69828957 391.63890629 142.29609411 388.47524017 138.75 385.375 C133.20005547 380.34652677 128.53924674 374.94305083 124 369 C123.01773438 367.74123047 123.01773438 367.74123047 122.015625 366.45703125 C112.40885149 353.75687666 104.7349829 339.83846877 99 325 C98.73735352 324.32453125 98.47470703 323.6490625 98.20410156 322.953125 C86.48481085 292.12661 80.75576132 252.38720292 89 220 C90.76430706 216.90098206 92.75596243 214.62201878 96 213 C103.93305103 212.17990573 110.04958346 213.60258719 117.25 216.8125 C118.1889209 217.21557373 119.1278418 217.61864746 120.09521484 218.03393555 C123.07641251 219.32872176 126.03942935 220.65877912 129 222 C129.96647461 222.433125 130.93294922 222.86625 131.92871094 223.3125 C151.66981702 232.22484349 169.7224526 243.02676974 187.23339844 255.73828125 C189.78075728 257.55762212 192.38314609 259.28243644 195 261 C195.05038777 257.12634335 195.08617252 253.2528201 195.10986328 249.37890625 C195.12456776 247.4322232 195.15001202 245.48563053 195.17578125 243.5390625 C195.19543177 239.68756003 195.10685941 235.84987986 195 232 C195.02416992 230.76797852 195.04833984 229.53595703 195.07324219 228.26660156 C194.83428906 221.91580875 194.83428906 221.91580875 191.68743896 216.55899048 C187.53209315 213.04366363 182.78888962 210.53698118 178 208 C176.7022545 207.27370813 175.40598851 206.54476538 174.11132812 205.81298828 C170.2037846 203.63658301 166.23665489 201.58943599 162.25 199.5625 C161.54765228 199.20170349 160.84530457 198.84090698 160.12167358 198.46917725 C148.11116451 192.31220692 135.91547761 186.97838643 123.33203125 182.1015625 C111.04470981 177.32362808 111.04470981 177.32362808 108 171 C106.51592356 164.43679986 108.7086585 159.60790466 112.046875 154.0078125 C122.46538689 137.9633042 133.95152039 123.89315324 149 112 C144.4496973 102.03913838 135.413108 93.9309354 128 86 C124.15515495 87.60353727 121.37134547 90.18655273 118.375 93 C117.84575928 93.49419434 117.31651855 93.98838867 116.77124023 94.49755859 C115.68815434 95.5135104 114.60765557 96.53222746 113.52978516 97.55371094 C112.17953873 98.83026054 110.81540012 100.09208136 109.44921875 101.3515625 C93.23842487 116.79294063 81.34886823 136.56992087 71.59765625 156.56640625 C69.5804345 159.63909366 68.4542124 160.6624497 65 162 C56.45991015 163.08436479 47.92754508 161.13881193 39.5526123 159.60708618 C25.37210314 157.02308814 11.27444184 155.095227 -3.10058594 154.02612305 C-18.88937051 152.76460387 -18.88937051 152.76460387 -23.9375 147 C-26.64345509 143.06406533 -27.12626857 140.43997004 -27.15821838 135.77986145 C-27.17290161 134.15815788 -27.17290161 134.15815788 -27.18788147 132.50369263 C-27.19363693 131.31758392 -27.1993924 130.13147522 -27.20532227 128.90942383 C-27.21522186 127.66052872 -27.22512146 126.41163361 -27.23532104 125.12489319 C-27.2615172 121.69956533 -27.28337578 118.27426089 -27.30332303 114.84889436 C-27.32518772 111.26941051 -27.35257405 107.68996906 -27.37937927 104.11051941 C-27.42929962 97.33202637 -27.47424089 90.55350979 -27.51740164 83.77497071 C-27.56677963 76.05797045 -27.62169568 68.34101272 -27.67708123 60.6240536 C-27.79089118 44.74940837 -27.89773237 28.87472403 -28 13 C-39.46204409 12.13769344 -50.54654751 11.98572968 -62 13 Z M-200 69 C-201.66644724 70.33360757 -203.33303165 71.66704386 -205 73 C-203.44087795 76.99061002 -200.64473703 79.3698634 -197.5 82.125 C-196.40368139 83.11318001 -195.30864799 84.10278758 -194.21484375 85.09375 C-193.66940918 85.58617188 -193.12397461 86.07859375 -192.56201172 86.5859375 C-173.78131248 103.58778339 -160.97838032 124.94377569 -149 147 C-148.25806396 146.88462891 -147.51612793 146.76925781 -146.75170898 146.65039062 C-137.52828701 145.22304862 -128.29925583 143.83810847 -119.0625 142.5 C-118.3014093 142.38950317 -117.5403186 142.27900635 -116.75616455 142.16516113 C-106.23626025 140.64651734 -95.73714991 139.33803365 -85.13305664 138.54492188 C-81.24639124 138.61200184 -81.24639124 138.61200184 -78 137 C-77.90405775 135.41845152 -77.8781204 133.83260875 -77.87974548 132.24815369 C-77.87837082 131.22025223 -77.87699615 130.19235077 -77.87557983 129.13330078 C-77.87917511 127.99610596 -77.88277039 126.85891113 -77.88647461 125.68725586 C-77.88632858 124.49717422 -77.88618256 123.30709259 -77.8860321 122.08094788 C-77.88661106 118.80836726 -77.89164019 115.53582893 -77.89860606 112.26325679 C-77.90484033 108.84661335 -77.90544346 105.42996917 -77.90663147 102.01332092 C-77.90974457 95.53930733 -77.91795767 89.06531054 -77.92798096 82.59130436 C-77.93914275 75.2226208 -77.94465271 67.85393645 -77.94967639 60.48524654 C-77.96014031 45.32348831 -77.97773934 30.16174583 -78 15 C-121.73823822 15 -167.25600374 42.59078995 -200 69 Z M-249 125 C-269.06844104 158.13606657 -269.06844104 158.13606657 -278 195 C-272.92863799 193.53756072 -268.81987226 191.27387493 -264.3125 188.625 C-256.4830218 184.14994281 -248.43150847 180.33645938 -240.1875 176.6875 C-239.07995361 176.19652832 -237.97240723 175.70555664 -236.83129883 175.19970703 C-229.30343468 171.90776852 -221.69123318 168.88825568 -214 166 C-218.49392697 154.280737 -227.39212863 144.89273618 -236 136 C-237.26650391 134.67355469 -237.26650391 134.67355469 -238.55859375 133.3203125 C-241.9106128 129.87472313 -244.64179922 127.06939415 -249 125 Z M158 125 C151.32535271 130.21419101 145.2800759 135.37251883 140 142 C139.57686523 142.52287598 139.15373047 143.04575195 138.71777344 143.58447266 C129.10063865 153.90012538 129.10063865 153.90012538 124 166 C124.71841064 166.28609131 125.43682129 166.57218262 126.17700195 166.86694336 C144.98684348 174.38097926 163.58834141 181.99967221 181.10424805 192.25830078 C184.33529864 194.31422963 184.33529864 194.31422963 188 195 C184.71163894 174.61216146 175.6074204 155.73984433 166.1875 137.5625 C165.71932861 136.65588623 165.25115723 135.74927246 164.76879883 134.81518555 C164.3230249 133.96996338 163.87725098 133.12474121 163.41796875 132.25390625 C163.02375732 131.50439697 162.6295459 130.7548877 162.22338867 129.98266602 C161.00499232 128.00809072 159.70624398 126.56109744 158 125 Z M-12 204 C-12 298.71 -12 393.42 -12 491 C-3.95193549 490.25027367 -3.95193549 490.25027367 3.8125 488.80078125 C5.31768188 488.4462085 5.31768188 488.4462085 6.85327148 488.08447266 C8.4109021 487.70234619 8.4109021 487.70234619 10 487.3125 C11.09578369 487.0448584 12.19156738 486.7772168 13.32055664 486.50146484 C49.27642323 477.52761233 81.33065032 460.33462464 110 437 C111.66578665 435.66556739 113.33213091 434.33182892 115 433 C113.44087795 429.00938998 110.64473703 426.6301366 107.5 423.875 C106.40368139 422.88681999 105.30864799 421.89721242 104.21484375 420.90625 C103.66940918 420.41382813 103.12397461 419.92140625 102.56201172 419.4140625 C59.92210207 380.8128814 39.38456044 321.38404647 36.24609375 265.20703125 C35.46118428 246.76291249 36.82721586 228.31045272 39 210 C34.62638685 209.30257355 30.25218805 208.60897295 25.87744141 207.91870117 C24.39355651 207.68403956 22.90982793 207.44838694 21.42626953 207.21166992 C10.19611286 205.42075148 -0.59604991 204 -12 204 Z M-94.2734375 204.8046875 C-94.92269196 204.88872833 -95.57194641 204.97276917 -96.24087524 205.05935669 C-97.60071947 205.23655724 -98.96020924 205.41649858 -100.31933594 205.59912109 C-102.36313032 205.87340704 -104.40794725 206.13859244 -106.453125 206.40234375 C-114.01158648 207.38978143 -121.51787055 208.53820085 -129 210 C-128.86722656 211.11890625 -128.73445313 212.2378125 -128.59765625 213.390625 C-121.67737562 274.75915134 -130.36910989 340.08325322 -168 391 C-168.76699219 392.04929687 -169.53398437 393.09859375 -170.32421875 394.1796875 C-179.65180771 406.72694244 -190.42811627 419.20250323 -202.625 429 C-203.800625 429.99 -203.800625 429.99 -205 431 C-205 431.66 -205 432.32 -205 433 C-173.85102306 462.46524846 -121.81083657 491 -78 491 C-78 396.29 -78 301.58 -78 204 C-83.75019033 204 -88.68661665 204.07252674 -94.2734375 204.8046875 Z M103 229 C92.91893915 265.02078386 106.75731503 310.28817097 124.01171875 341.82421875 C127.50729481 348.00340198 131.3607357 353.60727854 136 359 C136.72703125 359.85207031 137.4540625 360.70414063 138.203125 361.58203125 C147.4297101 372.75731195 147.4297101 372.75731195 159 381 C173.69695227 355.31868675 184.56298077 329.94963428 191 301 C191.2180127 300.07429199 191.43602539 299.14858398 191.66064453 298.19482422 C192.25734466 295.61627723 192.79485571 293.03292526 193.3125 290.4375 C193.49135742 289.68275391 193.67021484 288.92800781 193.85449219 288.15039062 C194.43567419 284.88808148 194.63094194 282.93498544 192.73291016 280.12231445 C190.92065393 278.25019314 189.03854144 276.62176207 187 275 C186.41452393 274.51281494 185.82904785 274.02562988 185.22583008 273.52368164 C183.43276077 272.071479 181.60456752 270.68519253 179.75 269.3125 C179.06744141 268.80485107 178.38488281 268.29720215 177.68164062 267.77416992 C169.41469954 261.71839331 160.76504167 256.29903932 152 251 C151.35160156 250.60216309 150.70320313 250.20432617 150.03515625 249.79443359 C140.99953141 244.28566337 131.52249093 239.82447142 121.875 235.5 C120.70001953 234.97083984 119.52503906 234.44167969 118.31445312 233.89648438 C117.19748047 233.40470703 116.08050781 232.91292969 114.9296875 232.40625 C113.93179199 231.96603516 112.93389648 231.52582031 111.90576172 231.07226562 C108.93049 229.97434987 106.13747202 229.41716434 103 229 Z " fill="#000000" transform="translate(301,3)"/>
</svg>
