<?xml version="1.0" encoding="UTF-8"?>
<svg version="1.1" xmlns="http://www.w3.org/2000/svg" width="512" height="512">
<path d="M0 0 C1.01823853 0.00215515 2.03647705 0.0043103 3.08557129 0.00653076 C17.7097884 0.05623391 32.00304638 0.37042012 46.375 3.3125 C47.37160645 3.50585938 48.36821289 3.69921875 49.39501953 3.8984375 C97.79648057 13.46213524 141.99059771 35.87987765 177.375 70.3125 C178.37877686 71.27760498 178.37877686 71.27760498 179.40283203 72.26220703 C188.33991207 80.87657599 196.74206664 89.58564609 204.10107422 99.59423828 C205.39750666 101.34285682 206.72788718 103.06078803 208.06640625 104.77734375 C215.93067241 114.9920598 222.3161092 125.94975258 228.375 137.3125 C229.03846436 138.55314209 229.03846436 138.55314209 229.71533203 139.81884766 C241.23204842 161.72199262 248.9030584 186.01309889 253.375 210.3125 C253.53581055 211.11316895 253.69662109 211.91383789 253.86230469 212.73876953 C259.3544441 240.81662453 259.10896692 274.30227935 253.375 302.3125 C253.18164062 303.30910645 252.98828125 304.30571289 252.7890625 305.33251953 C244.67028127 346.42132055 227.30084885 383.51549494 201.375 416.3125 C200.56289063 417.35019531 199.75078125 418.38789063 198.9140625 419.45703125 C186.24907313 435.01858759 171.69874403 449.61464417 155.375 461.3125 C154.02974408 462.30180622 152.68470229 463.29140366 151.33984375 464.28125 C120.03306909 487.08129792 84.47487825 502.30078684 46.375 509.3125 C45.57433105 509.47331055 44.77366211 509.63412109 43.94873047 509.79980469 C15.88172956 515.289821 -17.62684244 515.06193715 -45.625 509.3125 C-46.63755859 509.11382324 -47.65011719 508.91514648 -48.69335938 508.71044922 C-89.78600049 500.49315205 -126.72136417 483.05232803 -159.625 457.3125 C-160.16415039 456.89339355 -160.70330078 456.47428711 -161.25878906 456.04248047 C-176.91341766 443.7395608 -191.7420208 429.11297587 -203.41552734 412.96630859 C-204.67886046 411.23885229 -205.98455472 409.55071483 -207.30078125 407.86328125 C-230.04400814 378.35354111 -244.43541698 342.37805424 -251.875 306.0625 C-252.10159302 304.96723999 -252.10159302 304.96723999 -252.33276367 303.84985352 C-255.36488317 288.1556851 -255.9982107 272.63266136 -255.9375 256.6875 C-255.93534485 255.66926147 -255.9331897 254.65102295 -255.93096924 253.60192871 C-255.88126609 238.9777116 -255.56707988 224.68445362 -252.625 210.3125 C-252.33496094 208.81759033 -252.33496094 208.81759033 -252.0390625 207.29248047 C-242.60837882 159.56419789 -220.63885226 115.26845549 -186.625 80.3125 C-185.93245117 79.59416992 -185.23990234 78.87583984 -184.52636719 78.13574219 C-174.78805129 68.06884541 -165.02732714 58.47657992 -153.625 50.3125 C-153.08182129 49.9191748 -152.53864258 49.52584961 -151.97900391 49.12060547 C-130.95957235 33.97140947 -108.19691838 21.59948134 -83.625 13.3125 C-82.40248535 12.89943604 -82.40248535 12.89943604 -81.15527344 12.47802734 C-71.38442323 9.23994494 -61.50281263 6.70764527 -51.4375 4.5625 C-50.51283936 4.36374268 -49.58817871 4.16498535 -48.63549805 3.96020508 C-32.42888823 0.66750973 -16.4946298 -0.06280278 0 0 Z M-35.8125 18.1875 C-36.94727783 18.34887451 -38.08205566 18.51024902 -39.2512207 18.67651367 C-42.39196399 19.15660504 -45.50573584 19.70946829 -48.625 20.3125 C-49.89645874 20.52773315 -49.89645874 20.52773315 -51.19360352 20.74731445 C-56.08665695 21.89713828 -58.26830098 23.64508915 -61.00390625 27.87109375 C-62.09285696 29.81544412 -63.15244986 31.77642882 -64.1875 33.75 C-65.38265615 35.91154479 -66.57797574 38.07299922 -67.7734375 40.234375 C-68.3931543 41.37841797 -69.01287109 42.52246094 -69.65136719 43.70117188 C-72.75028467 49.40455266 -76.01065914 55.01676502 -79.24655151 60.64309692 C-81.52209505 64.60713819 -83.77785669 68.58249553 -86.0378418 72.55541992 C-87.625 75.3125 -87.625 75.3125 -89.39379883 77.8605957 C-90.84002029 80.23065796 -90.84002029 80.23065796 -90.47705078 82.82348633 C-89.56242776 85.49528626 -88.43995756 87.71152383 -86.9921875 90.13671875 C-86.44119385 91.06919434 -85.8902002 92.00166992 -85.32250977 92.96240234 C-84.72108154 93.96480957 -84.11965332 94.9672168 -83.5 96 C-82.21413841 98.17275981 -80.92900648 100.34595157 -79.64453125 102.51953125 C-78.9788916 103.64182129 -78.31325195 104.76411133 -77.62744141 105.92041016 C-74.44024976 111.31943975 -71.31364425 116.75296662 -68.1875 122.1875 C-67.08473942 124.10162242 -65.98187058 126.01568248 -64.87890625 127.9296875 C-62.77322266 131.58417969 -62.77322266 131.58417969 -60.625 135.3125 C-55.675 143.8925 -50.725 152.4725 -45.625 161.3125 C-15.265 161.3125 15.095 161.3125 46.375 161.3125 C51.655 152.0725 56.935 142.8325 62.375 133.3125 C64.89125 128.94 67.4075 124.5675 70 120.0625 C71.81371094 116.90880859 71.81371094 116.90880859 73.6640625 113.69140625 C76.21756546 109.27492316 78.8225107 104.89359542 81.4609375 100.52734375 C82.11755371 99.43131836 82.77416992 98.33529297 83.45068359 97.20605469 C84.70439434 95.11727905 85.96980906 93.03546991 87.24853516 90.96191406 C87.80589355 90.02959961 88.36325195 89.09728516 88.9375 88.13671875 C89.43378906 87.32291748 89.93007813 86.50911621 90.44140625 85.6706543 C91.62288238 82.6863766 91.37075661 81.34250364 90.375 78.3125 C89.1294728 75.70615296 89.1294728 75.70615296 87.5234375 73.05078125 C86.9262793 72.0261377 86.32912109 71.00149414 85.71386719 69.94580078 C85.06579102 68.84993652 84.41771484 67.75407227 83.75 66.625 C82.73622422 64.89163543 81.72246141 63.15826311 80.70947266 61.42443848 C80.00763486 60.22424994 79.3048216 59.02463134 78.60107422 57.82556152 C76.09204079 53.55009775 73.61210787 49.25877691 71.1484375 44.95703125 C70.80867889 44.36447037 70.46892029 43.77190948 70.11886597 43.16139221 C68.48151964 40.30567411 66.84582336 37.44902997 65.21240234 34.59106445 C64.32609131 33.04938599 64.32609131 33.04938599 63.421875 31.4765625 C62.90463867 30.57373535 62.38740234 29.6709082 61.85449219 28.74072266 C59.43182438 24.36675896 59.43182438 24.36675896 55.54418945 21.52294922 C54.86573975 21.38904785 54.18729004 21.25514648 53.48828125 21.1171875 C52.34129761 20.88092651 52.34129761 20.88092651 51.17114258 20.63989258 C50.35154053 20.49060303 49.53193848 20.34131348 48.6875 20.1875 C47.83244873 20.02209717 46.97739746 19.85669434 46.09643555 19.6862793 C43.52645225 19.20227334 40.95335478 18.74953521 38.375 18.3125 C37.69179688 18.19632324 37.00859375 18.08014648 36.3046875 17.96044922 C12.39559269 14.08014088 -11.92758657 14.76431285 -35.8125 18.1875 Z M81.375 30.3125 C82.70516321 33.81968525 84.24971393 37.04214362 86.09765625 40.3046875 C86.63712891 41.25859375 87.17660156 42.2125 87.73242188 43.1953125 C88.29509766 44.18273438 88.85777344 45.17015625 89.4375 46.1875 C89.97310547 47.13625 90.50871094 48.085 91.06054688 49.0625 C92.1933589 51.05923095 93.35653139 53.03896859 94.5456543 55.00268555 C95.93678337 57.51963962 96.93546603 59.71849964 97.91723633 62.38208008 C99.69041303 66.72509518 101.45941834 70.54460091 105.375 73.3125 C113.5537036 75.80204668 122.52501449 74.71369867 130.9375 74.25 C133.30512802 74.17470098 135.67298505 74.10626982 138.04101562 74.04492188 C143.8240308 73.88017281 149.59845287 73.62979255 155.375 73.3125 C140.60951596 58.39899106 121.95778317 47.75469028 103.1875 38.6875 C102.16108398 38.19072754 101.13466797 37.69395508 100.07714844 37.18212891 C93.9663578 34.30804495 87.9060786 32.03456701 81.375 30.3125 Z M-154.625 72.3125 C-154.625 72.6425 -154.625 72.9725 -154.625 73.3125 C-126.87849024 77.41466163 -126.87849024 77.41466163 -101.04394531 71.23095703 C-95.98979467 65.85464123 -93.73559275 59.4471688 -91.66699219 52.46435547 C-90.07930378 47.66185845 -87.47866008 43.66289938 -84.75 39.4375 C-81.8099115 35.156534 -81.8099115 35.156534 -80.625 30.3125 C-104.24264737 30.3125 -137.44709377 57.59252569 -154.625 72.3125 Z M-179.625 96.3125 C-180.37265625 97.158125 -181.1203125 98.00375 -181.890625 98.875 C-201.83274468 123.37083205 -227.75866692 157.81097821 -230.625 190.3125 C-229.75245094 192.85712669 -229.75245094 192.85712669 -228.1875 195.234375 C-227.62925537 196.16507812 -227.07101074 197.09578125 -226.49584961 198.0546875 C-225.87846924 199.04726562 -225.26108887 200.03984375 -224.625 201.0625 C-223.33350169 203.20244118 -222.04317937 205.34309245 -220.75390625 207.484375 C-220.07730957 208.59748047 -219.40071289 209.71058594 -218.70361328 210.85742188 C-215.22088755 216.61592132 -211.90442349 222.47164571 -208.5625 228.3125 C-207.34419382 230.43850145 -206.12423019 232.56355423 -204.90234375 234.6875 C-204.38921631 235.58210937 -203.87608887 236.47671875 -203.34741211 237.3984375 C-202.77901611 238.36007813 -202.21062012 239.32171875 -201.625 240.3125 C-201.31311926 240.97337364 -201.00123852 241.63424728 -200.67990685 242.3151474 C-198.54531748 246.55566073 -198.54531748 246.55566073 -194.70073414 249.03904724 C-192.30394933 249.29918493 -190.02174583 249.30298801 -187.61206055 249.22070312 C-186.71400192 249.22187134 -185.8159433 249.22303955 -184.89067078 249.22424316 C-181.92943313 249.21868002 -178.97225023 249.1565156 -176.01171875 249.09375 C-173.95622457 249.07882508 -171.9007019 249.06743925 -169.84516907 249.05944824 C-164.44063442 249.02893409 -159.03782581 248.95037638 -153.63397217 248.86181641 C-148.11754711 248.77990988 -142.60084251 248.74342644 -137.08398438 248.703125 C-126.26356543 248.61738222 -115.44442636 248.48088311 -104.625 248.3125 C-104.18024323 247.53368469 -103.73548645 246.75486938 -103.2772522 245.95245361 C-101.58764617 242.99402162 -99.89784276 240.03570255 -98.20791626 237.07745361 C-97.48392255 235.81000031 -96.760002 234.54250522 -96.03616333 233.27496338 C-91.04091283 224.52774016 -86.02855731 215.790621 -81 207.0625 C-80.04108856 205.39587814 -80.04108856 205.39587814 -79.06280518 203.69558716 C-75.93674726 198.26434741 -72.76684788 192.86365173 -69.5390625 187.4921875 C-68.55413818 185.84138184 -68.55413818 185.84138184 -67.54931641 184.15722656 C-66.29381395 182.05654572 -65.02829537 179.9618094 -63.75146484 177.87402344 C-63.19410645 176.93848633 -62.63674805 176.00294922 -62.0625 175.0390625 C-61.56621094 174.22002441 -61.06992188 173.40098633 -60.55859375 172.55712891 C-59.43998956 169.86768148 -59.54592718 168.97959906 -60.625 166.3125 C-61.39469328 164.76237272 -62.21708752 163.23792028 -63.07421875 161.734375 C-63.58509033 160.83372314 -64.09596191 159.93307129 -64.62231445 159.00512695 C-65.18007568 158.03406006 -65.73783691 157.06299316 -66.3125 156.0625 C-67.18491333 154.5314563 -67.18491333 154.5314563 -68.07495117 152.96948242 C-72.71443613 144.8477438 -77.42265896 136.76622373 -82.15405273 128.69775391 C-85.47124254 123.03367422 -88.75302347 117.35126345 -91.99609375 111.64453125 C-92.54478874 110.67979637 -92.54478874 110.67979637 -93.10456848 109.6955719 C-94.89811356 106.54082026 -96.68770977 103.3839149 -98.47192383 100.22387695 C-99.11540771 99.09038818 -99.7588916 97.95689941 -100.421875 96.7890625 C-101.27797363 95.2743335 -101.27797363 95.2743335 -102.15136719 93.72900391 C-103.5368713 91.24359227 -103.5368713 91.24359227 -105.625 89.3125 C-108.48842314 88.96997103 -108.48842314 88.96997103 -111.89135742 88.97436523 C-113.2100029 88.95192245 -114.52864838 88.92947968 -115.88725281 88.90635681 C-117.33498064 88.8933385 -118.78272063 88.88161656 -120.23046875 88.87109375 C-120.95907923 88.86419085 -121.6876897 88.85728794 -122.43837929 88.85017586 C-126.29787037 88.81430687 -130.15721473 88.79078888 -134.0168457 88.77709961 C-137.99421306 88.7605855 -141.96979153 88.70222541 -145.94655895 88.63395596 C-149.01192738 88.58904793 -152.07687276 88.57559601 -155.14254189 88.57048225 C-156.60777087 88.56261061 -158.07298768 88.54303146 -159.5378933 88.51125908 C-168.39011611 88.33200267 -174.28087729 88.59759403 -179.625 96.3125 Z M102.63012695 93.57714844 C101.83451052 95.13392939 101.07710053 96.71136687 100.375 98.3125 C99.82972656 99.2207251 99.28445313 100.1289502 98.72265625 101.06469727 C98.29855469 101.82838623 97.87445313 102.5920752 97.4375 103.37890625 C96.9425 104.26384766 96.4475 105.14878906 95.9375 106.06054688 C95.421875 106.98931641 94.90625 107.91808594 94.375 108.875 C89.78703881 117.06854644 85.12402881 125.21129359 80.375 133.3125 C79.218448 135.2980012 78.06219881 137.28367881 76.90625 139.26953125 C74.47199265 143.44829422 72.00766907 147.60782653 69.53125 151.76171875 C68.3117741 153.84072021 67.0929996 155.92013329 65.875 158 C65.29234375 158.96228516 64.7096875 159.92457031 64.109375 160.91601562 C63.58859375 161.81384766 63.0678125 162.71167969 62.53125 163.63671875 C61.83225586 164.8136731 61.83225586 164.8136731 61.11914062 166.0144043 C60.12522222 168.3500465 60.12522222 168.3500465 61.12207031 170.88085938 C61.53553711 171.68330078 61.94900391 172.48574219 62.375 173.3125 C62.83181152 174.22286011 62.83181152 174.22286011 63.29785156 175.15161133 C63.6172168 175.7267749 63.93658203 176.30193848 64.265625 176.89453125 C64.82382935 177.90193359 64.82382935 177.90193359 65.39331055 178.9296875 C66.00299683 180.01636719 66.00299683 180.01636719 66.625 181.125 C67.06046143 181.90488281 67.49592285 182.68476563 67.94458008 183.48828125 C72.73346548 192.02111343 77.6839716 200.45938028 82.62890625 208.90234375 C86.6139709 215.71047091 90.5601215 222.54066464 94.5 229.375 C95.12737061 230.46296875 95.75474121 231.5509375 96.40112305 232.671875 C99.40243597 237.8797594 102.39343735 243.09329233 105.375 248.3125 C117.19637572 248.70729012 129.01617285 249.00887491 140.84280968 249.19330692 C146.33557079 249.2818569 151.82380835 249.40179663 157.31396484 249.5949707 C162.61825065 249.78042542 167.91820468 249.88146259 173.22548294 249.92541313 C175.24424118 249.95670377 177.26277486 250.01782608 179.27967453 250.10991096 C189.91563625 250.91414486 189.91563625 250.91414486 199.18021202 246.67268372 C202.36486992 242.61609708 204.49433726 238.17428958 206.45936966 233.4299736 C207.82141122 230.2801358 209.54794458 227.43140551 211.31640625 224.4921875 C213.17108058 221.26881237 215.0200043 218.04247275 216.85888672 214.81005859 C219.59459868 210.02308487 222.32350441 205.28420981 225.44140625 200.734375 C229.75209249 194.63235801 229.75209249 194.63235801 231.5625 187.51953125 C230.88836149 184.20033539 229.73235176 181.42093914 228.375 178.3125 C227.76359252 176.70537176 227.15867847 175.09576528 226.55859375 173.484375 C216.94492817 148.26312636 203.72768186 123.84256828 186.0506897 103.30757141 C184.71342949 101.71543319 183.45073459 100.06076351 182.21566772 98.3881073 C178.63927776 93.77812341 175.52598623 89.99500633 169.84407043 88.19213867 C165.79913357 87.77964407 161.91247481 87.71846847 157.85546875 87.82421875 C156.38340106 87.82375265 154.91132977 87.81926703 153.43928528 87.81098938 C150.37426306 87.80686352 147.31349869 87.84403802 144.24926758 87.9128418 C140.33235886 87.9984098 136.42243777 87.98966782 132.50500011 87.95157146 C129.47344192 87.93066231 126.44348732 87.95409688 123.41213417 87.99134254 C121.96858187 88.00482496 120.5248563 88.00594943 119.08128929 87.99414635 C109.49475865 87.75571343 109.49475865 87.75571343 102.63012695 93.57714844 Z M-54.72356987 192.23080254 C-56.02467194 195.23547343 -57.66105588 197.94605897 -59.35546875 200.74609375 C-60.50851248 202.74699262 -61.66084963 204.74829883 -62.8125 206.75 C-63.43688965 207.8332959 -64.0612793 208.9165918 -64.70458984 210.03271484 C-67.71144763 215.2498571 -70.71523974 220.46875045 -73.71620178 225.68928528 C-74.73650425 227.46379074 -75.75742776 229.23793737 -76.77856445 231.01196289 C-78.05833321 233.23567007 -79.33688804 235.46007649 -80.61401367 237.68530273 C-81.19771729 238.69923096 -81.7814209 239.71315918 -82.3828125 240.7578125 C-83.20507324 242.19108887 -83.20507324 242.19108887 -84.04394531 243.65332031 C-85.85294189 246.69587601 -87.80934428 249.61460578 -89.87060547 252.49169922 C-90.9540562 255.10670749 -90.43676196 256.6338637 -89.625 259.3125 C-88.556069 261.65643461 -88.556069 261.65643461 -87.17578125 263.98828125 C-86.66490967 264.88571045 -86.15403809 265.78313965 -85.62768555 266.70776367 C-85.06992432 267.67045166 -84.51216309 268.63313965 -83.9375 269.625 C-83.35589111 270.64118408 -82.77428223 271.65736816 -82.17504883 272.7043457 C-77.52816736 280.80419171 -72.81964432 288.86875487 -68.09814453 296.92529297 C-62.55001916 306.401732 -57.11035847 315.93898962 -51.69018555 325.48901367 C-51.043479 326.6257251 -50.39677246 327.76243652 -49.73046875 328.93359375 C-49.15449951 329.9486499 -48.57853027 330.96370605 -47.98510742 332.00952148 C-46.82034713 334.20024381 -46.82034713 334.20024381 -45.625 335.3125 C-42.81853541 335.49823125 -40.03507838 335.61856629 -37.22485352 335.69580078 C-35.90273613 335.73698029 -35.90273613 335.73698029 -34.5539093 335.7789917 C-26.39583633 336.01932034 -18.23579605 336.16242279 -10.07505894 336.27543831 C-4.59125129 336.35284558 0.88765408 336.46247097 6.36889648 336.64990234 C11.66794782 336.83026667 16.962503 336.92623185 22.26442146 336.96435165 C24.28034375 336.99313245 26.29607831 337.05145635 28.31023979 337.14047623 C38.9368857 337.92459314 38.9368857 337.92459314 48.18206596 333.66490746 C51.36800032 329.59906918 53.50736169 325.15036612 55.4758358 320.39816284 C56.77292514 317.38948985 58.40918832 314.68019248 60.10546875 311.87890625 C61.25851248 309.87800738 62.41084963 307.87670117 63.5625 305.875 C64.49908447 304.25005615 64.49908447 304.25005615 65.45458984 302.59228516 C68.46144763 297.3751429 71.46523974 292.15624955 74.46620178 286.93571472 C75.48650425 285.16120926 76.50742776 283.38706263 77.52856445 281.61303711 C78.80833321 279.38932993 80.08688804 277.16492351 81.36401367 274.93969727 C81.94771729 273.92576904 82.5314209 272.91184082 83.1328125 271.8671875 C83.68098633 270.91166992 84.22916016 269.95615234 84.79394531 268.97167969 C86.60294189 265.92912399 88.55934428 263.01039422 90.62060547 260.13330078 C91.71076325 257.50210443 91.20256273 256.01084384 90.375 253.3125 C89.50481406 251.49297359 88.56117912 249.70764113 87.56640625 247.953125 C86.7012439 246.41700562 86.7012439 246.41700562 85.81860352 244.84985352 C85.19783936 243.76502686 84.5770752 242.6802002 83.9375 241.5625 C83.2993335 240.43577881 82.66116699 239.30905762 82.00366211 238.14819336 C78.15733158 231.37611675 74.26290616 224.63335798 70.28662109 217.93676758 C65.65635605 210.13649391 61.15047576 202.26409455 56.63891602 194.39477539 C55.72517212 192.80524048 55.72517212 192.80524048 54.79296875 191.18359375 C54.25438232 190.24443115 53.7157959 189.30526855 53.16088867 188.33764648 C52.57154541 187.33934814 51.98220215 186.3410498 51.375 185.3125 C50.90134884 184.32051448 50.90134884 184.32051448 50.41812897 183.30848885 C48.27322737 179.09327648 48.27322737 179.09327648 44.4795351 176.53784657 C42.13230809 176.20547809 39.89159467 176.12862882 37.52075195 176.13452148 C36.63875626 176.1060463 35.75676056 176.07757111 34.84803772 176.04823303 C31.93558112 175.96722426 29.02678567 175.94665909 26.11328125 175.93359375 C24.08170638 175.90533296 22.05014583 175.87602549 20.01860046 175.84571838 C15.75889881 175.79331331 11.50048502 175.77448644 7.24047852 175.77514648 C1.79754423 175.77037688 -3.63618326 175.65097786 -9.07681561 175.50176907 C-13.27499778 175.40495203 -17.47098467 175.38591263 -21.67017555 175.38807869 C-23.67463523 175.37683896 -25.6791467 175.3380734 -27.68250084 175.27056694 C-42.91224264 174.80331589 -48.80198302 178.00736002 -54.72356987 192.23080254 Z M-236.625 213.3125 C-242.04560048 240.86721912 -242.04560048 271.75778088 -236.625 299.3125 C-233.2700343 296.25184577 -231.16396811 293.09966836 -228.9453125 289.1484375 C-228.61006561 288.55632477 -228.27481873 287.96421204 -227.92941284 287.35415649 C-226.8634108 285.46868647 -225.80639153 283.57836832 -224.75 281.6875 C-223.70214367 279.82480578 -222.65242101 277.96318566 -221.60125732 276.10235596 C-220.91722978 274.88887627 -220.2362469 273.67367499 -219.55841064 272.45672607 C-217.05961603 267.99120948 -214.34617574 263.70480604 -211.45654297 259.48291016 C-210.37232545 257.29365924 -210.37232545 257.29365924 -211.29101562 254.88037109 C-212.6984136 252.1711815 -214.11058858 249.47694679 -215.6015625 246.8125 C-216.18647461 245.76578125 -216.77138672 244.7190625 -217.37402344 243.640625 C-217.9930957 242.54234375 -218.61216797 241.4440625 -219.25 240.3125 C-219.87938477 239.19359375 -220.50876953 238.0746875 -221.15722656 236.921875 C-227.30627665 223.64990262 -227.30627665 223.64990262 -236.625 213.3125 Z M236.375 213.3125 C231.5616006 219.69423222 227.74909806 226.77938413 223.875 233.75 C222.78258813 235.70777851 221.68884731 237.6648161 220.59375 239.62109375 C220.0678125 240.56968262 219.541875 241.51827148 219 242.49560547 C217.9068312 244.39058468 216.75914442 246.25503113 215.5625 248.08642578 C214.71171875 249.39135986 214.71171875 249.39135986 213.84375 250.72265625 C213.06161133 251.87133179 213.06161133 251.87133179 212.26367188 253.04321289 C211.11532285 255.31308947 211.11532285 255.31308947 212.03466797 257.75561523 C212.47697754 258.59938721 212.91928711 259.44315918 213.375 260.3125 C213.83213379 261.1890625 214.28926758 262.065625 214.76025391 262.96875 C215.28538574 263.9071875 215.81051758 264.845625 216.3515625 265.8125 C216.93647461 266.85921875 217.52138672 267.9059375 218.12402344 268.984375 C218.7430957 270.08265625 219.36216797 271.1809375 220 272.3125 C220.62938477 273.43140625 221.25876953 274.5503125 221.90722656 275.703125 C228.05627665 288.97509738 228.05627665 288.97509738 237.375 299.3125 C242.79560048 271.75778088 242.79560048 240.86721912 237.375 213.3125 C237.045 213.3125 236.715 213.3125 236.375 213.3125 Z M-205.70936966 279.1950264 C-207.07141122 282.3448642 -208.79794458 285.19359449 -210.56640625 288.1328125 C-212.42108058 291.35618763 -214.2700043 294.58252725 -216.10888672 297.81494141 C-218.84459868 302.60191513 -221.57350441 307.34079019 -224.69140625 311.890625 C-229.00209249 317.99264199 -229.00209249 317.99264199 -230.8125 325.10546875 C-230.13836149 328.42466461 -228.98235176 331.20406086 -227.625 334.3125 C-227.01359252 335.91962824 -226.40867847 337.52923472 -225.80859375 339.140625 C-216.19492817 364.36187364 -202.97768186 388.78243172 -185.3006897 409.31742859 C-183.96342949 410.90956681 -182.70073459 412.56423649 -181.46566772 414.2368927 C-177.88927776 418.84687659 -174.77598623 422.62999367 -169.09407043 424.43286133 C-165.04913357 424.84535593 -161.16247481 424.90653153 -157.10546875 424.80078125 C-155.63340106 424.80124735 -154.16132977 424.80573297 -152.68928528 424.81401062 C-149.62426306 424.81813648 -146.56349869 424.78096198 -143.49926758 424.7121582 C-139.58235886 424.6265902 -135.67243777 424.63533218 -131.75500011 424.67342854 C-128.72344192 424.69433769 -125.69348732 424.67090312 -122.66213417 424.63365746 C-121.21858187 424.62017504 -119.7748563 424.61905057 -118.33128929 424.63085365 C-110.3121511 424.88522689 -110.3121511 424.88522689 -103.47744751 421.40037537 C-101.91509608 419.09935387 -100.74035437 416.85605432 -99.625 414.3125 C-99.07972656 413.4042749 -98.53445312 412.4960498 -97.97265625 411.56030273 C-97.54855469 410.79661377 -97.12445313 410.0329248 -96.6875 409.24609375 C-96.1925 408.36107178 -95.6975 407.4760498 -95.1875 406.56420898 C-94.671875 405.63552002 -94.15625 404.70683105 -93.625 403.75 C-89.0260565 395.5428287 -84.36940603 387.373992 -79.625 379.25 C-78.76636353 377.77394287 -78.76636353 377.77394287 -77.89038086 376.26806641 C-74.91823157 371.17378833 -71.9021107 366.11233161 -68.81640625 361.0859375 C-68.20732422 360.0844165 -67.59824219 359.08289551 -66.97070312 358.05102539 C-65.808611 356.14416968 -64.63466073 354.24447472 -63.44726562 352.35327148 C-62.92970703 351.50063721 -62.41214844 350.64800293 -61.87890625 349.76953125 C-61.18776733 348.6554187 -61.18776733 348.6554187 -60.48266602 347.51879883 C-59.36632905 344.64708316 -59.69430044 343.22788321 -60.625 340.3125 C-61.77248881 337.90099653 -61.77248881 337.90099653 -63.2578125 335.48828125 C-63.80880615 334.55580566 -64.3597998 333.62333008 -64.92749023 332.66259766 C-65.52891846 331.66019043 -66.13034668 330.6577832 -66.75 329.625 C-68.03586159 327.45224019 -69.32099352 325.27904843 -70.60546875 323.10546875 C-71.2711084 321.98317871 -71.93674805 320.86088867 -72.62255859 319.70458984 C-75.80975024 314.30556025 -78.93635575 308.87203338 -82.0625 303.4375 C-83.16526058 301.52337758 -84.26812942 299.60931752 -85.37109375 297.6953125 C-85.97679199 296.64375977 -86.58249023 295.59220703 -87.20654297 294.50878906 C-90.66771543 288.50179554 -94.13304097 282.49719574 -97.59765625 276.4921875 C-97.94369841 275.89241215 -98.28974056 275.2926368 -98.64626884 274.67468643 C-100.63913078 271.22059633 -102.63204482 267.7665363 -104.625 264.3125 C-116.44637572 263.91770988 -128.26617285 263.61612509 -140.09280968 263.43169308 C-145.58557079 263.3431431 -151.07380835 263.22320337 -156.56396484 263.0300293 C-161.86825065 262.84457458 -167.16820468 262.74353741 -172.47548294 262.69958687 C-174.49424118 262.66829623 -176.51277486 262.60717392 -178.52967453 262.51508904 C-193.82974977 261.84466132 -199.7713304 264.85840046 -205.70936966 279.1950264 Z M105.375 264.3125 C104.70786484 265.48072296 104.70786484 265.48072296 104.0272522 266.67254639 C102.33764617 269.63097838 100.64784276 272.58929745 98.95791626 275.54754639 C98.23392255 276.81499969 97.510002 278.08249478 96.78616333 279.35003662 C92.36311718 287.09526821 87.92956195 294.83426841 83.47740173 302.56280518 C82.2550527 304.68545794 81.03432605 306.80904536 79.81474304 308.93328857 C76.70077668 314.35680134 73.5235949 319.73126842 70.25390625 325.0625 C69.26221436 326.69977051 69.26221436 326.69977051 68.25048828 328.37011719 C66.98852919 330.44889988 65.71029356 332.51791624 64.41357422 334.57519531 C63.85299316 335.50428711 63.29241211 336.43337891 62.71484375 337.390625 C62.21331787 338.19918945 61.71179199 339.00775391 61.19506836 339.84082031 C60.0442312 343.30943461 60.92466543 345.01265621 62.375 348.3125 C63.30778597 350.12572256 64.29393961 351.9122186 65.32421875 353.671875 C65.91734863 354.6918457 66.51047852 355.71181641 67.12158203 356.76269531 C67.76208496 357.85163086 68.40258789 358.94056641 69.0625 360.0625 C69.73608789 361.21678788 70.40909173 362.37141676 71.08154297 363.52636719 C72.47943802 365.92640505 73.87983648 368.32495688 75.28173828 370.72265625 C77.92050765 375.24129535 80.52633556 379.77877207 83.13354492 384.31567383 C88.62282926 393.8646591 94.15508503 403.38749582 99.75 412.875 C100.30381348 413.81569336 100.85762695 414.75638672 101.42822266 415.72558594 C101.93401855 416.58055664 102.43981445 417.43552734 102.9609375 418.31640625 C103.4048584 419.06736572 103.8487793 419.8183252 104.30615234 420.59204102 C105.26068204 422.27401057 105.26068204 422.27401057 106.375 423.3125 C108.42312546 423.44349213 110.47579085 423.50388597 112.52783203 423.53710938 C113.84655304 423.55962769 115.16527405 423.582146 116.5239563 423.60534668 C122.57962479 423.68091138 128.63539675 423.73408377 134.69140625 423.77246094 C137.88694238 423.7947012 141.08130404 423.83640819 144.27636719 423.89550781 C148.13560515 423.96675549 151.9937415 424.00331646 155.85360336 424.01557922 C157.32164783 424.0259574 158.7896605 424.04832927 160.25732803 424.08317566 C168.36464267 424.46780217 168.36464267 424.46780217 175.79772949 421.79541016 C177.55905784 420.05692079 178.97043875 418.34365192 180.375 416.3125 C181.12265625 415.466875 181.8703125 414.62125 182.640625 413.75 C202.58274468 389.25416795 228.50866692 354.81402179 231.375 322.3125 C230.50245094 319.76787331 230.50245094 319.76787331 228.9375 317.390625 C228.37925537 316.45992188 227.82101074 315.52921875 227.24584961 314.5703125 C226.62846924 313.57773437 226.01108887 312.58515625 225.375 311.5625 C224.08350169 309.42255882 222.79317937 307.28190755 221.50390625 305.140625 C220.82730957 304.02751953 220.15071289 302.91441406 219.45361328 301.76757812 C215.97088755 296.00907868 212.65442349 290.15335429 209.3125 284.3125 C208.09419382 282.18649855 206.87423019 280.06144577 205.65234375 277.9375 C205.13921631 277.04289062 204.62608887 276.14828125 204.09741211 275.2265625 C203.52901611 274.26492188 202.96062012 273.30328125 202.375 272.3125 C201.90717889 271.32118954 201.90717889 271.32118954 201.42990685 270.3098526 C199.29531748 266.06933927 199.29531748 266.06933927 195.45073414 263.58595276 C193.05394933 263.32581507 190.77174583 263.32201199 188.36206055 263.40429688 C187.46400192 263.40312866 186.5659433 263.40196045 185.64067078 263.40075684 C182.67943313 263.40631998 179.72225023 263.4684844 176.76171875 263.53125 C174.70622457 263.54617492 172.6507019 263.55756075 170.59516907 263.56555176 C165.19063442 263.59606591 159.78782581 263.67462362 154.38397217 263.76318359 C148.86754711 263.84509012 143.35084251 263.88157356 137.83398438 263.921875 C127.01356543 264.00761778 116.19442636 264.14411689 105.375 264.3125 Z M-45.625 351.3125 C-46.29213516 352.48072296 -46.29213516 352.48072296 -46.9727478 353.67254639 C-48.66235383 356.63097838 -50.35215724 359.58929745 -52.04208374 362.54754639 C-52.76607745 363.81499969 -53.489998 365.08249478 -54.21383667 366.35003662 C-59.20908815 375.09726155 -64.22192243 383.83410157 -69.25 392.5625 C-69.88927429 393.67422073 -70.52854858 394.78594147 -71.18719482 395.93135071 C-74.3066594 401.35469087 -77.47513924 406.74283286 -80.7109375 412.09765625 C-81.36755371 413.19368164 -82.02416992 414.28970703 -82.70068359 415.41894531 C-83.95439434 417.50772095 -85.21980906 419.58953009 -86.49853516 421.66308594 C-87.05589355 422.59540039 -87.61325195 423.52771484 -88.1875 424.48828125 C-88.68378906 425.30208252 -89.18007812 426.11588379 -89.69140625 426.9543457 C-90.87288238 429.9386234 -90.62075661 431.28249636 -89.625 434.3125 C-88.3794728 436.91884704 -88.3794728 436.91884704 -86.7734375 439.57421875 C-85.8777002 441.11118408 -85.8777002 441.11118408 -84.96386719 442.67919922 C-84.31579102 443.77506348 -83.66771484 444.87092773 -83 446 C-81.98622422 447.73336457 -80.97246141 449.46673689 -79.95947266 451.20056152 C-79.25763486 452.40075006 -78.5548216 453.60036866 -77.85107422 454.79943848 C-75.34204079 459.07490225 -72.86210787 463.36622309 -70.3984375 467.66796875 C-70.05867889 468.26052963 -69.71892029 468.85309052 -69.36886597 469.46360779 C-67.73151964 472.31932589 -66.09582336 475.17597003 -64.46240234 478.03393555 C-63.87152832 479.06172119 -63.2806543 480.08950684 -62.671875 481.1484375 C-62.15463867 482.05126465 -61.63740234 482.9540918 -61.10449219 483.88427734 C-60.61625977 484.68559082 -60.12802734 485.4869043 -59.625 486.3125 C-59.18397949 487.04911865 -58.74295898 487.7857373 -58.28857422 488.54467773 C-56.0142975 490.96147224 -54.20495546 491.18024383 -50.9609375 491.76171875 C-49.83816406 491.96990234 -48.71539062 492.17808594 -47.55859375 492.39257812 C-46.38425781 492.59302734 -45.20992187 492.79347656 -44 493 C-42.84886719 493.21205078 -41.69773438 493.42410156 -40.51171875 493.64257812 C-13.44438717 498.53445048 13.91806614 498.19372833 40.99951172 493.69335938 C43.19561212 493.34126106 45.3915727 493.04673553 47.59765625 492.765625 C53.86095658 491.86873059 53.86095658 491.86873059 59.20703125 488.75390625 C60.89164417 486.37317229 62.1026911 483.93920225 63.375 481.3125 C64.44420127 479.35336475 65.53910892 477.40963574 66.63330078 475.46435547 C67.91776567 473.17373484 69.18156647 470.87242012 70.4453125 468.5703125 C74.90831803 460.50077494 79.61025267 452.56808704 84.2734375 444.61328125 C84.80678711 443.69498535 85.34013672 442.77668945 85.88964844 441.83056641 C86.80399631 440.2805033 87.74033825 438.74287655 88.71191406 437.22802734 C90.88831951 433.83183337 90.88831951 433.83183337 91.13256836 429.91552734 C90.32617032 427.14471976 89.25821274 425.03284688 87.77734375 422.55859375 C87.23142578 421.63626953 86.68550781 420.71394531 86.12304688 419.76367188 C85.22682617 418.2719043 85.22682617 418.2719043 84.3125 416.75 C83.02866966 414.58278796 81.74617043 412.41478697 80.46484375 410.24609375 C79.79308105 409.11155762 79.12131836 407.97702148 78.42919922 406.80810547 C74.39947013 399.97350711 70.50374933 393.06082993 66.58569336 386.16186523 C65.65328514 384.52410551 64.71785247 382.88660176 63.71147156 381.29322815 C61.28081158 377.3506158 59.78489073 373.57541568 58.40576172 369.14648438 C55.76116266 361.84001886 52.96674832 355.76660367 46.375 351.3125 C32.92844274 346.76802728 16.67813096 348.96771439 2.76599121 349.66455078 C-2.68894584 349.91165912 -8.1465297 350.01999867 -13.60546875 350.140625 C-24.28565755 350.39680347 -34.95398415 350.80540132 -45.625 351.3125 Z M-154.625 439.3125 C-139.85951596 454.22600894 -121.20778317 464.87030972 -102.4375 473.9375 C-101.41108398 474.43427246 -100.38466797 474.93104492 -99.32714844 475.44287109 C-93.2163578 478.31695505 -87.1560786 480.59043299 -80.625 482.3125 C-81.95516321 478.80531475 -83.49971393 475.58285638 -85.34765625 472.3203125 C-85.88712891 471.36640625 -86.42660156 470.4125 -86.98242188 469.4296875 C-87.54509766 468.44226563 -88.10777344 467.45484375 -88.6875 466.4375 C-89.22310547 465.48875 -89.75871094 464.54 -90.31054688 463.5625 C-91.4433589 461.56576905 -92.60653139 459.58603141 -93.7956543 457.62231445 C-95.18678337 455.10536038 -96.18546603 452.90650036 -97.16723633 450.24291992 C-98.94041303 445.89990482 -100.70941834 442.08039909 -104.625 439.3125 C-112.8037036 436.82295332 -121.77501449 437.91130133 -130.1875 438.375 C-132.55512802 438.45029902 -134.92298505 438.51873018 -137.29101562 438.58007812 C-143.0740308 438.74482719 -148.84845287 438.99520745 -154.625 439.3125 Z M97.35644531 447.03857422 C95.37457269 451.33480898 93.76081819 455.62439605 92.41699219 460.16064453 C90.82930378 464.96314155 88.22866008 468.96210062 85.5 473.1875 C82.5599115 477.468466 82.5599115 477.468466 81.375 482.3125 C89.13041276 480.27927785 96.17423516 477.31258466 103.375 473.8125 C104.4693335 473.28205078 105.56366699 472.75160156 106.69116211 472.20507812 C124.17135258 463.5986587 141.62959795 453.29380544 155.375 439.3125 C123.36235483 434.32995226 123.36235483 434.32995226 97.35644531 447.03857422 Z " fill="#000000" transform="translate(255.625,-0.3125)"/>
<path d="M0 0 C1.84904727 1.19644235 3.56867775 2.50473307 5.31640625 3.84375 C7.9103316 5.62519293 9.87105682 6 13 6 C16.85727491 4.69128173 19.74008374 3.1949372 23 0.75 C26 -1 26 -1 29.6875 -0.9375 C33 0 33 0 34.9375 1.0625 C36.70811911 4.29127602 36.71905223 7.48079243 36 11 C34 13.6875 34 13.6875 31 16 C30.44183594 16.4434375 29.88367188 16.886875 29.30859375 17.34375 C22.44251703 22.27471115 14.19140276 23.76838218 5.875 22.5 C-0.99538156 20.79072898 -8.24205151 17.19649188 -12 11 C-12.64684536 8.24012647 -12.5947966 5.77005275 -12 3 C-8.35301286 -1.53110523 -5.4060648 -1.58453623 0 0 Z " fill="#000000" transform="translate(244,252)"/>
<path d="M0 0 C3.28199052 3.28199052 2.3687465 7.41625306 2.375 11.875 C2.39949219 12.78636719 2.42398437 13.69773438 2.44921875 14.63671875 C2.4784667 21.29550267 2.4784667 21.29550267 0.23046875 24.60546875 C-3.4627914 26.91456485 -5.69320077 26.47853325 -10 26 C-12.17300581 24.59806077 -12.76594121 23.7203077 -13.5546875 21.29296875 C-14.1252653 18.35499361 -14.17020349 15.55479683 -14.1875 12.5625 C-14.20167969 11.45003906 -14.21585937 10.33757812 -14.23046875 9.19140625 C-13.91894204 4.87755338 -13.07280372 2.07280372 -10 -1 C-6.26175799 -2.60210372 -3.6418889 -1.50425846 0 0 Z " fill="#000000" transform="translate(324,241)"/>
<path d="M0 0 C3.57000794 3.57000794 3.15931492 7.56148042 3.1875 12.4375 C3.20167969 13.54996094 3.21585938 14.66242188 3.23046875 15.80859375 C2.99825359 19.02418337 2.50653683 21.16210505 1 24 C-2.7205836 26.48038907 -4.59796571 26.46337203 -9 26 C-11.1953125 24.60546875 -11.1953125 24.60546875 -13 22 C-13.56897773 18.6356762 -13.51249183 15.34116148 -13.4375 11.9375 C-13.44458984 11.02677734 -13.45167969 10.11605469 -13.45898438 9.17773438 C-13.39485648 2.48376908 -13.39485648 2.48376908 -11.58618164 0.26782227 C-7.58364779 -2.93137094 -4.51952387 -1.86675986 0 0 Z " fill="#000000" transform="translate(199,241)"/>
</svg>
