<svg width="513" height="494" viewBox="0 0 513 494" fill="none" xmlns="http://www.w3.org/2000/svg">
<path fill-rule="evenodd" clip-rule="evenodd" d="M0 0.264404H115.597C155.058 0.264404 183.841 9.55249 201.947 28.1287C220.053 46.2404 229.105 74.3368 229.105 112.418V131.923C229.105 157.001 224.927 177.435 216.571 193.224C208.679 209.014 196.376 220.392 179.663 227.358V228.751C216.977 241.497 236.003 274.32 236.743 327.221H160.164C160.112 305.172 156.166 289.996 148.327 281.693C140.899 272.87 128.364 268.458 110.723 268.458H76.6006V327.221H0V0.264404ZM160.165 344.133H236.766V363.866H160.165V344.133ZM76.6006 380.778V418.228H120.472C133.935 418.228 143.916 414.745 150.416 407.779C155.526 401.937 158.627 392.936 159.72 380.778H236.588C235.171 414.247 225.248 440.198 206.822 458.631C187.323 478.136 158.54 487.889 120.472 487.889H0V380.778H76.6006ZM76.6006 363.866V344.133H0V363.866H76.6006ZM106.544 198.797C121.865 198.797 133.239 194.85 140.667 186.955C148.559 179.06 152.505 165.824 152.505 147.248V120.081C152.505 102.433 149.255 89.6622 142.756 81.7673C136.72 73.8725 126.971 69.925 113.508 69.925H76.6006V198.797H106.544Z" fill="#163916"/>
<path fill-rule="evenodd" clip-rule="evenodd" d="M397.52 493.529C360.397 493.529 332.322 483.077 313.297 462.172C295.891 442.622 286.447 415.491 284.965 380.778H357.235C358.411 409.49 371.607 423.846 396.824 423.846C409.818 423.846 419.563 420.13 426.059 412.697C432.225 405.702 435.659 395.062 436.364 380.778H512.79C511.053 415.264 501.169 442.163 483.137 461.475C463.647 482.844 435.108 493.529 397.52 493.529ZM284.758 344.141V363.866H357.149V344.141H284.758ZM432.427 344.141C434.203 350.396 435.399 356.971 436.013 363.866H512.999C512.832 357.092 512.36 350.517 511.585 344.141H432.427ZM508.714 327.229C505.699 313.58 501.117 300.956 494.97 289.358C482.905 266.595 460.862 241.277 428.843 213.403C403.785 191.569 386.383 172.987 376.639 157.657C367.358 142.327 362.717 125.835 362.717 108.182C362.717 77.057 375.478 61.4945 401.001 61.4945C413.53 61.4945 423.043 65.4432 429.54 73.3406C436.036 80.7734 439.284 92.8518 439.284 109.576V134.662H511.675V114.454C511.675 74.9665 502.162 44.7706 483.137 23.8657C464.575 2.49623 448.239 -1.14219 376.639 0.267532C350.456 0.267532 344.124 10.6688 335.829 24.2967C332.363 29.9912 328.553 36.2492 322.809 42.547C303.32 63.4519 301.67 87.1389 301.67 125.697C301.67 134.996 300.673 142.634 299.777 149.504C297.941 163.57 296.526 174.418 304.944 189.711C317.473 212.01 339.515 237.096 371.07 264.969C396.128 286.803 413.298 305.617 422.579 321.412C423.729 323.312 424.808 325.251 425.815 327.229H508.714Z" fill="#163916"/>
<path fill-rule="evenodd" clip-rule="evenodd" d="M222.421 280.3L129.698 0.264404H211.266L263.554 179.292H264.948L317.235 0.264404H391.832L362.236 74.9583L299.109 280.3V327.221H222.421V280.3ZM222.421 344.133V363.866H299.109V344.133H222.421ZM222.421 380.778H299.109V487.889H222.421V380.778Z" fill="#163916"/>
</svg>
