<svg width="814" height="488" viewBox="0 0 814 488" fill="none" xmlns="http://www.w3.org/2000/svg">
<path d="M717.003 225.908H667.592V182.942H813.675V225.908H764.265V483.702H717.003V225.908Z" fill="#163916"/>
<path d="M507.602 182.942H577.636C601.983 182.942 619.742 188.671 630.913 200.129C642.084 211.3 647.67 228.629 647.67 252.117V270.592C647.67 301.814 637.358 321.578 616.735 329.885V330.744C628.192 334.182 636.212 341.199 640.795 351.798C645.665 362.396 648.1 376.574 648.1 394.334V447.181C648.1 455.775 648.386 462.792 648.959 468.235C649.532 473.39 650.964 478.546 653.256 483.702H605.134C603.415 478.833 602.27 474.25 601.697 469.953C601.124 465.657 600.837 457.923 600.837 446.752V391.756C600.837 378.007 598.546 368.411 593.963 362.969C589.666 357.526 582.076 354.805 571.191 354.805H554.864V483.702H507.602V182.942ZM572.05 311.839C581.503 311.839 588.521 309.405 593.104 304.535C597.973 299.666 600.408 291.502 600.408 280.045V256.843C600.408 245.959 598.403 238.082 594.393 233.212C590.669 228.343 584.654 225.908 576.347 225.908H554.864V311.839H572.05Z" fill="#163916"/>
<path d="M403.887 487.999C380.686 487.999 362.927 481.41 350.61 468.234C338.293 455.058 332.135 436.44 332.135 412.379V254.265C332.135 230.204 338.293 211.586 350.61 198.41C362.927 185.234 380.686 178.646 403.887 178.646C427.089 178.646 444.848 185.234 457.165 198.41C469.482 211.586 475.64 230.204 475.64 254.265V412.379C475.64 436.44 469.482 455.058 457.165 468.234C444.848 481.41 427.089 487.999 403.887 487.999ZM403.887 445.033C420.214 445.033 428.378 435.151 428.378 415.387V251.258C428.378 231.493 420.214 221.611 403.887 221.611C387.56 221.611 379.397 231.493 379.397 251.258V415.387C379.397 435.151 387.56 445.033 403.887 445.033Z" fill="#163916"/>
<path d="M169.834 182.942H239.439C262.927 182.942 280.543 189.244 292.287 201.847C304.031 214.451 309.903 232.926 309.903 257.273V286.919C309.903 311.267 304.031 329.742 292.287 342.345C280.543 354.948 262.927 361.25 239.439 361.25H217.097V483.702H169.834V182.942ZM239.439 318.284C247.173 318.284 252.901 316.136 256.625 311.839C260.635 307.543 262.64 300.239 262.64 289.927V254.265C262.64 243.954 260.635 236.65 256.625 232.353C252.901 228.056 247.173 225.908 239.439 225.908H217.097V318.284H239.439Z" fill="#163916"/>
<path d="M71.412 487.999C48.497 487.999 31.1675 481.554 19.4236 468.664C7.6796 455.488 1.80762 436.726 1.80762 412.379V395.193H46.4919V415.816C46.4919 435.294 54.6554 445.033 70.9824 445.033C79.0026 445.033 85.0178 442.741 89.028 438.158C93.3245 433.289 95.4728 425.555 95.4728 414.957C95.4728 402.354 92.6085 391.326 86.8797 381.873C81.1509 372.134 70.5527 360.534 55.0851 347.071C35.6073 329.885 22.0015 314.417 14.2677 300.668C6.53384 286.633 2.66693 270.879 2.66693 253.406C2.66693 229.631 8.68213 211.299 20.7125 198.41C32.7429 185.234 50.2156 178.646 73.1307 178.646C95.7593 178.646 112.802 185.234 124.26 198.41C136.004 211.299 141.876 229.918 141.876 254.265V266.725H97.1914V251.258C97.1914 240.946 95.1864 233.498 91.1763 228.915C87.1661 224.046 81.2941 221.611 73.5603 221.611C57.8062 221.611 49.9292 231.207 49.9292 250.398C49.9292 261.283 52.7936 271.451 58.5223 280.904C64.5375 290.356 75.279 301.814 90.7466 315.276C110.511 332.463 124.117 348.074 131.564 362.109C139.011 376.144 142.735 392.615 142.735 411.52C142.735 436.153 136.577 455.058 124.26 468.234C112.229 481.41 94.6135 487.999 71.412 487.999Z" fill="#163916"/>
<path d="M602.718 2.03296H635.892C647.425 2.03296 655.837 4.74658 661.129 10.1738C666.42 15.4654 669.066 23.6741 669.066 34.8V43.5514C669.066 58.3406 664.182 67.7026 654.413 71.6374V72.0444C659.84 73.6726 663.639 76.9968 665.81 82.017C668.116 87.0372 669.27 93.7534 669.27 102.166V127.199C669.27 131.269 669.405 134.593 669.677 137.171C669.948 139.614 670.626 142.056 671.712 144.498H648.917C648.103 142.192 647.561 140.021 647.289 137.985C647.018 135.95 646.882 132.287 646.882 126.995V100.945C646.882 94.4318 645.797 89.8865 643.626 87.3086C641.591 84.7306 637.995 83.4416 632.839 83.4416H625.105V144.498H602.718V2.03296ZM633.246 63.0895C637.724 63.0895 641.048 61.9362 643.219 59.6296C645.525 57.323 646.679 53.4561 646.679 48.0289V37.0387C646.679 31.8828 645.729 28.1516 643.829 25.845C642.066 23.5384 639.216 22.3851 635.282 22.3851H625.105V63.0895H633.246Z" fill="#163916"/>
<path d="M553.397 146.533C542.542 146.533 534.266 143.481 528.567 137.375C522.869 131.134 520.019 122.246 520.019 110.714V2.03296H542.407V112.342C542.407 117.226 543.356 120.754 545.256 122.925C547.291 125.096 550.14 126.181 553.804 126.181C557.467 126.181 560.249 125.096 562.148 122.925C564.184 120.754 565.201 117.226 565.201 112.342V2.03296H586.774V110.714C586.774 122.246 583.925 131.134 578.226 137.375C572.528 143.481 564.251 146.533 553.397 146.533Z" fill="#163916"/>
<path d="M471.704 146.536C460.714 146.536 452.302 143.415 446.467 137.174C440.633 130.932 437.716 122.113 437.716 110.716V35.8198C437.716 24.4226 440.633 15.6033 446.467 9.362C452.302 3.12067 460.714 0 471.704 0C482.694 0 491.107 3.12067 496.941 9.362C502.775 15.6033 505.692 24.4226 505.692 35.8198V110.716C505.692 122.113 502.775 130.932 496.941 137.174C491.107 143.415 482.694 146.536 471.704 146.536ZM471.704 126.183C479.438 126.183 483.305 121.502 483.305 112.14V34.3952C483.305 25.0332 479.438 20.3522 471.704 20.3522C463.97 20.3522 460.103 25.0332 460.103 34.3952V112.14C460.103 121.502 463.97 126.183 471.704 126.183Z" fill="#163916"/>
<path d="M383.385 83.8487L356.316 2.03296H380.128L395.393 54.338H395.8L411.064 2.03296H432.841L405.772 83.8487V144.498H383.385V83.8487Z" fill="#163916"/>
<path d="M245.961 2.03296H268.349V62.0719L296.842 2.03296H319.229L292.568 54.338L319.636 144.498H296.231L277.304 80.9994L268.349 99.1128V144.498H245.961V2.03296Z" fill="#163916"/>
<path d="M196.832 146.536C185.841 146.536 177.429 143.415 171.595 137.174C165.761 130.932 162.844 122.113 162.844 110.716V35.8198C162.844 24.4226 165.761 15.6033 171.595 9.362C177.429 3.12067 185.841 0 196.832 0C207.822 0 216.234 3.12067 222.068 9.362C227.903 15.6033 230.82 24.4226 230.82 35.8198V110.716C230.82 122.113 227.903 130.932 222.068 137.174C216.234 143.415 207.822 146.536 196.832 146.536ZM196.832 126.183C204.565 126.183 208.432 121.502 208.432 112.14V34.3952C208.432 25.0332 204.565 20.3522 196.832 20.3522C189.098 20.3522 185.231 25.0332 185.231 34.3952V112.14C185.231 121.502 189.098 126.183 196.832 126.183Z" fill="#163916"/>
<path d="M115.343 146.536C104.353 146.536 95.9409 143.415 90.1067 137.174C84.2724 130.932 81.3552 122.113 81.3552 110.716V35.8198C81.3552 24.4226 84.2724 15.6033 90.1067 9.362C95.9409 3.12067 104.353 0 115.343 0C126.334 0 134.746 3.12067 140.58 9.362C146.414 15.6033 149.331 24.4226 149.331 35.8198V110.716C149.331 122.113 146.414 130.932 140.58 137.174C134.746 143.415 126.334 146.536 115.343 146.536ZM115.343 126.183C123.077 126.183 126.944 121.502 126.944 112.14V34.3952C126.944 25.0332 123.077 20.3522 115.343 20.3522C107.61 20.3522 103.743 25.0332 103.743 34.3952V112.14C103.743 121.502 107.61 126.183 115.343 126.183Z" fill="#163916"/>
<path d="M0.700928 2.03296H34.4855C46.0184 2.03296 54.4307 4.74658 59.7222 10.1738C65.0138 15.4654 67.6596 23.6741 67.6596 34.8V40.4986C67.6596 47.8253 66.4384 53.7953 63.9962 58.4085C61.6896 63.0216 58.094 66.3458 53.2095 68.381V68.7881C64.3354 72.5872 69.8983 82.4919 69.8983 98.5022V110.714C69.8983 121.704 66.9812 130.116 61.1469 135.95C55.4483 141.649 47.036 144.498 35.9102 144.498H0.700928V2.03296ZM31.8397 60.0366C36.3172 60.0366 39.6414 58.8834 41.8123 56.5768C44.1189 54.2702 45.2722 50.4033 45.2722 44.976V37.0387C45.2722 31.8828 44.3224 28.1516 42.4229 25.845C40.659 23.5384 37.8097 22.3851 33.875 22.3851H23.0883V60.0366H31.8397ZM35.9102 124.146C39.8449 124.146 42.7621 123.128 44.6616 121.093C46.5612 118.922 47.5109 115.259 47.5109 110.103V97.6882C47.5109 91.1755 46.3576 86.698 44.051 84.2557C41.8802 81.6778 38.2168 80.3888 33.0609 80.3888H23.0883V124.146H35.9102Z" fill="#163916"/>
</svg>
