<?xml version="1.0" encoding="UTF-8"?>
<svg version="1.1" xmlns="http://www.w3.org/2000/svg" width="512" height="512">
<path d="M0 0 C0.78970184 -0.00974854 1.57940369 -0.01949707 2.39303589 -0.02954102 C20.1118746 -0.2031849 37.20814425 0.03444881 54.53125 4.23828125 C55.68343018 4.51115967 55.68343018 4.51115967 56.85888672 4.78955078 C85.06161412 11.69671908 109.58019456 26.38466204 130.53125 46.23828125 C131.42585938 47.08003906 132.32046875 47.92179687 133.2421875 48.7890625 C154.70033605 69.55598218 169.29534911 96.9347545 176.28125 125.86328125 C176.57926514 127.09606812 176.57926514 127.09606812 176.88330078 128.35375977 C179.99690669 141.93809953 180.93950142 155.23266091 180.90625 169.11328125 C180.90543427 170.39836578 180.90543427 170.39836578 180.90460205 171.70941162 C180.86339312 185.87242726 179.89489475 199.43044274 176.53125 213.23828125 C176.31694336 214.13063477 176.10263672 215.02298828 175.88183594 215.94238281 C162.06655158 271.74647901 125.63853264 320.64050646 76.65625 350.67578125 C34.80670813 375.44490978 -14.91768081 387.48469038 -63.21850586 378.16723633 C-63.93917236 378.03341553 -64.65983887 377.89959473 -65.40234375 377.76171875 C-66.02165771 377.63716309 -66.64097168 377.51260742 -67.27905273 377.38427734 C-73.21044156 376.98880733 -78.49893994 378.78413622 -83.92578125 380.94921875 C-84.64648804 381.22920212 -85.36719482 381.50918549 -86.10974121 381.7976532 C-88.50313292 382.72898113 -90.89228453 383.67066268 -93.28125 384.61328125 C-96.75901277 385.97756291 -100.23852706 387.33731994 -103.71875 388.6953125 C-105.10166985 389.23589546 -105.10166985 389.23589546 -106.51252747 389.78739929 C-114.00573637 392.70275843 -121.54326533 395.48695636 -129.09375 398.25 C-132.52725156 399.5167691 -135.95998059 400.78560774 -139.39242554 402.05523682 C-141.64931171 402.88474334 -143.90911969 403.7063437 -146.17178345 404.5199585 C-149.35824321 405.6671016 -152.53310317 406.84214397 -155.70703125 408.0234375 C-156.666698 408.36050217 -157.62636475 408.69756683 -158.6151123 409.04484558 C-163.89225529 410.92377887 -163.89225529 410.92377887 -167.02734375 415.34814453 C-167.24583984 416.77876221 -167.24583984 416.77876221 -167.46875 418.23828125 C-171.52308694 430.3244326 -179.36991382 438.45853192 -188.28637695 447.26171875 C-189.80168077 448.75846177 -191.30852536 450.26336024 -192.81445312 451.76953125 C-201.20932522 460.12166784 -201.20932522 460.12166784 -205.84375 460.55078125 C-209.46875 460.23828125 -209.46875 460.23828125 -211.90625 458.73828125 C-214.05572326 455.29912404 -214.19117456 452.14496477 -213.46875 448.23828125 C-211.72315481 445.83188088 -210.30008965 444.21139689 -208.140625 442.26953125 C-207.59521057 441.7449231 -207.04979614 441.22031494 -206.487854 440.67980957 C-204.74949608 439.0123506 -202.98684979 437.37412351 -201.21875 435.73828125 C-188.24451157 424.02674458 -188.24451157 424.02674458 -183.37890625 407.68359375 C-183.82838658 395.44991179 -195.85957563 386.57487203 -203.78125 378.48828125 C-204.66748047 377.55628906 -205.55371094 376.62429688 -206.46679688 375.6640625 C-212.96404999 369.05781098 -218.7621455 365.0392082 -228.03125 363.73828125 C-242.7085416 365.87316003 -252.70969458 379.29226748 -262.671875 389.203125 C-263.67940952 390.20454623 -263.67940952 390.20454623 -264.70729828 391.2261982 C-268.25507687 394.75323881 -271.79965722 398.2834589 -275.34179688 401.81616211 C-278.98706747 405.45032839 -282.64387569 409.07265479 -286.30333328 412.69252682 C-289.13078683 415.49379664 -291.94928104 418.30395338 -294.76546478 421.11654854 C-296.10964195 422.45587298 -297.45717934 423.79183425 -298.80820465 425.12425041 C-300.69846923 426.99006236 -302.57559445 428.86822431 -304.45019531 430.74975586 C-305.2793898 431.55973526 -305.2793898 431.55973526 -306.12533569 432.38607788 C-310.73240279 437.05518863 -314.01026186 442.08301638 -314.96484375 448.65234375 C-314.93583984 450.24175781 -314.93583984 450.24175781 -314.90625 451.86328125 C-314.90431641 453.46042969 -314.90431641 453.46042969 -314.90234375 455.08984375 C-313.77121785 463.30324441 -307.955072 468.52162386 -302.46875 474.23828125 C-301.82437988 474.9152002 -301.18000977 475.59211914 -300.51611328 476.28955078 C-298.326706 478.57799911 -296.11923029 480.84763386 -293.90625 483.11328125 C-292.84446533 484.21990112 -292.84446533 484.21990112 -291.76123047 485.34887695 C-285.64187081 491.53411997 -279.49961795 495.92140869 -270.46875 496.23828125 C-257.38683802 495.32278833 -248.81798389 483.80648255 -240.39916992 474.90136719 C-239.05492852 473.48447053 -237.69366119 472.08378837 -236.33203125 470.68359375 C-235.54094971 469.85359863 -234.74986816 469.02360352 -233.93481445 468.16845703 C-231.02534333 465.89122916 -229.13357073 465.41212891 -225.46875 465.23828125 C-223.14143444 466.37607997 -221.30034286 467.40668839 -219.46875 469.23828125 C-218.53828075 475.86787467 -218.53828075 475.86787467 -220.72143555 479.08325195 C-221.2812915 479.68741943 -221.84114746 480.29158691 -222.41796875 480.9140625 C-223.37292236 481.9517981 -223.37292236 481.9517981 -224.34716797 483.01049805 C-225.39735107 484.11325073 -225.39735107 484.11325073 -226.46875 485.23828125 C-227.19336426 486.0063208 -227.91797852 486.77436035 -228.66455078 487.56567383 C-231.01260564 490.02300451 -233.39239043 492.44564024 -235.78125 494.86328125 C-236.57208984 495.683125 -237.36292969 496.50296875 -238.17773438 497.34765625 C-246.85533814 506.11690002 -255.90024572 512.34752216 -268.5703125 512.61889648 C-287.2245717 512.57014103 -297.32434191 503.75724941 -310.07202148 491.00561523 C-311.65391403 489.42811074 -313.25117004 487.86735435 -314.84960938 486.30664062 C-324.21271963 477.05042477 -331.55607844 467.82984656 -331.84936523 454.13671875 C-331.79405066 432.97288138 -319.65509852 422.10333357 -305.48046875 407.9140625 C-304.01213017 406.43928521 -302.54393711 404.96436301 -301.07588196 403.48930359 C-298.00896017 400.41045833 -294.93798576 397.33572171 -291.86450195 394.26342773 C-287.94407579 390.34320503 -284.03760857 386.40938471 -280.13452435 382.47190571 C-277.11034645 379.42540363 -274.07703332 376.38812319 -271.04114723 373.35329247 C-269.5975607 371.90736026 -268.1571822 370.45821726 -266.72022057 369.00570107 C-248.24761012 350.3518511 -248.24761012 350.3518511 -237.65625 349.11328125 C-233.740938 348.13884489 -233.740938 348.13884489 -231.16723633 345.20800781 C-230.84005615 344.3156543 -230.51287598 343.42330078 -230.17578125 342.50390625 C-229.76368408 341.41899902 -229.35158691 340.3340918 -228.92700195 339.21630859 C-228.58531479 338.27981476 -228.58531479 338.27981476 -228.23672485 337.32440186 C-227.38282776 335.00488278 -226.49333821 332.70096011 -225.59838867 330.39697266 C-222.55649777 322.55599914 -219.5700554 314.69391463 -216.57885742 306.83349609 C-215.77540425 304.72356564 -214.97177471 302.61370233 -214.16796875 300.50390625 C-213.77095261 299.46146759 -213.37393646 298.41902893 -212.96488953 297.34500122 C-210.48305823 290.84527451 -207.94498808 284.37077145 -205.36328125 277.91015625 C-204.45372316 275.61302047 -203.54581168 273.31524259 -202.63867188 271.01715088 C-202.07325906 269.59681682 -201.50097164 268.17919753 -200.92138672 266.7645874 C-197.88923596 259.35980997 -195.43474886 253.24170217 -197.46875 245.23828125 C-197.63375 244.22765625 -197.79875 243.21703125 -197.96875 242.17578125 C-198.13375 241.20640625 -198.29875 240.23703125 -198.46875 239.23828125 C-205.965484 186.47717607 -191.51633705 132.17164014 -159.8984375 89.44140625 C-125.31302125 43.52864907 -76.24069274 10.62458987 -18.8762207 1.57617188 C-18.08175537 1.46466797 -17.28729004 1.35316406 -16.46875 1.23828125 C-15.23213623 1.06466064 -13.99552246 0.89104004 -12.72143555 0.7121582 C-8.47604312 0.19000175 -4.27421067 0.04400189 0 0 Z M-125.46875 74.23828125 C-126.2009375 74.92792969 -126.933125 75.61757812 -127.6875 76.328125 C-162.83895376 110.43340454 -182.87051569 159.71588754 -184.46875 208.23828125 C-184.72419479 234.6220787 -179.01830138 259.57214626 -167.46875 283.23828125 C-166.97503906 284.25535156 -166.48132813 285.27242188 -165.97265625 286.3203125 C-159.38114513 299.0738595 -150.38095621 309.9589563 -140.46875 320.23828125 C-139.75332031 321.016875 -139.03789062 321.79546875 -138.30078125 322.59765625 C-115.77050898 346.43831959 -80.85868549 361.49572508 -48.46875 364.23828125 C-47.72931152 364.3038623 -46.98987305 364.36944336 -46.22802734 364.43701172 C3.14902059 368.56579235 51.07254337 352.35672475 89.59375 321.55078125 C91.25568488 320.13192746 92.90125984 318.69372128 94.53125 317.23828125 C95.02415527 316.79887207 95.51706055 316.35946289 96.02490234 315.90673828 C99.57284925 312.73145184 103.06377493 309.50120024 106.53125 306.23828125 C107.18996094 305.62210937 107.84867187 305.0059375 108.52734375 304.37109375 C113.67704166 299.39979184 118.12545352 293.86869209 122.53125 288.23828125 C123.17368652 287.4184375 123.17368652 287.4184375 123.82910156 286.58203125 C154.87023196 246.61685971 169.26418075 197.08570255 164.0703125 146.67578125 C163.49291692 142.4580048 162.58853464 138.35912649 161.53125 134.23828125 C161.23323486 133.0157666 161.23323486 133.0157666 160.92919922 131.76855469 C151.23698362 92.63668797 128.30426689 58.91217724 93.59375 37.80859375 C89.64319887 35.47901735 85.61741078 33.31955006 81.53125 31.23828125 C80.90702148 30.91875488 80.28279297 30.59922852 79.63964844 30.27001953 C9.67344673 -4.74969367 -71.98392772 23.8333434 -125.46875 74.23828125 Z M-188.46875 278.23828125 C-188.86553955 279.29813232 -189.2623291 280.3579834 -189.67114258 281.44995117 C-191.19785334 285.5273839 -192.72540213 289.60450232 -194.25314331 293.68154907 C-194.93690039 295.50664 -195.6204342 297.33181459 -196.30374146 299.15707397 C-199.81301638 308.53068436 -203.32772579 317.90164891 -206.9140625 327.24609375 C-207.17303818 327.92229263 -207.43201385 328.59849152 -207.69883728 329.29518127 C-208.89922592 332.42919552 -210.10418646 335.56118409 -211.31762695 338.69018555 C-211.94737427 340.33241089 -211.94737427 340.33241089 -212.58984375 342.0078125 C-212.9552124 342.95245361 -213.32058105 343.89709473 -213.69702148 344.87036133 C-214.62368421 347.29858699 -214.62368421 347.29858699 -214.46875 350.23828125 C-213.79328125 350.56441406 -213.1178125 350.89054687 -212.421875 351.2265625 C-211.52984375 351.66355469 -210.6378125 352.10054688 -209.71875 352.55078125 C-208.83703125 352.98003906 -207.9553125 353.40929687 -207.046875 353.8515625 C-204.46875 355.23828125 -204.46875 355.23828125 -202.85375977 356.95898438 C-199.53652532 358.73831783 -197.64703522 358.02387812 -194.13154602 356.96540833 C-186.95968489 354.36182178 -182.00560778 352.0745605 -178.57644653 344.98196411 C-176.92428771 340.89875889 -175.5791016 336.75751417 -174.28125 332.55078125 C-173.68643331 330.83186322 -173.08555579 329.11503004 -172.47851562 327.40039062 C-169.03953754 318.94957169 -169.03953754 318.94957169 -169.46875 310.23828125 C-170.60907942 308.29318069 -171.80447917 306.38005309 -173.03125 304.48828125 C-176.71951777 298.70193743 -179.83218261 292.73275817 -182.76586914 286.53222656 C-184.34595699 283.24498803 -185.80255222 280.71574239 -188.46875 278.23828125 Z M-156.46875 327.23828125 C-157.28479999 329.15343915 -158.09645632 331.07046959 -158.90625 332.98828125 C-159.35871094 334.055625 -159.81117188 335.12296875 -160.27734375 336.22265625 C-161.20854553 338.57966535 -161.9471572 340.7682096 -162.46875 343.23828125 C-157.00137809 341.49020996 -151.71050152 339.58034044 -146.46875 337.23828125 C-147.37997727 336.1296214 -148.29801659 335.02655906 -149.21875 333.92578125 C-149.72921875 333.31089844 -150.2396875 332.69601562 -150.765625 332.0625 C-152.52413534 330.17895796 -154.36794636 328.72254469 -156.46875 327.23828125 Z M-138.64282227 351.04248047 C-139.69724014 351.43644012 -140.75165802 351.83039978 -141.83802795 352.23629761 C-142.97558029 352.66749908 -144.11313263 353.09870056 -145.28515625 353.54296875 C-147.03625954 354.20173508 -147.03625954 354.20173508 -148.82273865 354.87380981 C-151.29253964 355.80454262 -153.76147363 356.73727625 -156.22924805 357.67333984 C-159.39312556 358.87307341 -162.56044675 360.06339675 -165.72889805 361.25098991 C-168.74962421 362.38476068 -171.76723969 363.52674451 -174.78515625 364.66796875 C-175.92473282 365.09512177 -177.06430939 365.52227478 -178.23841858 365.96237183 C-179.81531715 366.56276779 -179.81531715 366.56276779 -181.42407227 367.17529297 C-182.35212173 367.5261496 -183.2801712 367.87700623 -184.23634338 368.23849487 C-186.61070816 369.14268898 -186.61070816 369.14268898 -188.46875 371.23828125 C-187.51613281 372.13289063 -186.56351563 373.0275 -185.58203125 373.94921875 C-178.73185631 380.50843856 -172.93965468 386.23042954 -169.46875 395.23828125 C-163.35671131 394.04195763 -157.68808725 392.36895817 -151.90234375 390.078125 C-151.11328644 389.77194244 -150.32422913 389.46575989 -149.51126099 389.15029907 C-146.97398094 388.16452844 -144.44017201 387.17014755 -141.90625 386.17578125 C-139.28529585 385.15549578 -136.66344979 384.13752643 -134.04154968 383.11967468 C-132.30502789 382.44537008 -130.56878946 381.7703353 -128.83283997 381.09455872 C-121.58586887 378.27503925 -114.31687761 375.51904465 -107.03125 372.80078125 C-106.03859131 372.43009521 -105.04593262 372.05940918 -104.02319336 371.67749023 C-101.83893781 370.86290383 -99.65421326 370.04962059 -97.46875 369.23828125 C-100.4455009 366.03514223 -103.87349848 364.45027028 -107.78125 362.61328125 C-114.19711923 359.52391431 -120.16688834 356.06122385 -126.03833008 352.03271484 C-130.9438914 348.71650566 -133.2474908 349.01372141 -138.64282227 351.04248047 Z " fill="#000000" transform="translate(331.46875,-0.23828125)"/>
<path d="M0 0 C22.51470337 21.29323119 34.34959281 51.01778117 35.4375 81.78515625 C36.10542957 124.15693841 19.60493765 163.75705261 -9.6875 194.25 C-10.14672852 194.74032715 -10.60595703 195.2306543 -11.07910156 195.73583984 C-37.79845382 224.19623699 -76.36978869 243.48230998 -115.6875 245.25 C-117.41613281 245.32927734 -117.41613281 245.32927734 -119.1796875 245.41015625 C-147.88686014 246.07440672 -177.59372356 238.18752266 -199.6875 219.25 C-200.69167969 218.40695312 -201.69585937 217.56390625 -202.73046875 216.6953125 C-223.89880385 198.44963382 -235.13908115 173.44509172 -239.6875 146.25 C-239.82027344 145.48816406 -239.95304688 144.72632813 -240.08984375 143.94140625 C-244.11292706 115.6696016 -236.98650212 86.58843431 -224.6875 61.25 C-224.39149902 60.62818848 -224.09549805 60.00637695 -223.79052734 59.36572266 C-216.74815779 44.7369215 -206.91246007 31.93499942 -195.6875 20.25 C-195.22827148 19.75967285 -194.76904297 19.2693457 -194.29589844 18.76416016 C-182.02048679 5.68887722 -168.30962318 -4.49644964 -152.43847656 -12.82324219 C-150.85831575 -13.65959055 -149.29877197 -14.53461292 -147.7421875 -15.4140625 C-142.48898539 -18.28966855 -138.69194742 -19.78524956 -132.6875 -18.75 C-129.69652696 -16.20767292 -128.84547443 -14.5925303 -128.125 -10.75 C-128.89202094 -6.65922167 -130.55996541 -5.46634478 -133.6875 -2.75 C-136.14889519 -1.27572865 -138.70852101 -0.07505162 -141.3125 1.125 C-155.82169103 8.10600874 -167.94635127 17.28797071 -179.6875 28.25 C-180.5021875 28.99894531 -181.316875 29.74789062 -182.15625 30.51953125 C-207.42733055 54.63102108 -222.87005485 90.6213053 -223.96850586 125.37451172 C-224.396725 154.27432454 -214.31613093 180.62469735 -194.4765625 201.5859375 C-177.9806904 217.10064248 -154.37263372 227.38580443 -131.6875 228.25 C-130.48351562 228.3015625 -129.27953125 228.353125 -128.0390625 228.40625 C-98.4556561 229.25399237 -68.48866648 219.846899 -44.6875 202.25 C-43.511875 201.38955078 -43.511875 201.38955078 -42.3125 200.51171875 C-36.4689221 196.09860003 -31.03741582 191.24438344 -25.6875 186.25 C-24.55828125 185.20199219 -24.55828125 185.20199219 -23.40625 184.1328125 C2.97223241 158.77603187 17.66521364 122.52126108 18.6875 86.1875 C17.9160212 59.05716224 8.96969103 32.55001542 -10.6875 13.25 C-25.67679068 -0.64627432 -44.41561132 -9.79511453 -64.6875 -12.75 C-65.44804687 -12.86085938 -66.20859375 -12.97171875 -66.9921875 -13.0859375 C-78.82663018 -14.5215912 -90.50366977 -13.95244735 -102.25366211 -12.19799805 C-106.09183013 -11.6952219 -108.08856608 -11.47242619 -111.6796875 -13.13671875 C-113.6875 -14.75 -113.6875 -14.75 -114.6875 -15.75 C-115.26191253 -22.7578329 -115.26191253 -22.7578329 -113.3125 -26.125 C-80.60738977 -46.37102062 -25.37981106 -21.89771534 0 0 Z " fill="#000000" transform="translate(424.6875,82.75)"/>
<path d="M0 0 C1.8984375 0.3984375 1.8984375 0.3984375 4.2734375 1.7109375 C6.42922288 5.27627485 6.72182504 8.68411712 7.34765625 12.765625 C8.07022678 16.21961462 9.26433352 18.06537398 11.8984375 20.3984375 C15.84466236 22.6036808 20.27202798 23.05582853 24.69140625 23.73828125 C26.8984375 24.3984375 26.8984375 24.3984375 28.8984375 27.3984375 C29.67586697 34.3953027 29.67586697 34.3953027 26.9609375 37.8984375 C20.94363031 40.84569 15.57059397 39.8334488 9.3359375 37.8359375 C0.58646892 34.32391305 -4.25051459 29.21340504 -8.19140625 20.73046875 C-10.17190444 15.65597339 -10.76723907 10.82032491 -10.1015625 5.3984375 C-7.71485642 0.52557925 -5.16191298 -0.40297462 0 0 Z " fill="#000000" transform="translate(276.1015625,206.6015625)"/>
<path d="M0 0 C3 2 3 2 5 5 C5.43431536 8.66065807 5.49689668 9.78444417 4 13 C0.60792831 17.08939653 -3.1876058 21.5938029 -8 24 C-11.54250417 24.26240772 -14.13259827 24.4108745 -17.375 22.875 C-19.64943318 20.25065402 -19.93096951 18.45152438 -20 15 C-17.97766937 11.01462531 -15.32475004 7.9102582 -12.25 4.6875 C-11.02023438 3.36298828 -11.02023438 3.36298828 -9.765625 2.01171875 C-6.24792463 -0.54706047 -4.2615009 -0.53021 0 0 Z " fill="#000000" transform="translate(253,166)"/>
<path d="M0 0 C2.72693733 2.28710873 2.96332167 3.71744098 3.421875 7.25 C2.85846469 12.25809168 0.89768593 14.05460506 -2.6875 17.375 C-3.48317383 18.17357422 -3.48317383 18.17357422 -4.29492188 18.98828125 C-7.36458524 21.94871733 -9.6704534 23.80658383 -14 24 C-17.81263347 22.93600927 -18.75011007 22.3748349 -21 19 C-21.64395107 15.35094395 -21.70038792 13.02851486 -19.57421875 9.90625 C-17.7861713 7.85401567 -15.93263338 5.91597274 -14 4 C-13.2575 3.195625 -12.515 2.39125 -11.75 1.5625 C-8.02225902 -1.76584016 -4.59743603 -1.06726194 0 0 Z " fill="#000000" transform="translate(343,255)"/>
<path d="M0 0 C2.81972931 2.36493426 2.97850831 3.8280665 3.4375 7.5 C3 11 3 11 1.4375 13.4375 C-1.98314143 15.63021887 -4.00951279 15.63007693 -8 15 C-11.4272611 12.52070473 -12.81303325 11.14517131 -13.5 6.9375 C-12.95255192 3.72124253 -12.2924309 2.2924309 -10 0 C-6.20519658 -1.26493447 -3.87641726 -0.89988258 0 0 Z " fill="#000000" transform="translate(378,166)"/>
<path d="M0 0 C2.81972931 2.36493426 2.97850831 3.8280665 3.4375 7.5 C3 11 3 11 1.4375 13.4375 C-1.98314143 15.63021887 -4.00951279 15.63007693 -8 15 C-11.4272611 12.52070473 -12.81303325 11.14517131 -13.5 6.9375 C-12.95255192 3.72124253 -12.2924309 2.2924309 -10 0 C-6.20519658 -1.26493447 -3.87641726 -0.89988258 0 0 Z " fill="#000000" transform="translate(378,98)"/>
<path d="M0 0 C3 2 3 2 5 5 C5.37468449 7.91799741 5.06531397 10.25977573 4 13 C1.875 15.0625 1.875 15.0625 -1 16 C-4.74042509 15.93550991 -7.03326481 15.81081016 -9.9375 13.375 C-11.43699866 10.02317947 -11.45377473 7.63019782 -11 4 C-8.115552 -0.49973888 -5.11460998 -0.80757 0 0 Z " fill="#000000" transform="translate(274,267)"/>
<path d="M0 0 C2.81972931 2.36493426 2.97850831 3.8280665 3.4375 7.5 C3 11 3 11 1.4375 13.4375 C-1.98314143 15.63021887 -4.00951279 15.63007693 -8 15 C-11 13 -11 13 -13 10 C-13.37468449 7.08200259 -13.06531397 4.74022427 -12 2 C-8.21756349 -1.67118838 -4.91043443 -1.36400956 0 0 Z " fill="#000000" transform="translate(242,234)"/>
<path d="M0 0 C2.562964 2.23225897 2.93752331 3.58051369 3.4375 6.9375 C2.88008526 10.83940315 1.97118368 12.40973731 -1 15 C-4.4375 15.625 -4.4375 15.625 -8 15 C-11.4272611 12.52070473 -12.81303325 11.14517131 -13.5 6.9375 C-12.95255192 3.72124253 -12.2924309 2.2924309 -10 0 C-6.20519658 -1.26493447 -3.87641726 -0.89988258 0 0 Z " fill="#000000" transform="translate(378,233)"/>
<path d="M0 0 C2.96592766 0.6055202 3.75648905 1.00289781 5.9375 3.25 C7.1611499 7.00252635 6.92779075 9.3349533 5.875 13.125 C3.51006574 15.94472931 2.0469335 16.10350831 -1.625 16.5625 C-5.125 16.125 -5.125 16.125 -7.5625 14.5625 C-9.75521887 11.14185857 -9.75507693 9.11548721 -9.125 5.125 C-6.54091287 1.24886931 -4.62497347 -0.29012749 0 0 Z " fill="#000000" transform="translate(408.125,197.875)"/>
<path d="M0 0 C2.562964 2.23225897 2.93752331 3.58051369 3.4375 6.9375 C2.88008526 10.83940315 1.97118368 12.40973731 -1 15 C-4.4375 15.625 -4.4375 15.625 -8 15 C-11.4272611 12.52070473 -12.81303325 11.14517131 -13.5 6.9375 C-12.95255192 3.72124253 -12.2924309 2.2924309 -10 0 C-6.20519658 -1.26493447 -3.87641726 -0.89988258 0 0 Z " fill="#000000" transform="translate(344,199)"/>
<path d="M0 0 C2.96592766 0.6055202 3.75648905 1.00289781 5.9375 3.25 C7.1611499 7.00252635 6.92779075 9.3349533 5.875 13.125 C3.51006574 15.94472931 2.0469335 16.10350831 -1.625 16.5625 C-5.125 16.125 -5.125 16.125 -7.5625 14.5625 C-9.75521887 11.14185857 -9.75507693 9.11548721 -9.125 5.125 C-6.54091287 1.24886931 -4.62497347 -0.29012749 0 0 Z " fill="#000000" transform="translate(307.125,164.875)"/>
<path d="M0 0 C3 2 3 2 5 5 C5.37468449 7.91799741 5.06531397 10.25977573 4 13 C1.875 15.0625 1.875 15.0625 -1 16 C-4.74042509 15.93550991 -7.03326481 15.81081016 -9.9375 13.375 C-11.43699866 10.02317947 -11.45377473 7.63019782 -11 4 C-8.115552 -0.49973888 -5.11460998 -0.80757 0 0 Z " fill="#000000" transform="translate(410,131)"/>
<path d="M0 0 C4.0743356 0.84881992 5.54405875 2.30225596 8 5.625 C8.625 8.625 8.625 8.625 8 11.625 C5.54405875 14.94774404 4.0743356 16.40118008 0 17.25 C-4.0743356 16.40118008 -5.54405875 14.94774404 -8 11.625 C-8.625 8.625 -8.625 8.625 -8 5.625 C-5.54405875 2.30225596 -4.0743356 0.84881992 0 0 Z " fill="#000000" transform="translate(339,130.375)"/>
<path d="M0 0 C3 2 3 2 5 5 C5.37468449 7.91799741 5.06531397 10.25977573 4 13 C1.875 15.0625 1.875 15.0625 -1 16 C-4.74042509 15.93550991 -7.03326481 15.81081016 -9.9375 13.375 C-11.43699866 10.02317947 -11.45377473 7.63019782 -11 4 C-8.115552 -0.49973888 -5.11460998 -0.80757 0 0 Z " fill="#000000" transform="translate(275,131)"/>
<path d="M0 0 C2.96592766 0.6055202 3.75648905 1.00289781 5.9375 3.25 C7.1611499 7.00252635 6.92779075 9.3349533 5.875 13.125 C3.51006574 15.94472931 2.0469335 16.10350831 -1.625 16.5625 C-5.125 16.125 -5.125 16.125 -7.5625 14.5625 C-9.75521887 11.14185857 -9.75507693 9.11548721 -9.125 5.125 C-6.54091287 1.24886931 -4.62497347 -0.29012749 0 0 Z " fill="#000000" transform="translate(307.125,96.875)"/>
</svg>
