<?xml version="1.0" encoding="UTF-8"?>
<svg version="1.1" xmlns="http://www.w3.org/2000/svg" width="512" height="512">
<path d="M0 0 C3.64698042 2.17721072 6.57820293 4.53134352 9.3125 7.8125 C9.75335938 8.33714844 10.19421875 8.86179687 10.6484375 9.40234375 C15.97018295 16.18526209 16.94557107 23.30790949 16.3125 31.8125 C15.42769639 37.65668673 14.28030467 43.44415663 13.13476562 49.24194336 C12.79234648 51.00747387 12.45067145 52.77314884 12.10968018 54.53895569 C11.18277643 59.3276942 10.24554736 64.11435998 9.3065052 68.90073085 C8.31646847 73.95675928 7.33618584 79.01467831 6.3548584 84.07240295 C4.48693039 93.69193466 2.61057606 103.30980211 0.73106146 112.92707592 C-1.58197031 124.76450588 -3.88500995 136.60387522 -6.1875 148.44335938 C-7.00632049 152.65362343 -7.82519777 156.86387643 -8.64416504 161.07411194 C-8.84396044 162.10126157 -9.04375585 163.1284112 -9.24960566 164.18668658 C-10.59472309 171.10035827 -11.94280849 178.01344657 -13.2923584 184.92625427 C-15.2501733 194.95612049 -17.20083877 204.98735832 -19.14574814 215.01973486 C-19.70951594 217.92599359 -20.27442483 220.83202922 -20.83938599 223.73805618 C-21.7932884 228.64787081 -22.74190225 233.55868268 -23.68689442 238.47021973 C-24.04450939 240.32512375 -24.4037 242.17972478 -24.76455975 244.03400028 C-25.26136184 246.58858226 -25.75231971 249.14422114 -26.24182129 251.70021057 C-26.38929841 252.45175498 -26.53677553 253.20329938 -26.68872166 253.97761786 C-27.38030093 257.62258191 -27.9899875 261.09951865 -27.6875 264.8125 C-26.42836034 266.5265626 -26.42836034 266.5265626 -24.625 267.9375 C-5.6212255 285.6743562 -3.48144658 314.48261617 -1.6875 338.8125 C-1.66835379 340.81240835 -1.6630302 342.8126497 -1.6875 344.8125 C-0.64851563 344.77769531 0.39046875 344.74289062 1.4609375 344.70703125 C8.75347818 344.5380887 15.2538381 344.50496356 22.19921875 347.05859375 C24.61526715 347.9205112 26.75252512 348.55976363 29.3125 348.8125 C31.21227207 347.85023611 31.21227207 347.85023611 32.875 346.25 C42.56427365 338.40369554 54.85717493 333.57648834 67.3125 332.8125 C68.50746094 332.73322266 68.50746094 332.73322266 69.7265625 332.65234375 C86.32443837 332.08928896 102.34702784 337.34103347 114.875 348.3125 C116.37587112 349.79078276 117.85707964 351.28944859 119.3125 352.8125 C120.25996094 353.73095703 120.25996094 353.73095703 121.2265625 354.66796875 C127.55870616 361.20932421 132.98122311 370.74957653 134.3125 379.8125 C135.18519531 379.92722656 136.05789063 380.04195313 136.95703125 380.16015625 C148.59497178 382.42271279 158.28198657 390.34202547 165.4140625 399.515625 C174.99472586 413.78469809 177.61023657 429.85326577 174.62890625 446.66796875 C170.64759461 460.49517973 162.15565275 472.25039817 150.16796875 480.2421875 C135.6334838 488.23516007 119.73275168 490.12784177 103.80078125 485.56640625 C101.3125 484.8125 101.3125 484.8125 99.3125 483.96484375 C96.01489335 483.71365887 94.45890043 485.74471098 92 487.8125 C75.91417203 500.59206085 56.93990188 504.59588064 36.59765625 502.4140625 C22.77388182 500.18021018 6.04926022 492.97603938 -3.19140625 482.03125 C-4.63884658 480.56869278 -4.63884658 480.56869278 -6.7890625 480.95703125 C-7.62179687 481.17746094 -8.45453125 481.39789063 -9.3125 481.625 C-21.68512097 484.22717822 -33.95633659 483.82338266 -45.6875 478.8125 C-46.52796875 478.23113281 -47.3684375 477.64976562 -48.234375 477.05078125 C-50.59406748 475.53463316 -50.59406748 475.53463316 -53.0078125 476.328125 C-55.85004972 477.90254212 -58.64029872 479.53726622 -61.40771484 481.23950195 C-107.87145787 509.76737681 -167.85296114 506.24044299 -219 494.3984375 C-254.98763043 485.59042182 -294.28204271 469.78172872 -315.88671875 437.796875 C-322.25855074 427.23704931 -329.31991455 415.52921086 -327.6875 402.8125 C-325.97327497 397.92927519 -323.00893868 394.57910607 -318.6875 391.8125 C-315.03260759 390.7219366 -311.31690838 390.09041544 -307.5625 389.4375 C-305.29902146 389.01284915 -303.03601436 388.58567916 -300.7734375 388.15625 C-299.60393555 387.93710937 -298.43443359 387.71796875 -297.22949219 387.4921875 C-246.28781636 377.71677907 -193.43479718 361.6763812 -153.6875 326.8125 C-152.76582031 326.02359375 -151.84414062 325.2346875 -150.89453125 324.421875 C-137.50860491 312.67918652 -126.82477647 298.24622105 -119.5625 282 C-114.86409326 271.51577721 -107.72311042 260.35324545 -96.80272865 255.54137802 C-91.82195335 253.29809979 -88.48131101 251.46720502 -86.0666008 246.43372345 C-84.75014513 242.10377782 -84.02188484 237.66751462 -83.27099609 233.21191406 C-82.94504408 231.50954993 -82.61454881 229.80805042 -82.27989197 228.1073761 C-81.38463698 223.49036211 -80.55321005 218.86386063 -79.73257017 214.23308659 C-78.85246742 209.33181252 -77.91304305 204.44192045 -76.98013306 199.55047607 C-75.2123539 190.23357811 -73.49685446 180.90785209 -71.80029929 171.57775187 C-69.90441054 161.16400078 -67.95470234 150.76061025 -65.99821806 140.35809994 C-63.00976307 124.46477663 -60.04565895 108.56706043 -57.10607958 92.66462803 C-50.53385598 57.11302169 -50.53385598 57.11302169 -47.47166824 41.21596527 C-47.0658047 39.10086687 -46.66408692 36.9849677 -46.26700974 34.86820221 C-45.74089948 32.06704522 -45.20015665 29.26914025 -44.65478516 26.47167969 C-44.51193714 25.69387901 -44.36908913 24.91607834 -44.22191238 24.11470795 C-42.48175326 15.40668419 -38.65785533 7.30215366 -31.26171875 2.109375 C-21.62744566 -3.47042051 -10.30106714 -4.82046957 0 0 Z M-21.6875 17.8125 C-25.72840958 22.74917386 -26.79388223 27.48069863 -27.93554688 33.67529297 C-28.22531025 35.15545379 -28.22531025 35.15545379 -28.52092743 36.66551685 C-29.16236463 39.95953888 -29.78423637 43.25694708 -30.40625 46.5546875 C-30.86087224 48.90996377 -31.31671154 51.2650054 -31.77368164 53.61982727 C-32.8775456 59.32454838 -33.96890518 65.03155568 -35.05446815 70.73978537 C-36.31366116 77.35796191 -37.58705195 83.97338033 -38.86154652 90.58862436 C-40.56546296 99.43375595 -42.26607476 108.27951289 -43.95788574 117.12696838 C-44.08868987 117.81098888 -44.21949399 118.49500937 -44.35426188 119.19975775 C-44.48506443 119.88377404 -44.61586698 120.56779032 -44.75063324 121.27253437 C-47.7909547 137.17100349 -50.86621878 153.06234867 -53.96195984 168.95013428 C-55.37091403 176.18511065 -56.77510328 183.42101295 -58.17908478 190.65695572 C-59.29241558 196.39415531 -60.40770315 202.13095813 -61.52758789 207.86688232 C-62.57355111 213.22625428 -63.61211049 218.5870084 -64.64489746 223.94893456 C-65.02370849 225.90885077 -65.40516557 227.86825764 -65.78942871 229.8271122 C-66.30998975 232.48264682 -66.82124068 235.13980553 -67.33007812 237.79760742 C-67.48460701 238.57418135 -67.63913589 239.35075527 -67.79834747 240.15086174 C-68.43215114 243.51111931 -68.78771315 245.51186056 -67.6875 248.8125 C-66.78128906 248.93367187 -65.87507813 249.05484375 -64.94140625 249.1796875 C-63.11416016 249.43105469 -63.11416016 249.43105469 -61.25 249.6875 C-60.05503906 249.84992188 -58.86007812 250.01234375 -57.62890625 250.1796875 C-54.68900553 250.65170327 -51.84043438 251.19741397 -48.94116211 251.85205078 C-47.74154091 252.12192307 -47.74154091 252.12192307 -46.51768494 252.39724731 C-45.91372391 252.5342807 -45.30976288 252.67131409 -44.6875 252.8125 C-40.55696109 231.54544275 -36.42698434 210.27827638 -32.29762459 189.01099014 C-30.3790074 179.12967355 -28.46021936 169.24839019 -26.54101562 159.3671875 C-25.97923064 156.47469938 -25.41745252 153.58220993 -24.85568094 150.6897192 C-24.4834768 148.77328844 -24.11126631 146.85685892 -23.73904943 144.94043064 C-21.72877205 134.58983103 -19.71963806 124.23901168 -17.71368408 113.88757324 C-17.53758236 112.97887025 -17.36148064 112.07016726 -17.18004251 111.13392782 C-16.13588003 105.74586934 -16.13588003 105.74586934 -15.09187937 100.3577795 C-13.12322935 90.19757469 -11.14769049 80.03877931 -9.15781593 69.8827095 C-8.1902709 64.9437927 -7.22837664 60.00377773 -6.26702499 55.06365204 C-5.8403775 52.87783219 -5.41144736 50.69245641 -4.9800148 48.50757599 C-4.40513553 45.59567601 -3.8380702 42.6823615 -3.27294922 39.76855469 C-3.10865292 38.94779701 -2.94435661 38.12703934 -2.77508163 37.28141022 C-1.10847977 28.75372565 -1.10847977 28.75372565 -3.3125 20.5625 C-5.93514121 17.52575755 -7.94771904 16.21491786 -11.6875 14.8125 C-16.15788145 14.8125 -17.93529819 15.46737387 -21.6875 17.8125 Z M-97.0625 279.4375 C-101.1998594 284.04188847 -101.1998594 284.04188847 -102.5 289.7109375 C-99.88688086 296.46987065 -91.48388851 300.92152091 -85.20703125 303.78515625 C-67.04637375 311.19019954 -46.18070601 309.68602278 -27.6875 303.8125 C-27.0275 303.4825 -26.3675 303.1525 -25.6875 302.8125 C-27.04845575 292.01980436 -33.72968042 282.71539369 -42.00390625 275.90625 C-60.3257522 262.3727425 -81.39633422 261.76483022 -97.0625 279.4375 Z M-112.6875 306.8125 C-113.45320313 307.99392578 -113.45320313 307.99392578 -114.234375 309.19921875 C-120.00065449 317.83841408 -126.43593613 325.39043391 -133.6875 332.8125 C-134.22987305 333.3789624 -134.77224609 333.9454248 -135.33105469 334.52905273 C-139.49904518 338.81334551 -143.91390099 342.53428864 -148.6875 346.125 C-149.43676758 346.68912598 -150.18603516 347.25325195 -150.95800781 347.83447266 C-153.19339811 349.5046299 -155.43853164 351.16068922 -157.6875 352.8125 C-158.27466797 353.24965332 -158.86183594 353.68680664 -159.46679688 354.13720703 C-178.92192835 368.47408899 -202.0370207 378.76124207 -224.6875 386.8125 C-225.49364746 387.11027344 -226.29979492 387.40804687 -227.13037109 387.71484375 C-253.66763328 397.50919928 -281.80406769 403.40250429 -309.6875 407.8125 C-308.16963371 413.33004865 -306.71813277 418.43943149 -303.625 423.3125 C-303.11839844 424.1271875 -302.61179687 424.941875 -302.08984375 425.78125 C-300.71056928 427.90954104 -300.71056928 427.90954104 -298.6875 429.8125 C-290.08876926 430.06558862 -281.36411311 427.95776087 -273 426.1875 C-271.11075806 425.78990479 -271.11075806 425.78990479 -269.18334961 425.38427734 C-245.01623364 420.17709047 -220.76768171 413.48754936 -198.78125 401.96484375 C-195.21255684 400.63559567 -193.31940417 400.80770807 -189.6875 401.8125 C-187.8125 402.875 -187.8125 402.875 -186.6875 404.8125 C-185.91456304 411.7689326 -185.91456304 411.7689326 -188.16015625 414.80078125 C-191.6784145 417.60124957 -195.45629291 419.27103159 -199.5625 421.0625 C-200.44599121 421.45163574 -201.32948242 421.84077148 -202.23974609 422.24169922 C-228.15716148 433.47941759 -255.00954452 440.43465891 -282.6875 445.8125 C-278.33003905 450.50195797 -273.09437727 453.52700906 -267.60400391 456.69970703 C-266.29979928 457.45697642 -265.00277584 458.22672003 -263.71240234 459.00732422 C-261.703877 460.2120497 -259.67079244 461.35993297 -257.625 462.5 C-257.01366211 462.87543945 -256.40232422 463.25087891 -255.77246094 463.63769531 C-250.42245644 466.49568727 -246.53091396 465.53746249 -240.85766602 463.85180664 C-239.81151123 463.50883545 -238.76535645 463.16586426 -237.6875 462.8125 C-236.67292725 462.49595459 -235.65835449 462.17940918 -234.61303711 461.85327148 C-206.96615445 453.00705751 -178.15476231 441.1609976 -154.6875 423.8125 C-153.70265625 423.10867188 -152.7178125 422.40484375 -151.703125 421.6796875 C-145.47652936 417.14407088 -139.72190306 412.2718295 -134.0859375 407.0234375 C-132.24502872 405.32644341 -130.40069439 403.73520352 -128.4375 402.1875 C-123.65757066 398.05937921 -119.7783931 393.25047791 -115.9375 388.25390625 C-115.4530542 387.62605225 -114.9686084 386.99819824 -114.46948242 386.35131836 C-113.50375372 385.09357665 -112.5453263 383.83018866 -111.5949707 382.56079102 C-107.27615488 376.92076107 -107.27615488 376.92076107 -103.6875 375.8125 C-100.60794678 376.00104407 -98.47100181 376.29917123 -95.875 378 C-94.04250502 380.79696603 -93.6875 382.42674103 -93.6875 385.8125 C-99.9210731 404.39849097 -122.41592875 421.64404301 -137.6875 432.8125 C-138.29400391 433.25803223 -138.90050781 433.70356445 -139.52539062 434.16259766 C-164.04497552 452.00027473 -191.2913556 464.48931834 -219.6875 474.8125 C-216.62956114 476.50519173 -213.81096721 477.34217444 -210.390625 478.03125 C-209.35687744 478.24048096 -208.32312988 478.44971191 -207.25805664 478.6652832 C-206.16227295 478.87886475 -205.06648926 479.09244629 -203.9375 479.3125 C-202.81529053 479.53317139 -201.69308105 479.75384277 -200.53686523 479.98120117 C-191.93595478 481.63937914 -183.40990368 483.00352558 -174.6875 483.8125 C-173.81996094 483.95429688 -172.95242187 484.09609375 -172.05859375 484.2421875 C-158.43472547 485.72353067 -141.82864326 470.76768039 -131.6875 462.8125 C-128.44476955 460.08421186 -125.3583023 457.21878354 -122.30078125 454.28515625 C-120.42962672 452.51469165 -118.58141052 450.88091405 -116.58984375 449.26171875 C-114.08365672 447.14680721 -112.02684801 445.07355127 -109.9375 442.5625 C-107.05219429 439.1053319 -105.94951799 437.92935352 -101.3125 437.5 C-97.6875 437.8125 -97.6875 437.8125 -95.25 439.3125 C-93.51882791 442.08237535 -92.80975282 444.26087585 -92.9921875 447.55078125 C-94.56364734 452.66243994 -98.970233 456.16016343 -102.6875 459.8125 C-103.96947266 461.16408203 -103.96947266 461.16408203 -105.27734375 462.54296875 C-111.09054933 468.59519013 -117.20341687 473.74011516 -123.9375 478.71875 C-126.0502625 480.32733054 -127.89418568 481.86974282 -129.6875 483.8125 C-109.94423698 483.12577781 -91.71949255 477.14116683 -74.25 468.1875 C-73.50943359 467.81536377 -72.76886719 467.44322754 -72.00585938 467.05981445 C-68.18812472 465.20322745 -68.18812472 465.20322745 -65.92626953 461.82397461 C-65.58673969 458.96366138 -66.60820482 457.48954913 -68 455 C-71.92564515 447.92484011 -73.05560453 441.46892404 -73 433.5 C-72.99436035 432.65695312 -72.9887207 431.81390625 -72.98291016 430.9453125 C-72.86296593 424.79846783 -72.2702499 419.45737384 -69.6875 413.8125 C-69.08421875 412.46478516 -69.08421875 412.46478516 -68.46875 411.08984375 C-64.10183112 402.27109367 -58.37176367 395.48179638 -49.4375 391.1875 C-44.76111206 388.6007153 -43.43546824 385.58483672 -42 380.625 C-41.81501953 379.96669189 -41.63003906 379.30838379 -41.43945312 378.63012695 C-38.48552975 368.14601476 -32.43904826 360.26696905 -23.6875 353.8125 C-22.37323192 353.10899333 -21.04501368 352.42843736 -19.6875 351.8125 C-19.38721357 341.28579223 -20.27556359 331.22553106 -21.6875 320.8125 C-22.33074219 320.93367188 -22.97398437 321.05484375 -23.63671875 321.1796875 C-26.65115534 321.73871283 -29.6687056 322.2774905 -32.6875 322.8125 C-33.67492187 322.9887793 -34.66234375 323.16505859 -35.6796875 323.34667969 C-61.31832399 327.62794055 -85.53786008 325.56099624 -107.46875 310.9609375 C-109.25254816 309.63565084 -110.98033313 308.23513905 -112.6875 306.8125 Z M38.3125 364.8125 C37.70921875 365.5240625 37.1059375 366.235625 36.484375 366.96875 C33.42029963 369.56990751 31.30249248 369.77009838 27.3125 369.8125 C23.91796875 368.4140625 23.91796875 368.4140625 20.5 366.4375 C11.21715754 361.42884274 4.30327071 360.85886497 -5.859375 363.73828125 C-10.17694251 365.37824129 -13.35735815 367.64662523 -16.6875 370.8125 C-17.24179687 371.3384375 -17.79609375 371.864375 -18.3671875 372.40625 C-24.77987603 379.16988168 -26.95614988 387.39639579 -28 396.46484375 C-28.89906877 399.53495925 -29.95258297 400.20591037 -32.6875 401.8125 C-34.61326786 402.73328322 -36.55198452 403.62726906 -38.5 404.5 C-46.61282276 408.51194402 -51.60770709 413.97743671 -54.96875 422.39453125 C-57.42254236 430.64940881 -57.48845895 439.18002619 -53.61328125 446.97265625 C-48.56645763 455.49016615 -41.31894362 462.17406817 -31.6875 464.8125 C-22.68024591 465.78266909 -15.50459039 465.06897465 -7.46875 460.80859375 C-3.70429127 459.46036766 -1.52099029 459.70800784 2.3125 460.8125 C4.34171962 462.67164052 5.88388939 464.31177088 7.5625 466.4375 C16.12359874 476.45909132 27.19224546 482.73985174 40.3125 484.8125 C55.47664012 485.73261119 69.07339064 483.43574256 81.08203125 473.52734375 C82.78287855 471.9958341 84.46495214 470.44302753 86.12109375 468.86328125 C91.35440791 463.96579473 91.35440791 463.96579473 95.4375 463.3125 C99.94934008 463.89467291 103.03426184 465.43980458 106.98046875 467.62109375 C113.9612441 471.18748652 122.9048525 470.7901151 130.39453125 469.12890625 C140.92396458 465.57982453 149.21670841 458.76786183 154.5625 449 C158.60172141 440.21173585 159.55869027 430.58300717 156.48828125 421.328125 C151.9267907 410.58247927 145.0526252 402.55313589 134.1875 397.9375 C130.88504419 396.65858718 127.71483002 395.64072132 124.25 394.9375 C121.3125 393.8125 121.3125 393.8125 119.625 390.875 C119.15748692 389.53089988 118.72343998 388.17496172 118.3125 386.8125 C114.3876322 374.15480134 107.77894848 363.89471818 96.3125 356.8125 C75.30774877 346.99559412 55.80963753 349.81495355 38.3125 364.8125 Z " fill="#000000" transform="translate(332.6875,2.1875)"/>
<path d="M0 0 C0.66460236 0.10778526 1.32920471 0.21557053 2.01394653 0.32662201 C4.27170245 0.69542094 6.52740541 1.07547263 8.78320312 1.45605469 C10.41812776 1.72693262 12.05309828 1.99753364 13.68811035 2.2678833 C35.41793332 5.88188604 57.1079026 9.73562161 78.79638672 13.58837891 C84.9358186 14.67877714 91.07656933 15.761559 97.21764374 16.84266281 C101.99486253 17.68484561 106.77120897 18.5318938 111.5473175 19.38034821 C113.81481861 19.78236967 116.08262802 20.18265641 118.35075378 20.58113861 C121.48867347 21.13297352 124.6253128 21.691588 127.76171875 22.25195312 C128.68614273 22.41300034 129.61056671 22.57404755 130.56300354 22.73997498 C142.44291056 24.88223032 142.44291056 24.88223032 145.56445312 29.12792969 C146.40987464 33.26364036 146.18638726 36.96887061 144.18945312 40.69042969 C136.74647086 44.76634855 125.92176101 41.3787093 118.04003906 39.95654297 C116.70854098 39.72261796 115.37691255 39.48943386 114.04516602 39.25692749 C110.45727848 38.62826571 106.87135374 37.98901801 103.28574657 37.3474946 C99.52061486 36.67548176 95.75388541 36.01253867 91.98736572 35.34835815 C85.66858767 34.23272409 79.35101656 33.11045709 73.03417969 31.98388672 C65.74073552 30.68319948 58.44570754 29.39172674 51.14970946 28.10544789 C44.11271666 26.86472769 37.07665741 25.61879637 30.04108429 24.37005234 C27.0542554 23.83993402 24.06715358 23.31139453 21.07982635 22.78409195 C17.56270026 22.16293379 14.04643066 21.53713104 10.53076172 20.90777969 C8.63124894 20.5688055 6.7309491 20.23425104 4.83062744 19.89984131 C3.6925061 19.69515228 2.55438477 19.49046326 1.3817749 19.27957153 C0.39738308 19.10443087 -0.58700874 18.9292902 -1.60123062 18.74884224 C-5.95173255 17.79577949 -9.48208977 16.95914871 -12.87304688 14.00292969 C-14.74144479 10.56507753 -14.74905602 8.70163741 -14.05273438 4.92871094 C-13.15255871 2.30224902 -11.88298276 1.35164763 -9.43554688 0.12792969 C-5.7886843 -1.08769117 -3.78918907 -0.62412225 0 0 Z " fill="#000000" transform="translate(110.435546875,67.8720703125)"/>
<path d="M0 0 C6.35678112 4.9883074 10.32850712 10.70693922 12.75 18.375 C13.75688401 28.94728206 12.66194384 37.62412834 5.8828125 46.140625 C-1.23540229 53.17023131 -9.04482016 55.34037966 -18.73608398 55.38500977 C-27.03051641 55.21238405 -32.7942739 52.26896649 -38.875 46.6875 C-45.12143417 39.92544037 -47.33945802 32.4705339 -47.21875 23.40234375 C-46.44210631 14.87313184 -42.42341151 8.09931823 -36.25 2.3125 C-26.10892074 -6.08267917 -11.33571801 -7.00610349 0 0 Z M-27 18 C-29.52481154 21.48664451 -29.43474022 24.79751118 -29 29 C-27.08831748 32.97629964 -25.51303163 34.68428823 -21.75 37 C-17.21854245 38.20838868 -14.21742601 38.0537031 -10 36 C-6.80129078 32.7192726 -5.1264378 30.31495308 -4.6875 25.75 C-5.0550386 21.33953679 -6.23280746 19.39969369 -9 16 C-14.87173006 12.08551329 -22.23122086 12.63512346 -27 18 Z " fill="#000000" transform="translate(487,264)"/>
<path d="M0 0 C1.49685081 0.25874657 1.49685081 0.25874657 3.02394104 0.52272034 C6.29544626 1.08913264 9.56621495 1.65966546 12.83691406 2.23071289 C15.12134361 2.6281409 17.40578802 3.02548354 19.69024658 3.42274475 C24.46490483 4.25381781 29.23916073 5.0871602 34.01318359 5.921875 C40.13100663 6.99117639 46.25011937 8.0528933 52.36959457 9.11269283 C57.08167561 9.92994483 61.79288108 10.7521572 66.50385284 11.57577705 C68.76019054 11.96944845 71.01683768 12.36135057 73.27379608 12.75144768 C76.42434743 13.29656396 79.57361516 13.84857915 82.72265625 14.40234375 C83.65366653 14.56189545 84.58467682 14.72144714 85.54389954 14.88583374 C95.12893782 16.58735401 95.12893782 16.58735401 99.35253906 19.45336914 C101.33857666 22.33312365 101.48344854 24.81224392 101.60253906 28.26586914 C100.60253906 31.07836914 100.60253906 31.07836914 98.60253906 33.26586914 C92.27815657 35.92401878 87.13217694 34.94114882 80.51416016 33.73632812 C79.41901596 33.54958023 78.32387177 33.36283234 77.19554138 33.17042542 C73.58603741 32.55025592 69.98109782 31.90708663 66.37597656 31.26196289 C63.86461088 30.82188114 61.35310347 30.3826074 58.84146118 29.94410706 C53.58249186 29.02203876 48.32573552 28.08847666 43.0703125 27.14648438 C37.00331866 26.05929057 30.93217452 24.99818487 24.85833108 23.9499945 C19.00266473 22.93847535 13.15109362 21.90463698 7.30092239 20.86177254 C4.81649541 20.42150931 2.33096929 19.98740255 -0.1556282 19.55956841 C-3.63010407 18.95919615 -7.09909924 18.33355516 -10.56787109 17.70117188 C-11.59553085 17.52899139 -12.62319061 17.35681091 -13.68199158 17.17941284 C-19.32225421 16.11960252 -22.86393202 15.14609427 -26.39746094 10.26586914 C-27.08323702 5.99881795 -26.89769208 4.05933923 -24.58496094 0.39086914 C-18.54418176 -5.47731634 -7.49035447 -1.31134842 0 0 Z " fill="#000000" transform="translate(138.3974609375,158.734130859375)"/>
<path d="M0 0 C1.87552919 0.32966583 3.75115665 0.65877307 5.62687683 0.98735046 C9.53873729 1.67483086 13.44932669 2.36903816 17.35913086 3.06811523 C22.36127311 3.96193798 27.36622459 4.83873487 32.37224293 5.71055317 C36.23824525 6.38576623 40.10261692 7.06995812 43.96655846 7.75685692 C45.81159464 8.08374247 47.65712473 8.40785326 49.50315285 8.72908974 C52.08170289 9.17918111 54.65780791 9.64134339 57.23364258 10.10668945 C57.9896022 10.2361647 58.74556183 10.36563995 59.52442932 10.4990387 C63.96685782 11.31736415 67.67182319 12.47664038 71.54296875 14.82421875 C74.04328529 18.57469357 74.07900429 20.38278141 73.54296875 24.82421875 C71.60546875 27.76171875 71.60546875 27.76171875 68.54296875 29.82421875 C62.62327711 30.57502346 56.63420397 29.53885519 50.8137207 28.47900391 C49.99299072 28.33591293 49.17226074 28.19282196 48.32666016 28.0453949 C45.64346844 27.57554957 42.96238613 27.09470651 40.28125 26.61328125 C38.40286163 26.28122686 36.5243758 25.94972337 34.64579773 25.6187439 C30.72222144 24.92577168 26.79962076 24.22758986 22.87768555 23.52539062 C17.85903561 22.62705575 12.83853806 21.73960107 7.81731892 20.85575294 C3.94332409 20.17299472 0.07016305 19.48560323 -3.80274391 18.79670334 C-5.65364755 18.46782409 -7.50475973 18.14011618 -9.35608482 17.81361771 C-11.94354481 17.35634865 -14.52986789 16.8931194 -17.1159668 16.42822266 C-17.87506851 16.29515213 -18.63417023 16.1620816 -19.41627502 16.02497864 C-29.31390327 14.22833708 -29.31390327 14.22833708 -33.26953125 11.63671875 C-35.1683172 8.73857177 -35.33891964 6.24945554 -35.45703125 2.82421875 C-30.03475802 -9.05314165 -10.25089557 -1.83431436 0 0 Z " fill="#000000" transform="translate(174.45703125,122.17578125)"/>
<path d="M0 0 C7.98977619 0.64433679 15.06501671 3.24804781 20.4375 9.34375 C25.67508845 16.51696896 27.03625691 23.50336928 25.875 32.3125 C23.49493162 40.75092425 18.40384639 45.9457691 10.875 50.3125 C2.63005838 53.31066059 -4.21764901 52.81132787 -12.125 49.3125 C-18.10827203 45.99760273 -21.42277611 41.88717016 -24.375 35.6875 C-26.30600958 26.99795689 -25.92520296 18.94560962 -21.125 11.3125 C-17.11169697 6.40735185 -11.64257489 2.42782862 -5.5625 0.5 C-3.70634126 0.35721856 -1.85240326 0.18524033 0 0 Z M-5.0625 20.375 C-7.29647653 23.14485609 -7.29647653 23.14485609 -7.75 26.3125 C-6.89314736 30.42539267 -5.54764067 31.90936932 -2.125 34.3125 C1.72710127 34.37891554 3.87348005 34.18479157 6.8125 31.625 C8.19931433 28.6066394 8.2862874 26.60279921 7.875 23.3125 C6.9535608 20.88945632 6.9535608 20.88945632 4.875 19.3125 C0.46032806 17.92269587 -1.21887555 17.67628496 -5.0625 20.375 Z " fill="#000000" transform="translate(415.125,208.6875)"/>
<path d="M0 0 C6.36332741 5.00855448 10.52569983 11.69737281 12.00390625 19.6796875 C11.8663833 23.18652261 11.37362727 25.09429588 9.50390625 28.0546875 C5.76775402 30.48318645 2.33027269 30.58334629 -1.99609375 29.6796875 C-4.99530042 27.08577903 -6.30644763 24.06345454 -7.99609375 20.5546875 C-10.0799781 16.24919337 -10.0799781 16.24919337 -13.99609375 13.6796875 C-18.82006172 12.9510193 -22.06274587 13.1611609 -26.37109375 15.5546875 C-27.23734375 16.2559375 -28.10359375 16.9571875 -28.99609375 17.6796875 C-32.68450235 20.13862656 -35.71348914 20.3617959 -39.99609375 19.6796875 C-43.29900187 17.56243871 -43.88135417 16.06693359 -44.99609375 12.3046875 C-44.99609375 7.62569653 -44.10948342 6.1637188 -40.99609375 2.6796875 C-28.87836425 -7.10321936 -13.24204033 -8.75892296 0 0 Z " fill="#000000" transform="translate(423.99609375,374.3203125)"/>
<path d="M0 0 C4.33078405 1.16172492 7.09231167 4.44367731 10.140625 7.57421875 C10.88183594 8.29222656 11.62304688 9.01023437 12.38671875 9.75 C19.00584366 16.20394175 19.00584366 16.20394175 19.515625 21.38671875 C19.44819447 24.74598531 19.10079242 25.63717993 17.203125 28.63671875 C13.46109563 31.00412508 11.75990662 30.87532525 7.50512695 30.28930664 C3.21089648 28.99061784 0.65563646 26.00785013 -2.296875 22.76171875 C-2.90724609 22.13201172 -3.51761719 21.50230469 -4.14648438 20.85351562 C-6.92397035 17.93516487 -9.33522636 15.35489915 -10.859375 11.57421875 C-10.72408018 7.78596372 -10.35178479 5.34237802 -8.296875 2.13671875 C-5.51402408 0.35283996 -3.31297507 -0.17791903 0 0 Z " fill="#000000" transform="translate(89.859375,259.42578125)"/>
<path d="M0 0 C3.05917852 1.95645138 5.47459763 4.40647502 8 7 C8.74121094 7.71800781 9.48242188 8.43601562 10.24609375 9.17578125 C16.83992498 15.60506054 16.83992498 15.60506054 17.4375 20.8125 C17.38324023 24.52929458 17.01633253 24.98048064 14.4375 28.0625 C11 30 11 30 7.625 30.25 C2.64877079 28.53405889 -0.30425273 25.65951445 -4 22 C-4.65742187 21.37996094 -5.31484375 20.75992187 -5.9921875 20.12109375 C-12.85435144 13.52943005 -12.85435144 13.52943005 -13.1171875 8.96484375 C-12.73227852 5.74278311 -12.46585168 3.59629015 -10.4375 1 C-6.8263663 -0.48149075 -3.76494006 -0.94810534 0 0 Z " fill="#000000" transform="translate(130,298)"/>
<path d="M0 0 C2.9375 1.4375 2.9375 1.4375 5 4 C5.78018735 7.13229887 5.72319003 9.85824202 5 13 C2.79920997 16.30537183 0.05757359 18.84313845 -2.875 21.5 C-3.62136719 22.21414063 -4.36773437 22.92828125 -5.13671875 23.6640625 C-11.66217398 29.848548 -11.66217398 29.848548 -16.3125 30.375 C-20 30 -20 30 -22.9375 27.9375 C-25 25 -25 25 -25.75 21.6875 C-24.66534249 16.35460059 -21.7894395 13.75499005 -18 10 C-17.20851563 9.18402344 -16.41703125 8.36804688 -15.6015625 7.52734375 C-7.59861511 -0.64395043 -7.59861511 -0.64395043 0 0 Z " fill="#000000" transform="translate(142,260)"/>
<path d="M0 0 C3.13071372 0.95005365 4.2973495 1.69310127 5.91796875 4.58203125 C6.59999289 7.72077898 6.61248256 10.44247831 5.91796875 13.58203125 C3.71980475 16.88892951 0.97531176 19.42537861 -1.95703125 22.08203125 C-2.70339844 22.79617188 -3.44976562 23.5103125 -4.21875 24.24609375 C-10.74755754 30.43375639 -10.74755754 30.43375639 -14.89453125 30.89453125 C-18.81279575 30.51038767 -20.29496392 29.28946808 -23.08203125 26.58203125 C-24.59092594 23.56424188 -24.58229401 21.95880488 -24.08203125 18.58203125 C-22.08978836 15.58724033 -19.59174319 13.14552273 -17.08203125 10.58203125 C-16.29828125 9.6796875 -15.51453125 8.77734375 -14.70703125 7.84765625 C-6.79745132 -0.90231655 -6.79745132 -0.90231655 0 0 Z " fill="#000000" transform="translate(103.08203125,297.41796875)"/>
<path d="M0 0 C2.58455285 1.89533875 2.96275506 2.88826517 4 6 C4.28095068 9.62019489 4.27746241 13.24510534 4.3125 16.875 C4.34150391 17.86886719 4.37050781 18.86273438 4.40039062 19.88671875 C4.46430728 27.23221765 4.46430728 27.23221765 2.10546875 31.1328125 C-0.41266051 33.36595867 -1.45816607 33.93979623 -4.8125 34.3125 C-8.7307645 33.92835642 -10.21293267 32.70743683 -13 30 C-14.98683397 26.02633205 -14.27256128 21.05679562 -14.3125 16.6875 C-14.34150391 15.64142578 -14.37050781 14.59535156 -14.40039062 13.51757812 C-14.46423068 5.80275284 -14.46423068 5.80275284 -12.16796875 1.83203125 C-8.10728338 -1.5994308 -4.99580906 -1.07053051 0 0 Z " fill="#000000" transform="translate(68,210)"/>
<path d="M0 0 C2.69990662 1.79993774 4.5418865 3.083773 6 6 C6.26752525 9.59821462 6.23158496 13.2054541 6.25 16.8125 C6.270625 17.81087891 6.29125 18.80925781 6.3125 19.83789062 C6.36257708 29.23360304 6.36257708 29.23360304 3 33 C-1.10460518 34.85868914 -3.03380718 35.34637101 -7.3125 33.8125 C-10 32 -10 32 -12 29 C-12.46241172 25.22376714 -12.37032982 21.42652457 -12.375 17.625 C-12.39949219 16.5834375 -12.42398438 15.541875 -12.44921875 14.46875 C-12.47864716 6.79774526 -12.47864716 6.79774526 -10.1015625 2.8359375 C-6.68911432 -0.14519753 -4.50814395 -0.4419749 0 0 Z " fill="#000000" transform="translate(66,159)"/>
<path d="M0 0 C1.13695313 -0.02835938 2.27390625 -0.05671875 3.4453125 -0.0859375 C11.77404317 -0.10548851 11.77404317 -0.10548851 15.875 2.8125 C18.20153651 6.38539536 18.37244966 8.31428188 17.625 12.5 C15.87109375 15.18359375 15.87109375 15.18359375 12.625 17.5 C8.42630035 18.2234143 4.31236299 18.15199626 0.0625 18.0625 C-1.07380859 18.07345703 -2.21011719 18.08441406 -3.38085938 18.09570312 C-11.73757629 18.02174988 -11.73757629 18.02174988 -14.67553711 15.61694336 C-16.6796903 13.1204612 -17.21936147 11.69058982 -17.375 8.5 C-14.66275839 -0.99284564 -8.66659681 -0.01951936 0 0 Z " fill="#000000" transform="translate(37.375,192.5)"/>
<path d="M0 0 C1.70446289 -0.01643555 1.70446289 -0.01643555 3.44335938 -0.03320312 C11.79874662 0.04073836 11.79874662 0.04073836 14.75952148 2.45922852 C16.69190053 4.88137976 16.9794291 6.00167576 16.9375 9.0625 C16.9478125 9.8153125 16.958125 10.568125 16.96875 11.34375 C16.22776891 14.43843575 14.88595739 15.56249312 12.4375 17.5625 C8.33111524 18.3830259 4.17923603 18.16529893 0 18.125 C-1.13244141 18.14884766 -2.26488281 18.17269531 -3.43164062 18.19726562 C-11.69343907 18.18266021 -11.69343907 18.18266021 -15.80859375 15.24609375 C-18.14176784 11.6761815 -18.31006964 9.74888998 -17.5625 5.5625 C-13.20975987 -1.09748322 -7.18855672 -0.1513811 0 0 Z " fill="#000000" transform="translate(88.5625,192.4375)"/>
</svg>
