<?xml version="1.0" encoding="UTF-8"?>
<svg version="1.1" xmlns="http://www.w3.org/2000/svg" width="512" height="512">
<path d="M0 0 C21.55585762 19.26268127 34.51335093 47.10645146 36.16845703 75.93408203 C37.80875321 119.52203627 22.47300308 159.08555503 -6.97802734 191.15380859 C-20.89963392 205.99715786 -35.91771498 217.69294154 -54 227 C-54.66580078 227.35046387 -55.33160156 227.70092773 -56.01757812 228.06201172 C-87.76045892 244.62849594 -125.75191827 249.13132353 -160.1875 238.8125 C-187.41913585 230.03226976 -209.42283228 211.04018458 -223 186 C-236.19569149 159.92439059 -238.25340378 129.28837809 -232 101 C-231.73388916 99.78376953 -231.73388916 99.78376953 -231.46240234 98.54296875 C-226.94379811 78.82821033 -218.28497733 59.13442864 -206 43 C-205.24074219 41.94941406 -204.48148438 40.89882812 -203.69921875 39.81640625 C-179.17989759 6.60699481 -143.49526391 -16.77980754 -103 -25 C-101.9378125 -25.22429688 -100.875625 -25.44859375 -99.78125 -25.6796875 C-64.39410461 -31.94973996 -27.2712235 -23.68660392 0 0 Z M-105 -8 C-104.15356901 -6.95203782 -103.29723808 -5.91207308 -102.4375 -4.875 C-101.96183594 -4.29492188 -101.48617187 -3.71484375 -100.99609375 -3.1171875 C-98.20864721 -0.16063951 -95.11768819 2.39985777 -92 5 C-89.49599357 2.5248518 -86.99748094 0.04423106 -84.5 -2.4375 C-83.78457031 -3.14455078 -83.06914062 -3.85160156 -82.33203125 -4.58007812 C-81.65527344 -5.25361328 -80.97851562 -5.92714844 -80.28125 -6.62109375 C-79.33862305 -7.55586548 -79.33862305 -7.55586548 -78.37695312 -8.50952148 C-76.88690335 -9.7842263 -76.88690335 -9.7842263 -77 -11 C-86.61700032 -11.56081859 -95.61653547 -9.84809149 -105 -8 Z M-69.1875 3.375 C-70.33870989 4.59147049 -71.4929828 5.80505003 -72.65039062 7.015625 C-75.47013923 9.97813751 -78.24513873 12.97710675 -81 16 C-75.33425951 22.92810724 -68.96966361 29.14204142 -62.625 35.4375 C-61.49586045 36.56161467 -60.36695222 37.68596174 -59.23828125 38.81054688 C-56.49484812 41.54305235 -53.74830015 44.27239009 -51 47 C-47.90820864 45.6238464 -45.80361247 44.04841555 -43.42480469 41.65185547 C-42.74440125 40.97130096 -42.0639978 40.29074646 -41.36297607 39.58956909 C-40.63991272 38.85618317 -39.91684937 38.12279724 -39.171875 37.3671875 C-38.42286926 36.61535187 -37.67386353 35.86351624 -36.90216064 35.08889771 C-34.5133698 32.68892099 -32.13163103 30.28207991 -29.75 27.875 C-28.13066831 26.24563648 -26.51088198 24.61672466 -24.890625 22.98828125 C-20.92179495 18.99741194 -16.95873101 15.00088585 -13 11 C-21.32356023 2.37824193 -33.56925045 -3.72090249 -45 -7 C-45.7835083 -7.33193359 -46.5670166 -7.66386719 -47.37426758 -8.00585938 C-57.64209539 -11.42505442 -62.87404595 -3.57191406 -69.1875 3.375 Z M-169 26 C-163.75541414 32.36590304 -157.97902678 38.13570612 -152.125 43.9375 C-151.14039081 44.91708237 -150.156014 45.89689837 -149.171875 46.87695312 C-146.78351797 49.25360252 -144.39284788 51.62787356 -142 54 C-136.93288701 49.75789864 -132.18776629 45.32282911 -127.53515625 40.6328125 C-126.85698349 39.95322479 -126.17881073 39.27363708 -125.48008728 38.57345581 C-123.33850859 36.42632998 -121.20045471 34.27573373 -119.0625 32.125 C-117.60114411 30.65862227 -116.13955774 29.1924742 -114.67773438 27.7265625 C-111.11582065 24.15369 -107.55706135 20.57770316 -104 17 C-104.93343088 15.90129332 -105.86828427 14.80379509 -106.80371094 13.70678711 C-107.32414978 13.09548447 -107.84458862 12.48418182 -108.38079834 11.85435486 C-110.8924256 8.97796934 -113.55242302 6.26346589 -116.25 3.5625 C-116.77851563 3.02173828 -117.30703125 2.48097656 -117.8515625 1.92382812 C-119.19490127 0.57537512 -120.59341891 -0.71765287 -122 -2 C-137.54817626 -2 -157.8046678 16.36410077 -169 26 Z M-2 22 C-13.88 33.88 -25.76 45.76 -38 58 C-36.4011444 61.19771119 -35.58401307 62.66449155 -33.20263672 65.02441406 C-32.64220673 65.58469299 -32.08177673 66.14497192 -31.50436401 66.722229 C-30.60114914 67.60996002 -30.60114914 67.60996002 -29.6796875 68.515625 C-29.06102814 69.13145447 -28.44236877 69.74728394 -27.80496216 70.3817749 C-25.83296186 72.34260336 -23.85411263 74.29635301 -21.875 76.25 C-20.53469836 77.58026799 -19.19484917 78.910992 -17.85546875 80.2421875 C-14.57553411 83.5001015 -11.28944058 86.75168533 -8 90 C-2.20036698 85.05091121 3.50979898 80.03930886 9.0625 74.8125 C9.95388672 74.02552734 10.84527344 73.23855469 11.76367188 72.42773438 C16.45641947 68.10705594 16.45641947 68.10705594 18.21875 62.23168945 C17.74077803 59.33448643 16.99828134 56.75929163 16 54 C15.75999268 53.25097412 15.51998535 52.50194824 15.27270508 51.73022461 C14.55517615 49.6303363 13.74446214 47.60382459 12.875 45.5625 C12.57368164 44.84239746 12.27236328 44.12229492 11.96191406 43.38037109 C8.51823465 35.45144904 4.14264706 28.14264706 -2 22 Z M-94.5249176 29.40466309 C-95.50753822 30.39061462 -95.50753822 30.39061462 -96.51000977 31.39648438 C-97.25070206 32.1372522 -97.99139435 32.87802002 -98.75453186 33.64123535 C-99.55870041 34.45056519 -100.36286896 35.25989502 -101.19140625 36.09375 C-102.01124496 36.91500366 -102.83108368 37.73625732 -103.67576599 38.58239746 C-106.30702087 41.21927291 -108.93478718 43.85959523 -111.5625 46.5 C-113.34026696 48.28277931 -115.11825874 50.06533445 -116.89648438 51.84765625 C-121.26693998 56.22916813 -125.63453239 60.61351868 -130 65 C-126.22875755 69.50454825 -122.3393403 73.80193876 -118.1640625 77.93359375 C-117.37773941 78.71779442 -117.37773941 78.71779442 -116.57553101 79.51783752 C-114.9277213 81.16012345 -113.27644099 82.7988665 -111.625 84.4375 C-110.49586045 85.56161467 -109.36695222 86.68596174 -108.23828125 87.81054688 C-105.49484812 90.54305235 -102.74830015 93.27239009 -100 96 C-96.90820864 94.6238464 -94.80361247 93.04841555 -92.42480469 90.65185547 C-91.74440125 89.97130096 -91.0639978 89.29074646 -90.36297607 88.58956909 C-89.63991272 87.85618317 -88.91684937 87.12279724 -88.171875 86.3671875 C-87.42286926 85.61535187 -86.67386353 84.86351624 -85.90216064 84.08889771 C-83.5133698 81.68892099 -81.13163103 79.28207991 -78.75 76.875 C-77.13066831 75.24563648 -75.51088198 73.61672466 -73.890625 71.98828125 C-69.92179495 67.99741194 -65.95873101 64.00088585 -62 60 C-63.27824002 57.19803781 -64.60341791 55.14732736 -66.78149414 52.97558594 C-67.33869644 52.41530701 -67.89589874 51.85502808 -68.46998596 51.277771 C-69.06899216 50.68595032 -69.66799835 50.09412964 -70.28515625 49.484375 C-70.90144394 48.86854553 -71.51773163 48.25271606 -72.1526947 47.6182251 C-73.45237647 46.32155812 -74.75448154 45.02731613 -76.05883789 43.73535156 C-78.06392219 41.74859081 -80.06082194 39.75387665 -82.05664062 37.7578125 C-83.31984024 36.49952572 -84.5834963 35.24169696 -85.84765625 33.984375 C-86.74920189 33.0844986 -86.74920189 33.0844986 -87.66896057 32.16644287 C-90.80091637 28.08491332 -90.80091637 28.08491332 -94.5249176 29.40466309 Z M-182.49609375 39.44140625 C-191.19117268 48.9412611 -197.93393117 59.67965055 -204 71 C-204.37374756 71.69351563 -204.74749512 72.38703125 -205.13256836 73.1015625 C-205.4806958 73.76929688 -205.82882324 74.43703125 -206.1875 75.125 C-206.49042969 75.70507812 -206.79335937 76.28515625 -207.10546875 76.8828125 C-208.3464393 79.81995677 -209.1240391 82.93413685 -210 86 C-204.06 91.94 -198.12 97.88 -192 104 C-186.48163344 99.3120314 -186.48163344 99.3120314 -181.26782227 94.38134766 C-180.62768692 93.74113678 -179.98755157 93.1009259 -179.32801819 92.4413147 C-178.66418625 91.77232147 -178.00035431 91.10332825 -177.31640625 90.4140625 C-176.26585304 89.36138687 -176.26585304 89.36138687 -175.19407654 88.28744507 C-172.98116973 86.06898864 -170.77178584 83.84706185 -168.5625 81.625 C-167.05296686 80.11044534 -165.54320343 78.59612015 -164.03320312 77.08203125 C-160.35280298 73.39066901 -156.67528043 69.69645931 -153 66 C-156.57288726 61.75120145 -160.21877622 57.65367016 -164.14453125 53.72265625 C-165.52995117 52.33530273 -165.52995117 52.33530273 -166.94335938 50.91992188 C-167.41410889 50.45126709 -167.8848584 49.9826123 -168.36987305 49.49975586 C-169.83046259 48.04460429 -171.28553203 46.58408143 -172.74023438 45.12304688 C-173.65740234 44.20716797 -174.57457031 43.29128906 -175.51953125 42.34765625 C-176.35589111 41.51242432 -177.19225098 40.67719238 -178.05395508 39.81665039 C-180.33090962 37.45735567 -180.33090962 37.45735567 -182.49609375 39.44140625 Z M-52.60720825 72.36669922 C-53.55985062 73.32600342 -53.55985062 73.32600342 -54.53173828 74.3046875 C-55.25233429 75.02543457 -55.9729303 75.74618164 -56.71536255 76.48876953 C-57.88106277 77.66995361 -57.88106277 77.66995361 -59.0703125 78.875 C-59.86654022 79.67405762 -60.66276794 80.47311523 -61.48312378 81.29638672 C-64.03512752 83.85962119 -66.5801053 86.42970906 -69.125 89 C-70.84980342 90.73482947 -72.57505799 92.46921053 -74.30078125 94.203125 C-78.53911048 98.46355296 -82.77168542 102.72963398 -87 107 C-85.71977125 109.80969467 -84.39285871 111.8539238 -82.20263672 114.02441406 C-81.64220673 114.58469299 -81.08177673 115.14497192 -80.50436401 115.722229 C-79.60114914 116.60996002 -79.60114914 116.60996002 -78.6796875 117.515625 C-78.06102814 118.13145447 -77.44236877 118.74728394 -76.80496216 119.3817749 C-74.83296186 121.34260336 -72.85411263 123.29635301 -70.875 125.25 C-69.53469836 126.58026799 -68.19484917 127.910992 -66.85546875 129.2421875 C-63.57553411 132.5001015 -60.28944058 135.75168533 -57 139 C-51.93288701 134.75789864 -47.18776629 130.32282911 -42.53515625 125.6328125 C-41.85698349 124.95322479 -41.17881073 124.27363708 -40.48008728 123.57345581 C-38.33850859 121.42632998 -36.20045471 119.27573373 -34.0625 117.125 C-32.60114411 115.65862227 -31.13955774 114.1924742 -29.67773438 112.7265625 C-26.11582065 109.15369 -22.55706135 105.57770316 -19 102 C-22.76243175 97.51598545 -26.63170073 93.20976267 -30.765625 89.06640625 C-31.28509705 88.5436058 -31.80456909 88.02080536 -32.33978271 87.48216248 C-33.42411522 86.39281879 -34.50975759 85.30477744 -35.59667969 84.21801758 C-37.26526993 82.54720977 -38.92566148 80.86851828 -40.5859375 79.18945312 C-41.64534488 78.12711683 -42.70522342 77.06525015 -43.765625 76.00390625 C-44.50936371 75.24938927 -44.50936371 75.24938927 -45.26812744 74.47962952 C-48.59882664 70.71786727 -48.59882664 70.71786727 -52.60720825 72.36669922 Z M-143.56288147 78.44262695 C-144.23572678 79.11769287 -144.90857208 79.79275879 -145.60180664 80.48828125 C-146.36251968 81.24906982 -147.12323273 82.0098584 -147.90699768 82.79370117 C-148.73304001 83.62490479 -149.55908234 84.4561084 -150.41015625 85.3125 C-151.25219101 86.15594971 -152.09422577 86.99939941 -152.96177673 87.8684082 C-155.66436106 90.57661323 -158.36345742 93.28826562 -161.0625 96 C-162.88844406 97.83095639 -164.71461292 99.66168862 -166.54101562 101.4921875 C-171.02996053 105.99218886 -175.51604261 110.49502919 -180 115 C-176.22875755 119.50454825 -172.3393403 123.80193876 -168.1640625 127.93359375 C-167.37773941 128.71779442 -167.37773941 128.71779442 -166.57553101 129.51783752 C-164.9277213 131.16012345 -163.27644099 132.7988665 -161.625 134.4375 C-160.49586045 135.56161467 -159.36695222 136.68596174 -158.23828125 137.81054688 C-155.49484812 140.54305235 -152.74830015 143.27239009 -150 146 C-146.86261846 144.60919475 -144.74524719 142.98977796 -142.33300781 140.56005859 C-141.28237152 139.50919571 -141.28237152 139.50919571 -140.21051025 138.43710327 C-139.09310455 137.30421371 -139.09310455 137.30421371 -137.953125 136.1484375 C-137.18192322 135.37440582 -136.41072144 134.60037415 -135.6161499 133.80288696 C-133.15603144 131.33158077 -130.70296152 128.85340817 -128.25 126.375 C-126.58249106 124.69745948 -124.91452768 123.02037055 -123.24609375 121.34375 C-119.1587763 117.23439081 -115.07722304 113.11937353 -111 109 C-112.27824002 106.19803781 -113.60341791 104.14732736 -115.78149414 101.97558594 C-116.33869644 101.41530701 -116.89589874 100.85502808 -117.46998596 100.277771 C-118.06899216 99.68595032 -118.66799835 99.09412964 -119.28515625 98.484375 C-119.90144394 97.86854553 -120.51773163 97.25271606 -121.1526947 96.6182251 C-122.45237647 95.32155812 -123.75448154 94.02731613 -125.05883789 92.73535156 C-127.06392219 90.74859081 -129.06082194 88.75387665 -131.05664062 86.7578125 C-132.31984024 85.49952572 -133.5834963 84.24169696 -134.84765625 82.984375 C-135.74920189 82.0844986 -135.74920189 82.0844986 -136.66896057 81.16644287 C-139.82511157 77.06193904 -139.82511157 77.06193904 -143.56288147 78.44262695 Z M17.50952148 87.37695312 C16.88634033 88.00537109 16.26315918 88.63378906 15.62109375 89.28125 C14.94755859 89.95800781 14.27402344 90.63476562 13.58007812 91.33203125 C12.87302734 92.04746094 12.16597656 92.76289063 11.4375 93.5 C10.72658203 94.21542969 10.01566406 94.93085938 9.28320312 95.66796875 C7.51989403 97.44311213 5.7589516 99.22054045 4 101 C8.60912364 106.53745973 8.60912364 106.53745973 13.875 111.4375 C14.47054687 111.93121094 15.06609375 112.42492187 15.6796875 112.93359375 C16.33324219 113.46146484 16.33324219 113.46146484 17 114 C18.84809149 104.61653547 20.56081859 95.61700032 20 86 C18.7842263 85.88690335 18.7842263 85.88690335 17.50952148 87.37695312 Z M-216 103 C-218.58984119 116.90163281 -218.58984119 116.90163281 -219 131 C-213.33870569 126.30233025 -208.14771096 121.25276628 -203 116 C-206.94628584 111.1141223 -211.1408507 106.97103266 -216 103 Z M-9.5249176 114.40466309 C-10.50753822 115.39061462 -10.50753822 115.39061462 -11.51000977 116.39648438 C-12.25070206 117.1372522 -12.99139435 117.87802002 -13.75453186 118.64123535 C-14.55870041 119.45056519 -15.36286896 120.25989502 -16.19140625 121.09375 C-17.01124496 121.91500366 -17.83108368 122.73625732 -18.67576599 123.58239746 C-21.30702087 126.21927291 -23.93478718 128.85959523 -26.5625 131.5 C-28.34026696 133.28277931 -30.11825874 135.06533445 -31.89648438 136.84765625 C-36.26693998 141.22916813 -40.63453239 145.61351868 -45 150 C-41.42253118 154.25889835 -37.76872235 158.3533068 -33.8203125 162.27734375 C-32.8921875 163.20224609 -31.9640625 164.12714844 -31.0078125 165.08007812 C-30.04693091 166.03260849 -29.08599274 166.98508178 -28.125 167.9375 C-27.14039081 168.91708237 -26.156014 169.89689837 -25.171875 170.87695312 C-22.78351797 173.25360252 -20.39284788 175.62787356 -18 178 C-6.75693871 166.82383424 1.25567806 153.98465092 8.1875 139.8125 C8.66135132 138.87724487 8.66135132 138.87724487 9.14477539 137.9230957 C10.11375401 135.95743925 10.11375401 135.95743925 11 133 C9.80090204 129.68944693 7.81192433 127.56591173 5.33984375 125.109375 C4.62892578 124.40039062 3.91800781 123.69140625 3.18554688 122.9609375 C2.44369141 122.23132813 1.70183594 121.50171875 0.9375 120.75 C0.19177734 120.00492188 -0.55394531 119.25984375 -1.32226562 118.4921875 C-5.0331296 113.62790286 -5.0331296 113.62790286 -9.5249176 114.40466309 Z M-101.64517212 121.40466309 C-102.29803192 122.06196411 -102.95089172 122.71926514 -103.62353516 123.39648438 C-104.7344603 124.50763611 -104.7344603 124.50763611 -105.86782837 125.64123535 C-106.66683563 126.45056519 -107.4658429 127.25989502 -108.2890625 128.09375 C-109.10748627 128.91500366 -109.92591003 129.73625732 -110.76913452 130.58239746 C-113.39246672 133.21696093 -116.00877553 135.85837994 -118.625 138.5 C-120.39798058 140.28300655 -122.17141222 142.0655647 -123.9453125 143.84765625 C-128.30213014 148.22657335 -132.65319496 152.6111448 -137 157 C-135.71977125 159.80969467 -134.39285871 161.8539238 -132.20263672 164.02441406 C-131.64220673 164.58469299 -131.08177673 165.14497192 -130.50436401 165.722229 C-129.60114914 166.60996002 -129.60114914 166.60996002 -128.6796875 167.515625 C-128.06102814 168.13145447 -127.44236877 168.74728394 -126.80496216 169.3817749 C-124.83296186 171.34260336 -122.85411263 173.29635301 -120.875 175.25 C-119.53469836 176.58026799 -118.19484917 177.910992 -116.85546875 179.2421875 C-113.57553411 182.5001015 -110.28944058 185.75168533 -107 189 C-101.85170256 184.69372744 -97.04247928 180.17688069 -92.31640625 175.4140625 C-91.26585304 174.36138687 -91.26585304 174.36138687 -90.19407654 173.28744507 C-87.98116973 171.06898864 -85.77178584 168.84706185 -83.5625 166.625 C-82.05296686 165.11044534 -80.54320343 163.59612015 -79.03320312 162.08203125 C-75.35280298 158.39066901 -71.67528043 154.69645931 -68 151 C-71.76243175 146.51598545 -75.63170073 142.20976267 -79.765625 138.06640625 C-80.28509705 137.5436058 -80.80456909 137.02080536 -81.33978271 136.48216248 C-82.42411522 135.39281879 -83.50975759 134.30477744 -84.59667969 133.21801758 C-86.26526993 131.54720977 -87.92566148 129.86851828 -89.5859375 128.18945312 C-90.64534488 127.12711683 -91.70522342 126.06525015 -92.765625 125.00390625 C-93.50936371 124.24938927 -93.50936371 124.24938927 -94.26812744 123.47962952 C-97.62319954 119.70127842 -97.62319954 119.70127842 -101.64517212 121.40466309 Z M-202.86645508 137.13183594 C-204.07440446 138.2881248 -205.29381348 139.43256668 -206.5246582 140.56445312 C-213.69127201 146.65872093 -213.69127201 146.65872093 -217.3996582 154.82983398 C-216.90005315 157.45838448 -216.13389072 159.58292887 -215 162 C-214.65582031 163.10988281 -214.31164062 164.21976563 -213.95703125 165.36328125 C-209.99297042 175.57784072 -205.59971135 185.93970008 -198 194 C-194.95418514 192.63886987 -192.86160974 191.10669904 -190.51660156 188.74365234 C-189.85621887 188.08311859 -189.19583618 187.42258484 -188.51544189 186.74203491 C-187.81425232 186.03052277 -187.11306274 185.31901062 -186.390625 184.5859375 C-185.66381531 183.85629791 -184.93700562 183.12665833 -184.18817139 182.37490845 C-181.87070802 180.0462612 -179.5603005 177.71075174 -177.25 175.375 C-175.67884556 173.79381347 -174.10723629 172.21307875 -172.53515625 170.6328125 C-168.68481347 166.7604331 -164.84023883 162.88239829 -161 159 C-162.27824002 156.19803781 -163.60341791 154.14732736 -165.78149414 151.97558594 C-166.33869644 151.41530701 -166.89589874 150.85502808 -167.46998596 150.277771 C-168.06899216 149.68595032 -168.66799835 149.09412964 -169.28515625 148.484375 C-169.90144394 147.86854553 -170.51773163 147.25271606 -171.1526947 146.6182251 C-172.45237647 145.32155812 -173.75448154 144.02731613 -175.05883789 142.73535156 C-177.06392219 140.74859081 -179.06082194 138.75387665 -181.05664062 136.7578125 C-182.31984024 135.49952572 -183.5834963 134.24169696 -184.84765625 132.984375 C-185.44868668 132.3844574 -186.0497171 131.78453979 -186.66896057 131.16644287 C-193.68586113 124.23034148 -196.89424175 131.3619741 -202.86645508 137.13183594 Z M-58.56288147 163.44262695 C-59.23572678 164.11769287 -59.90857208 164.79275879 -60.60180664 165.48828125 C-61.36251968 166.24906982 -62.12323273 167.0098584 -62.90699768 167.79370117 C-63.73304001 168.62490479 -64.55908234 169.4561084 -65.41015625 170.3125 C-66.25219101 171.15594971 -67.09422577 171.99939941 -67.96177673 172.8684082 C-70.66436106 175.57661323 -73.36345742 178.28826562 -76.0625 181 C-77.88844406 182.83095639 -79.71461292 184.66168862 -81.54101562 186.4921875 C-86.02996053 190.99218886 -90.51604261 195.49502919 -95 200 C-90.54435584 205.29056004 -90.54435584 205.29056004 -85.7890625 210.30859375 C-85.26699219 210.82744141 -84.74492187 211.34628906 -84.20703125 211.88085938 C-83.68496094 212.39455078 -83.16289062 212.90824219 -82.625 213.4375 C-82.07972656 213.97826172 -81.53445313 214.51902344 -80.97265625 215.07617188 C-79.65076536 216.38646723 -78.32572382 217.69358284 -77 219 C-70.95409711 217.15329938 -65.38135323 214.92662993 -59.8125 211.9375 C-59.08490479 211.54900879 -58.35730957 211.16051758 -57.60766602 210.76025391 C-47.1820788 205.05952419 -37.72225523 198.06834795 -29 190 C-33.80809586 184.17371914 -39.01804955 178.82776498 -44.36987305 173.49975586 C-45.83046259 172.04460429 -47.28553203 170.58408143 -48.74023438 169.12304688 C-49.65740234 168.20716797 -50.57457031 167.29128906 -51.51953125 166.34765625 C-52.35589111 165.51242432 -53.19225098 164.67719238 -54.05395508 163.81665039 C-56.34140777 161.45729806 -56.34140777 161.45729806 -58.56288147 163.44262695 Z M-151.56924438 171.32873535 C-152.1865744 171.95050659 -152.80390442 172.57227783 -153.43994141 173.21289062 C-154.14051666 173.91361694 -154.84109192 174.61434326 -155.56289673 175.33630371 C-156.31815643 176.10188599 -157.07341614 176.86746826 -157.8515625 177.65625 C-158.62559418 178.43311157 -159.39962585 179.20997314 -160.19711304 180.01037598 C-162.6777884 182.50228149 -165.15143507 185.00103814 -167.625 187.5 C-169.30162627 189.18665239 -170.97870376 190.87285637 -172.65625 192.55859375 C-176.77609088 196.7005326 -180.89017592 200.84812314 -185 205 C-180.83479513 214.10544081 -167.79856268 218.43550662 -159 222 C-150.62659646 225.59680644 -150.62659646 225.59680644 -142 225 C-140.01135897 223.26624268 -138.19021062 221.53938987 -136.359375 219.65234375 C-135.56880707 218.85540855 -135.56880707 218.85540855 -134.76226807 218.04237366 C-133.08432813 216.34767175 -131.41713272 214.64282783 -129.75 212.9375 C-128.61267255 211.78512255 -127.47465934 210.63342148 -126.3359375 209.48242188 C-123.54928008 206.66272816 -120.77221208 203.83389412 -118 201 C-123.16285174 194.70890269 -128.84756391 188.96627528 -134.59667969 183.21801758 C-136.26526993 181.54720977 -137.92566148 179.86851828 -139.5859375 178.18945312 C-140.64534488 177.12711683 -141.70522342 176.06525015 -142.765625 175.00390625 C-143.50936371 174.24938927 -143.50936371 174.24938927 -144.26812744 173.47962952 C-147.57434172 169.73462417 -147.57434172 169.73462417 -151.56924438 171.32873535 Z M-107 212 C-109.50400643 214.4751482 -112.00251906 216.95576894 -114.5 219.4375 C-115.21542969 220.14455078 -115.93085938 220.85160156 -116.66796875 221.58007812 C-117.34472656 222.25361328 -118.02148438 222.92714844 -118.71875 223.62109375 C-119.34716797 224.2442749 -119.97558594 224.86745605 -120.62304688 225.50952148 C-122.11309665 226.7842263 -122.11309665 226.7842263 -122 228 C-112.42460227 228.4633257 -103.37866335 226.71635669 -94 225 C-94.3930835 224.52062988 -94.78616699 224.04125977 -95.19116211 223.54736328 C-96.12874349 222.40397135 -97.06632487 221.26057943 -98.00390625 220.1171875 C-100.79135279 217.16063951 -103.88231181 214.60014223 -107 212 Z " fill="#000000" transform="translate(426,77)"/>
<path d="M0 0 C1.15323761 -0.0146228 1.15323761 -0.0146228 2.32977295 -0.02954102 C25.39694215 -0.26190314 46.75995574 1.32605617 68.6171875 9.23828125 C69.83148438 9.66753906 71.04578125 10.09679688 72.296875 10.5390625 C90.77555573 17.47345115 106.91707527 27.77574045 121.36328125 41.1953125 C122.92823637 42.61380735 124.54699475 43.97426161 126.203125 45.28515625 C153.44618199 67.3264645 168.32003059 107.45780654 172.40577698 141.10083008 C172.74698438 144.55058349 172.81849231 147.98846166 172.85546875 151.453125 C172.86530792 152.21753403 172.87514709 152.98194305 172.88528442 153.76951599 C173.21641699 186.22153374 168.9732575 216.68185408 154.61572266 246.1796875 C153.63638038 248.19871295 152.69296314 250.2315146 151.75390625 252.26953125 C136.89031554 283.92261157 111.80733265 311.79286121 83.6171875 332.23828125 C83.07852051 332.63337891 82.53985352 333.02847656 81.98486328 333.43554688 C40.63820984 363.42997282 -12.57318317 377.70615377 -63.3203125 370.05078125 C-66.36235996 369.52966031 -69.37163424 368.91426004 -72.3828125 368.23828125 C-73.18170898 368.06135742 -73.98060547 367.88443359 -74.80371094 367.70214844 C-86.57619339 365.0154053 -97.68250736 361.23088703 -108.6640625 356.19140625 C-115.61997852 353.16957388 -123.34753438 352.86699102 -130.40258789 355.64672852 C-136.75133668 358.55319655 -141.37652731 363.35139349 -146.2890625 368.19921875 C-147.30501191 369.19142049 -148.3210869 370.18349368 -149.33728027 371.17544556 C-151.45423971 373.24916358 -153.56005148 375.33353968 -155.66015625 377.42431641 C-158.33474925 380.08264801 -161.04843623 382.69684728 -163.77402496 385.30272484 C-165.88453972 387.33459335 -167.96471513 389.39561094 -170.03800964 391.46538162 C-171.02564204 392.44168677 -172.02386505 393.40741254 -173.03315735 394.36130905 C-178.70741762 399.74756823 -181.87998095 403.65134117 -182.43164062 411.61962891 C-182.41546512 413.82584709 -182.39919777 416.03206461 -182.3828125 418.23828125 C-184.63397687 431.72186058 -194.85739679 441.17234555 -204.2578125 450.36328125 C-205.21678826 451.31575988 -206.17512466 452.26888267 -207.1328125 453.22265625 C-215.1169186 461.11577539 -215.1169186 461.11577539 -220.2578125 461.61328125 C-223.58697838 461.55870476 -224.21557667 461.3728857 -226.9453125 459.17578125 C-228.83881095 455.30645834 -228.39301572 453.39242177 -227.3828125 449.23828125 C-225.32910156 446.55102539 -225.32910156 446.55102539 -222.6484375 444.0234375 C-222.17339783 443.56400253 -221.69835815 443.10456757 -221.20892334 442.63121033 C-219.69722214 441.17258739 -218.16703289 439.73566884 -216.6328125 438.30078125 C-204.02671063 427.06174989 -204.02671063 427.06174989 -199.0703125 411.55078125 C-199.03292969 410.74253906 -198.99554688 409.93429687 -198.95703125 409.1015625 C-200.31618849 399.9615418 -206.84845356 394.14886244 -213.12670898 387.97290039 C-214.69554496 386.42555197 -216.24179653 384.85791191 -217.78710938 383.28710938 C-218.79299055 382.28387096 -219.8001116 381.28187382 -220.80859375 380.28125 C-221.71005127 379.3843042 -222.61150879 378.4873584 -223.5402832 377.56323242 C-228.83921089 373.22915286 -234.08759583 371.63479236 -240.91015625 371.90234375 C-254.373525 373.73149022 -265.23953148 388.91000933 -274.43359375 398.05078125 C-275.03600576 398.64911774 -275.63841778 399.24745422 -276.2590847 399.86392212 C-279.43841337 403.02257693 -282.61458954 406.18436371 -285.78833008 409.34863281 C-289.04559215 412.59477725 -292.31438458 415.82905429 -295.58579731 419.06092834 C-298.12250249 421.57140724 -300.6502035 424.0908098 -303.17561913 426.61264038 C-304.37661836 427.80880141 -305.58096395 429.00161316 -306.78884315 430.19082642 C-317.37747383 440.2847085 -317.37747383 440.2847085 -323.01171875 453.4609375 C-322.98980469 454.39808594 -322.96789062 455.33523438 -322.9453125 456.30078125 C-322.94660156 457.24050781 -322.94789063 458.18023437 -322.94921875 459.1484375 C-321.28349953 468.23522304 -315.41790673 473.83315907 -309.06616211 480.07641602 C-307.56973291 481.55135251 -306.0959518 483.04653331 -304.62304688 484.54492188 C-303.6627385 485.5025875 -302.7011903 486.45901182 -301.73828125 487.4140625 C-300.87871826 488.26911377 -300.01915527 489.12416504 -299.13354492 490.00512695 C-294.02490322 494.15252605 -288.01431768 496.48863288 -281.359375 496.12890625 C-269.10907248 494.32359851 -260.23003107 482.23462465 -252.3515625 473.6015625 C-245.72486524 466.68155242 -245.72486524 466.68155242 -240.953125 466.578125 C-237.3828125 467.23828125 -237.3828125 467.23828125 -234.8828125 468.80078125 C-232.63368428 472.45561462 -232.49026217 473.98150275 -233.3828125 478.23828125 C-235.55621259 481.36752221 -238.13729215 484.01037857 -240.83740234 486.68994141 C-242.56625473 488.42207124 -244.24911711 490.19346358 -245.93359375 491.96875 C-256.09733678 502.56041247 -266.00626201 512.290356 -281.53540039 512.61865234 C-298.82129378 512.57566719 -308.06683766 504.93313428 -320.05615234 492.99047852 C-321.50048388 491.55804948 -322.96246791 490.14542001 -324.42578125 488.73242188 C-333.19057878 480.11926896 -339.3736183 471.52311141 -339.67578125 458.99414062 C-339.81737238 441.73418141 -332.80854499 432.60370054 -320.94189453 420.52270508 C-318.43421531 417.98743181 -315.91365364 415.46529964 -313.390625 412.9453125 C-312.03574373 411.58653446 -310.68108271 410.22753678 -309.32662964 408.86833191 C-306.50091942 406.03520335 -303.67142314 403.2059233 -300.83935547 400.37915039 C-297.23123502 396.7768311 -293.63463085 393.16325186 -290.04101753 389.54646778 C-287.25111334 386.74175607 -284.45423191 383.94408244 -281.65536118 381.14832115 C-280.32710357 379.81955428 -279.00117077 378.48845884 -277.67773819 377.15488625 C-257.92116844 357.26550157 -257.92116844 357.26550157 -245.3828125 355.23828125 C-243.16998999 355.24420318 -240.95717608 355.25417524 -238.74438477 355.26733398 C-230.09702022 354.67279462 -226.1219285 350.7538915 -220.34765625 344.6484375 C-219.37324131 343.6624264 -218.39626055 342.67894513 -217.41688538 341.69786072 C-215.38225689 339.64640838 -213.37073309 337.57561636 -211.37524414 335.48608398 C-208.83734664 332.82935924 -206.26189981 330.21346773 -203.66991329 327.60959721 C-201.65581818 325.58238692 -199.65578102 323.54177856 -197.66024971 321.49630547 C-196.2609836 320.06270529 -194.85614468 318.63455111 -193.45115662 317.20655823 C-187.07718141 310.52272267 -180.58848295 303.0759009 -180.80859375 293.30859375 C-181.09611965 286.99109491 -183.03697151 281.84594977 -185.5703125 276.11328125 C-186.40615984 274.09770256 -187.23554176 272.07943112 -188.05859375 270.05859375 C-188.46029785 269.0727832 -188.86200195 268.08697266 -189.27587891 267.07128906 C-191.92650403 260.28746595 -193.76154012 253.32871073 -195.3828125 246.23828125 C-195.54507324 245.5716748 -195.70733398 244.90506836 -195.87451172 244.21826172 C-203.45084747 211.95042101 -198.50221961 176.26208298 -188.3828125 145.23828125 C-188.15368164 144.53300293 -187.92455078 143.82772461 -187.68847656 143.10107422 C-180.35576109 121.05503632 -168.6311203 100.26161636 -153.9140625 82.32421875 C-152.37312484 80.44560648 -150.86361461 78.53983648 -149.4140625 76.58984375 C-145.55343988 71.58858262 -145.55343988 71.58858262 -142.3203125 70.62109375 C-138.96952648 70.41166962 -136.70997973 71.03380173 -133.8828125 72.80078125 C-131.75746398 76.2544726 -131.90027653 78.2103327 -132.3828125 82.23828125 C-134.01162553 85.17919367 -136.10476638 87.66608971 -138.2578125 90.23828125 C-139.46174239 91.74598201 -140.66221711 93.25644772 -141.859375 94.76953125 C-142.45782227 95.52105469 -143.05626953 96.27257812 -143.67285156 97.046875 C-160.94208764 119.17832318 -172.58785678 145.85290991 -178.3828125 173.23828125 C-178.54507324 173.98480957 -178.70733398 174.73133789 -178.87451172 175.50048828 C-185.94294095 209.45666791 -181.5016775 245.78142901 -166.80078125 277.0859375 C-162.81265891 285.95209378 -162.86591007 298.04723888 -166.0078125 307.23828125 C-169.73777319 316.67476299 -176.59584797 323.87496338 -183.71875 330.8671875 C-184.59810211 331.74229477 -185.47745422 332.61740204 -186.38345337 333.51902771 C-189.16788683 336.28679412 -191.96261484 339.04389047 -194.7578125 341.80078125 C-196.65909937 343.68529635 -198.55798666 345.57220751 -200.45703125 347.45898438 C-205.09106248 352.06010529 -209.73357043 356.65253349 -214.3828125 361.23828125 C-212.91202648 364.34097536 -211.61949755 366.12696346 -208.9453125 368.30078125 C-205.33081381 371.35920322 -201.91871024 374.580728 -198.5703125 377.92578125 C-197.65636719 378.83714844 -196.74242187 379.74851562 -195.80078125 380.6875 C-193.8055034 382.79237308 -192.05051641 384.87246872 -190.3828125 387.23828125 C-187.06996881 385.79695102 -184.93129941 384.01217748 -182.41552734 381.43457031 C-181.64727631 380.65325745 -180.87902527 379.87194458 -180.0874939 379.06695557 C-179.26455841 378.22114929 -178.44162292 377.37534302 -177.59375 376.50390625 C-175.8297138 374.71456104 -174.06538133 372.92550788 -172.30078125 371.13671875 C-169.5322332 368.3187061 -166.76695455 365.49764564 -164.00732422 362.67089844 C-161.33680731 359.93954644 -158.65364225 357.2211187 -155.96875 354.50390625 C-155.1579599 353.6661969 -154.3471698 352.82848755 -153.5118103 351.96539307 C-144.80179248 343.18060301 -135.67730172 337.15527296 -123.02954102 336.80688477 C-113.7185297 336.78186861 -106.92942204 338.349915 -98.3828125 342.23828125 C-80.41704878 349.81875375 -60.96307076 354.83634046 -41.3828125 355.23828125 C-40.56554687 355.27695312 -39.74828125 355.315625 -38.90625 355.35546875 C1.24464224 356.47422426 41.55793887 341.84365929 73.6171875 318.23828125 C74.2359375 317.78630371 74.8546875 317.33432617 75.4921875 316.86865234 C82.54453006 311.66488988 89.12573235 306.00396024 95.5546875 300.05078125 C96.15756592 299.49277832 96.76044434 298.93477539 97.3815918 298.35986328 C129.76654409 267.78229719 153.89171112 221.3098479 155.77832031 176.40283203 C156.40503656 151.6138288 156.40503656 151.6138288 152.6171875 127.23828125 C152.40787598 126.43438965 152.19856445 125.63049805 151.98291016 124.80224609 C145.34141889 99.933081 134.20960584 77.34142543 115.6171875 59.23828125 C115.6171875 58.57828125 115.6171875 57.91828125 115.6171875 57.23828125 C114.76060547 56.86703125 114.76060547 56.86703125 113.88671875 56.48828125 C111.26194781 55.04262428 109.45862524 53.32153709 107.3046875 51.23828125 C76.61852662 23.32550518 35.76442537 15.76768646 -4.3828125 17.23828125 C-40.12230176 19.61440917 -75.57857258 34.53268822 -103.62890625 56.5390625 C-104.33909912 57.09166748 -105.04929199 57.64427246 -105.78100586 58.21362305 C-107.14752222 59.28616934 -108.50207347 60.37420049 -109.84204102 61.47973633 C-113.17118602 64.10328719 -114.87208972 65.18025645 -119.19921875 65.671875 C-122.3828125 65.23828125 -122.3828125 65.23828125 -124.8203125 63.67578125 C-126.99630204 60.28123757 -126.93908409 58.20171635 -126.3828125 54.23828125 C-123.24012625 49.47227361 -118.94986042 46.31505525 -114.4453125 42.92578125 C-113.68968018 42.35327637 -112.93404785 41.78077148 -112.15551758 41.19091797 C-105.79422565 36.4305299 -99.2507708 32.23790936 -92.3828125 28.23828125 C-91.03123047 27.38556641 -91.03123047 27.38556641 -89.65234375 26.515625 C-63.67279098 10.42955495 -30.61950062 0.32578546 0 0 Z " fill="#000000" transform="translate(339.3828125,-0.23828125)"/>
</svg>
